<svg width="165" height="60" viewBox="0 0 165 60" fill="none" xmlns="http://www.w3.org/2000/svg">
<path d="M21.3818 13.9196L36.3247 49.248L39.4578 46.1624L24.515 10.834L21.3818 13.9196Z" fill="#F1BE48"/>
<path d="M26.8672 8.51389L41.8101 43.8457L44.9432 40.76L30.0003 5.43164L26.8672 8.51389Z" fill="#F1BE48"/>
<path d="M47.2458 38.4922L50.3789 35.4065L42.5391 16.8722L34.9346 9.38281L47.2458 38.4922Z" fill="#F1BE48"/>
<path d="M52.7615 33.0607L55.8705 30.0023L48.3281 22.5742L52.7615 33.0607Z" fill="#F1BE48"/>
<path d="M5.05273 30.0009L12.5397 37.371L8.13745 26.9629L5.05273 30.0009Z" fill="#F1BE48"/>
<path d="M10.4199 24.7155L18.0798 42.8275L25.7363 50.3714L13.5738 21.6094L10.4199 24.7155Z" fill="#F1BE48"/>
<path d="M15.9355 19.2838L30.8784 54.6156L34.0323 51.5061L19.0894 16.1777L15.9355 19.2838Z" fill="#F1BE48"/>
<path d="M47.7958 17.0733V8.78697H39.382L30.4598 0L21.5377 8.78697H4.71698V25.3528L0 30.0017L4.71698 34.6472V51.213H21.5377L30.4598 60L39.382 51.213H47.7958V42.9267L60.9196 30.0017L47.7958 17.0733ZM5.05243 30.0153L8.2893 26.8241V12.3052H23.0178L30.4598 4.97588L37.9019 12.3052H44.2234V18.531L55.8672 30.0017L44.2234 41.469V47.6948H37.9019L30.4598 55.0241L23.0178 47.6948H8.2893V33.1895L5.05243 30.0153Z" fill="#363B48"/>
<path d="M86.4586 30.0019L86.4447 22.0221L82.4263 28.6702H81.6966L77.6782 22.0698V30.0019H76.1497V19.0488H77.4534L82.0909 26.7459L86.6661 19.0488H87.9698L87.9871 30.0019H86.4586Z" fill="#363B48"/>
<path d="M98.9461 21.709V30.0021H97.5006V28.7488C97.1905 29.1797 96.7707 29.5227 96.2833 29.7433C95.7687 29.9769 95.2073 30.0934 94.6407 30.0838C94.1591 30.1103 93.677 30.043 93.2219 29.8858C92.7667 29.7286 92.3475 29.4846 91.9882 29.1677C91.3404 28.5569 91.0177 27.6578 91.02 26.4703V21.7022H92.545V26.3102C92.4948 26.9695 92.7055 27.6225 93.1329 28.1323C93.3534 28.3466 93.6175 28.5123 93.9078 28.6186C94.1981 28.7248 94.508 28.7692 94.8171 28.7488C95.168 28.7668 95.5189 28.7122 95.8471 28.5884C96.1754 28.4646 96.4736 28.2744 96.7225 28.0301C97.2169 27.465 97.4654 26.7309 97.4142 25.9867V21.709H98.9461Z" fill="#363B48"/>
<path d="M102.283 29.8216C101.744 29.6856 101.237 29.4486 100.789 29.1234L101.426 27.9348C101.837 28.2158 102.293 28.4276 102.774 28.5614C103.295 28.717 103.835 28.7962 104.379 28.7964C105.714 28.7964 106.378 28.4218 106.378 27.6691C106.382 27.5565 106.36 27.4444 106.314 27.3416C106.267 27.2388 106.196 27.148 106.108 27.0765C105.904 26.9199 105.668 26.8094 105.416 26.753C105.147 26.6882 104.763 26.6099 104.265 26.5282C103.703 26.4489 103.148 26.3282 102.605 26.1672C102.183 26.0396 101.802 25.8046 101.502 25.486C101.174 25.108 101.009 24.6194 101.042 24.1237C101.034 23.7679 101.116 23.4157 101.283 23.0997C101.449 22.7837 101.693 22.5139 101.993 22.3152C102.751 21.8268 103.647 21.5883 104.552 21.634C105.12 21.635 105.685 21.7036 106.236 21.8384C106.724 21.9443 107.192 22.1284 107.619 22.3833L106.969 23.5753C106.245 23.1276 105.403 22.899 104.548 22.918C104.036 22.8855 103.525 22.994 103.072 23.2314C102.919 23.311 102.791 23.4301 102.701 23.5758C102.612 23.7216 102.564 23.8886 102.563 24.059C102.558 24.1803 102.58 24.3013 102.63 24.4124C102.68 24.5236 102.755 24.6218 102.85 24.6993C103.053 24.8614 103.289 24.9777 103.542 25.0398C103.822 25.1148 104.216 25.1965 104.725 25.2919C105.281 25.3799 105.831 25.5028 106.371 25.6597C106.781 25.7854 107.15 26.0143 107.443 26.3238C107.756 26.6899 107.915 27.1606 107.886 27.6385C107.893 27.9944 107.807 28.3462 107.636 28.6599C107.465 28.9737 107.215 29.2388 106.91 29.4299C106.114 29.9171 105.187 30.1547 104.251 30.1111C103.58 30.113 102.911 30.0212 102.266 29.8386" fill="#363B48"/>
<path d="M117.385 26.3545H110.555C110.592 26.6972 110.698 27.0292 110.866 27.3315C111.034 27.6337 111.261 27.9001 111.534 28.1153C112.125 28.5701 112.86 28.8053 113.609 28.7795C114.062 28.7963 114.514 28.7155 114.932 28.5425C115.35 28.3696 115.725 28.1087 116.03 27.7782L116.87 28.7488C116.486 29.191 115.998 29.5347 115.449 29.7501C114.846 29.9862 114.202 30.102 113.554 30.0907C112.731 30.1061 111.917 29.9213 111.185 29.5526C110.516 29.21 109.961 28.685 109.587 28.0404C109.224 27.369 109.034 26.6198 109.034 25.859C109.034 25.0982 109.224 24.349 109.587 23.6776C109.936 23.0453 110.458 22.5224 111.095 22.1688C111.756 21.8022 112.504 21.6153 113.263 21.6273C114.018 21.6145 114.762 21.8015 115.418 22.1688C116.044 22.5248 116.556 23.0478 116.894 23.6776C117.258 24.3623 117.441 25.1257 117.427 25.8982C117.425 26.0497 117.413 26.201 117.392 26.3511L117.385 26.3545ZM111.43 23.5516C110.932 23.9988 110.623 24.6137 110.562 25.2749H115.964C115.899 24.6216 115.591 24.0149 115.099 23.572C114.586 23.1451 113.936 22.9109 113.265 22.9109C112.593 22.9109 111.943 23.1451 111.43 23.572" fill="#363B48"/>
<path d="M127.393 21.709V30.0021H125.948V28.7488C125.638 29.1797 125.218 29.5227 124.73 29.7433C124.216 29.9766 123.654 30.093 123.088 30.0838C122.115 30.1369 121.161 29.8074 120.435 29.1677C119.771 28.5569 119.439 27.6612 119.439 26.4805V21.7124H120.964V26.3102C120.916 26.9693 121.127 27.6216 121.552 28.1323C121.773 28.3462 122.037 28.5117 122.328 28.6179C122.618 28.7242 122.928 28.7688 123.237 28.7488C123.587 28.7668 123.938 28.7122 124.267 28.5884C124.595 28.4646 124.893 28.2744 125.142 28.0301C125.638 27.466 125.887 26.7311 125.834 25.9867V21.709H127.393Z" fill="#363B48"/>
<path d="M143.336 22.54C143.955 23.1429 144.262 24.042 144.262 25.2306V29.9987H142.737V25.4009C142.786 24.7482 142.587 24.1009 142.177 23.5856C141.968 23.3756 141.716 23.2124 141.437 23.1072C141.158 23.002 140.86 22.9572 140.562 22.976C140.222 22.9605 139.882 23.0159 139.565 23.1385C139.248 23.2612 138.961 23.4483 138.722 23.6878C138.228 24.2531 137.98 24.9871 138.031 25.7313V30.0021H136.506V25.4009C136.554 24.7478 136.353 24.1005 135.942 23.5856C135.733 23.3756 135.481 23.2124 135.202 23.1072C134.923 23.002 134.625 22.9572 134.327 22.976C133.987 22.9605 133.647 23.0159 133.33 23.1385C133.013 23.2612 132.726 23.4483 132.487 23.6878C131.994 24.2538 131.746 24.9873 131.796 25.7313V30.0021H130.27V21.709H131.73V22.9453C132.036 22.5194 132.453 22.1819 132.937 21.9678C133.472 21.7342 134.053 21.618 134.638 21.6273C135.238 21.6199 135.831 21.7543 136.367 22.0189C136.868 22.2726 137.278 22.6706 137.543 23.1599C137.871 22.6721 138.329 22.2831 138.868 22.036C139.466 21.7568 140.121 21.617 140.783 21.6273C141.244 21.604 141.704 21.6726 142.136 21.8288C142.569 21.9851 142.965 22.2258 143.301 22.5366" fill="#363B48"/>
<path d="M78.114 48.172C77.24 47.7057 76.5118 47.0133 76.0079 46.1694C75.509 45.2923 75.2471 44.3037 75.2471 43.2983C75.2471 42.2929 75.509 41.3044 76.0079 40.4272C76.5116 39.5808 77.2427 38.8878 78.1209 38.4246C79.0469 37.9334 80.0847 37.6826 81.1364 37.6958C81.9516 37.6868 82.7608 37.8337 83.5191 38.1283C84.2269 38.4058 84.8591 38.8419 85.3658 39.4021L84.3284 40.3898C83.9294 39.9678 83.4443 39.6336 82.9049 39.4094C82.3655 39.1852 81.784 39.0759 81.1987 39.0888C80.4162 39.0785 79.6443 39.2673 78.9578 39.6371C78.3056 39.9886 77.7646 40.5107 77.3947 41.1459C77.025 41.8049 76.8311 42.5454 76.8311 43.2983C76.8311 44.0512 77.025 44.7918 77.3947 45.4508C77.7646 46.0859 78.3056 46.608 78.9578 46.9596C79.6443 47.3293 80.4162 47.5182 81.1987 47.5079C81.7851 47.519 82.3672 47.4076 82.9066 47.181C83.4461 46.9544 83.9306 46.6177 84.3284 46.1933L85.3658 47.1775C84.8568 47.7406 84.2224 48.18 83.5122 48.4615C82.7526 48.7608 81.9407 48.9101 81.1226 48.9009C80.0729 48.9153 79.0371 48.6643 78.114 48.172Z" fill="#363B48"/>
<path d="M87.4373 38.6052C87.343 38.518 87.2682 38.4123 87.2176 38.2951C87.167 38.1778 87.1417 38.0515 87.1433 37.9241C87.1427 37.7968 87.1685 37.6708 87.2191 37.5537C87.2696 37.4366 87.3438 37.3308 87.4373 37.2429C87.5339 37.1473 87.6494 37.0722 87.7767 37.0224C87.904 36.9726 88.0404 36.9492 88.1773 36.9534C88.4496 36.9455 88.7142 37.0433 88.9139 37.2259C89.009 37.3125 89.0844 37.418 89.135 37.5354C89.1857 37.6528 89.2105 37.7795 89.2078 37.9071C89.21 38.0391 89.1851 38.1702 89.1346 38.2925C89.0841 38.4148 89.009 38.5258 88.9139 38.6189C88.8172 38.7134 88.7021 38.7878 88.5756 38.8375C88.449 38.8873 88.3135 38.9114 88.1773 38.9084C87.9023 38.9145 87.6361 38.8128 87.4373 38.6257V38.6052ZM87.413 40.5023H88.9381V48.7954H87.413V40.5023Z" fill="#363B48"/>
<path d="M96.5773 48.2879C96.3344 48.4858 96.0532 48.6329 95.7508 48.7204C95.4223 48.8185 95.0808 48.8678 94.7375 48.8668C94.3794 48.8887 94.0205 48.8396 93.682 48.7227C93.3434 48.6057 93.0321 48.4231 92.7663 48.1857C92.5236 47.9285 92.337 47.6251 92.2181 47.2941C92.0991 46.9632 92.0503 46.6117 92.0747 46.2614V41.7181H90.6465V40.4818H92.0747V38.6665H93.6032V40.4818H96.024V41.7181H93.6032V46.2069C93.5808 46.5786 93.7046 46.9446 93.9491 47.2287C94.0759 47.3541 94.2286 47.4512 94.3968 47.5135C94.5651 47.5758 94.7449 47.6018 94.9243 47.5897C95.3554 47.6019 95.7769 47.4631 96.1139 47.198L96.5773 48.2879Z" fill="#363B48"/>
<path d="M102.951 48.2879C102.706 48.4851 102.424 48.6321 102.121 48.7204C101.791 48.8188 101.448 48.8682 101.104 48.8668C100.747 48.8876 100.388 48.8381 100.051 48.7212C99.7128 48.6042 99.402 48.4222 99.1364 48.1857C98.8936 47.9285 98.707 47.6251 98.5881 47.2941C98.4691 46.9632 98.4203 46.6117 98.4447 46.2614V41.7181H97.0165V40.4818H98.4447V38.6665H99.9698V40.4818H102.391V41.7181H99.9698V46.2069C99.9473 46.5786 100.071 46.9446 100.316 47.2287C100.443 47.3536 100.597 47.4504 100.766 47.5127C100.934 47.5749 101.114 47.6012 101.294 47.5897C101.726 47.6006 102.148 47.462 102.487 47.198L102.951 48.2879Z" fill="#363B48"/>
<path d="M110.531 41.2481C111.154 41.8135 111.465 42.6513 111.465 43.7684V48.7749H110.016V47.6646C109.751 48.0594 109.373 48.3676 108.93 48.5501C108.398 48.7631 107.827 48.8663 107.253 48.8532C106.441 48.8921 105.642 48.6513 104.991 48.1721C104.727 47.9587 104.514 47.691 104.367 47.3879C104.219 47.0848 104.14 46.7535 104.136 46.4174C104.133 46.0812 104.203 45.7483 104.344 45.4419C104.484 45.1355 104.691 44.8631 104.95 44.6437C105.489 44.2009 106.347 43.9795 107.522 43.9795H109.943V43.6798C109.961 43.4065 109.92 43.1326 109.821 42.8765C109.723 42.6203 109.57 42.3879 109.373 42.1949C108.897 41.8199 108.296 41.635 107.688 41.6772C107.19 41.6773 106.696 41.7602 106.226 41.9225C105.787 42.0642 105.378 42.2835 105.019 42.5696L104.386 41.4456C104.848 41.0854 105.376 40.817 105.942 40.6555C106.564 40.4691 107.211 40.3761 107.861 40.3796C109.027 40.3796 109.936 40.6623 110.538 41.2243L110.531 41.2481ZM109.016 47.324C109.436 47.0711 109.759 46.6893 109.936 46.2376V45.0796H107.588C106.295 45.0796 105.648 45.5065 105.648 46.3602C105.64 46.5516 105.681 46.7418 105.767 46.9136C105.853 47.0855 105.981 47.2336 106.139 47.3445C106.548 47.6102 107.034 47.737 107.522 47.7055C108.051 47.7197 108.574 47.5876 109.03 47.324" fill="#363B48"/>
<path d="M118.585 38.6051C118.492 38.5173 118.417 38.4116 118.367 38.2945C118.316 38.1774 118.291 38.0513 118.291 37.924C118.292 37.7968 118.318 37.6711 118.368 37.5541C118.419 37.4371 118.492 37.3312 118.585 37.2428C118.682 37.1472 118.797 37.0721 118.925 37.0223C119.052 36.9725 119.188 36.9491 119.325 36.9533C119.46 36.9483 119.595 36.9698 119.721 37.0165C119.848 37.0633 119.964 37.1345 120.062 37.2258C120.158 37.3117 120.235 37.417 120.286 37.5345C120.337 37.652 120.362 37.7791 120.359 37.907C120.362 38.0393 120.336 38.1707 120.285 38.2931C120.234 38.4155 120.158 38.5264 120.062 38.6188C119.966 38.714 119.851 38.7888 119.724 38.8385C119.597 38.8883 119.462 38.9121 119.325 38.9083C119.05 38.9144 118.784 38.8127 118.585 38.6256V38.6051ZM118.564 40.5022H120.09V48.7953H118.564V40.5022Z" fill="#363B48"/>
<path d="M130.938 37.1645V48.7748H129.468V47.4602C129.138 47.912 128.695 48.2722 128.182 48.5058C127.64 48.7531 127.049 48.8765 126.453 48.8668C125.695 48.8788 124.948 48.6994 124.281 48.3457C123.643 47.9989 123.118 47.4818 122.766 46.854C122.39 46.1746 122.201 45.4104 122.216 44.6368C122.2 43.8675 122.39 43.1075 122.766 42.4332C123.121 41.8079 123.645 41.2924 124.281 40.9449C124.953 40.5843 125.708 40.4012 126.473 40.4136C127.047 40.4082 127.616 40.5243 128.14 40.7542C128.643 40.9748 129.081 41.3169 129.413 41.7487V37.1645H130.938ZM128.047 47.1843C128.477 46.9447 128.829 46.5906 129.064 46.1626C129.307 45.6872 129.434 45.1623 129.434 44.63C129.434 44.0977 129.307 43.5727 129.064 43.0974C128.832 42.6671 128.479 42.3122 128.047 42.0756C127.601 41.8386 127.103 41.7146 126.596 41.7146C126.09 41.7146 125.591 41.8386 125.145 42.0756C124.716 42.3151 124.363 42.6693 124.129 43.0974C123.883 43.572 123.755 44.0972 123.755 44.63C123.755 45.1627 123.883 45.6879 124.129 46.1626C124.366 46.5884 124.718 46.9419 125.145 47.1843C125.59 47.4255 126.089 47.552 126.596 47.552C127.104 47.552 127.603 47.4255 128.047 47.1843Z" fill="#363B48"/>
<path d="M141.406 45.1306H134.576C134.612 45.4727 134.717 45.8042 134.884 46.106C135.051 46.4077 135.278 46.6736 135.551 46.888C136.142 47.3428 136.877 47.578 137.626 47.5522C138.079 47.569 138.531 47.4882 138.949 47.3152C139.367 47.1422 139.742 46.8814 140.047 46.5509L140.891 47.5215C140.505 47.9629 140.018 48.3064 139.469 48.5228C138.866 48.7588 138.22 48.8746 137.571 48.8634C136.752 48.884 135.941 48.7062 135.209 48.3457C134.541 48.0041 133.988 47.4803 133.615 46.8369C133.233 46.168 133.038 45.411 133.051 44.6436C133.039 43.8849 133.227 43.1362 133.597 42.4707C133.947 41.8392 134.469 41.3166 135.105 40.9619C135.767 40.5958 136.515 40.409 137.273 40.4204C138.028 40.4073 138.772 40.5943 139.428 40.9619C140.054 41.3179 140.566 41.8409 140.904 42.4707C141.268 43.1554 141.451 43.9189 141.437 44.6913C141.435 44.8438 141.424 44.9962 141.406 45.1477V45.1306ZM135.441 42.3447C134.942 42.7913 134.633 43.4068 134.576 44.068H139.974C139.91 43.4147 139.602 42.8081 139.11 42.3651C138.611 41.9116 137.952 41.6672 137.273 41.684C136.6 41.6652 135.944 41.9003 135.441 42.3413" fill="#363B48"/>
<path d="M149.052 41.2481C149.674 41.8135 149.982 42.6513 149.982 43.7684V48.7749H148.537V47.6646C148.271 48.0599 147.892 48.3682 147.447 48.5501C146.916 48.7631 146.347 48.8663 145.774 48.8532C144.961 48.8921 144.16 48.6512 143.508 48.1721C143.245 47.9581 143.033 47.6901 142.886 47.3869C142.739 47.0837 142.661 46.7526 142.658 46.4166C142.654 46.0806 142.725 45.7479 142.865 45.4417C143.006 45.1355 143.212 44.8632 143.47 44.6437C144.01 44.2009 144.868 43.9795 146.043 43.9795H148.464V43.6798C148.482 43.4065 148.441 43.1326 148.342 42.8765C148.244 42.6203 148.091 42.3879 147.893 42.1949C147.418 41.8199 146.817 41.635 146.209 41.6772C145.711 41.6773 145.217 41.7602 144.747 41.9225C144.307 42.0634 143.898 42.2828 143.54 42.5696L142.907 41.4456C143.368 41.0861 143.895 40.8178 144.459 40.6555C145.083 40.4691 145.731 40.3761 146.382 40.3796C147.547 40.3796 148.439 40.6612 149.059 41.2243L149.052 41.2481ZM147.537 47.324C147.957 47.0711 148.28 46.6893 148.457 46.2376V45.0796H146.109C144.816 45.0796 144.169 45.5065 144.169 46.3602C144.161 46.5516 144.202 46.7418 144.288 46.9136C144.374 47.0855 144.502 47.2336 144.66 47.3445C145.069 47.6102 145.555 47.737 146.043 47.7055C146.572 47.7197 147.095 47.5876 147.551 47.324" fill="#363B48"/>
<path d="M154.336 37.1645H152.811V48.7714H154.336V37.1645Z" fill="#363B48"/>
<path d="M164.821 45.1306H157.988C158.025 45.4723 158.13 45.8034 158.298 46.105C158.465 46.4066 158.691 46.6727 158.963 46.888C159.554 47.3423 160.289 47.5774 161.038 47.5521C161.491 47.569 161.943 47.4881 162.361 47.3152C162.779 47.1422 163.154 46.8814 163.459 46.5508L164.299 47.5215C163.915 47.9637 163.427 48.3073 162.878 48.5228C162.274 48.7591 161.629 48.8749 160.979 48.8634C160.158 48.8784 159.345 48.6935 158.614 48.3253C157.945 47.9839 157.391 47.4601 157.016 46.8165C156.634 46.1475 156.44 45.3906 156.453 44.6232C156.442 43.8642 156.631 43.1155 157.002 42.4503C157.35 41.8172 157.873 41.2941 158.51 40.9415C159.172 40.5754 159.92 40.3885 160.678 40.4C161.432 40.3868 162.175 40.5738 162.829 40.9415C163.458 41.2964 163.971 41.8195 164.31 42.4503C164.673 43.1349 164.856 43.8984 164.842 44.6708C164.842 44.7866 164.842 44.9365 164.811 45.1272L164.821 45.1306ZM158.863 42.3276C158.367 42.7761 158.059 43.3906 157.998 44.051H163.4C163.334 43.398 163.026 42.7918 162.535 42.3481C162.036 41.8948 161.378 41.6506 160.699 41.6669C160.025 41.6483 159.368 41.8833 158.863 42.3242" fill="#363B48"/>
</svg>
