<svg width="168" height="59" viewBox="0 0 168 59" fill="none" xmlns="http://www.w3.org/2000/svg">
<g clip-path="url(#clip0_1196_8101)">
<path fill-rule="evenodd" clip-rule="evenodd" d="M111.939 18.0159C110.744 18.3882 110.127 19.2885 110.127 20.6635V21.2402H109.381H108.636V21.8844V22.5286H109.381H110.127V26.0471V29.5656H110.923H111.718V26.0471V22.5286H112.961H114.204V21.8844V21.2402H112.961H111.718V20.6405C111.718 20.2902 111.783 19.9162 111.874 19.7408C112.166 19.1786 113.092 18.9974 113.872 19.3501L114.285 19.5371L114.493 19.0374C114.81 18.2773 114.824 18.2986 113.816 17.9779C113.365 17.8343 112.464 17.8526 111.939 18.0159ZM88.947 23.7675V29.5656H89.7425H90.538V23.7675V17.9694H89.7425H88.947V23.7675ZM77.5117 24.1144V29.5656H78.3569H79.2021V27.9415V26.3174L81.2654 26.2713C82.9887 26.2329 83.4312 26.1918 83.9501 26.0228C85.1938 25.6174 86.0866 24.8385 86.4695 23.8249C86.7745 23.0173 86.7105 21.5047 86.3411 20.7922C85.8329 19.8119 84.7453 19.0404 83.4979 18.7752C83.1789 18.7074 81.8937 18.6632 80.2413 18.6632H77.5117V24.1144ZM103.365 20.3481V21.2402H102.669H101.973V21.8844V22.5286H102.66H103.346L103.383 25.1799C103.416 27.6016 103.437 27.8698 103.625 28.2772C104.029 29.1582 104.951 29.6648 106.15 29.6648C106.757 29.6648 107.575 29.4535 107.885 29.2166C108.077 29.0706 108.075 29.0596 107.811 28.5218C107.548 27.988 107.536 27.9787 107.312 28.1256C106.976 28.3451 106.237 28.4202 105.806 28.2788C105.579 28.2039 105.365 28.0384 105.247 27.8457C105.073 27.56 105.057 27.3237 105.056 25.0312L105.056 22.5286H106.249H107.442V21.8844V21.2402H106.249H105.056V20.3481V19.4561H104.211H103.365V20.3481ZM83.6563 20.3379C84.7065 20.8099 85.2297 21.8544 84.9778 22.9762C84.8235 23.6635 84.4897 24.1187 83.9089 24.4338C83.2611 24.7851 82.435 24.9056 80.6688 24.9065L79.2021 24.9073V22.4716V20.0359L81.166 20.0686C82.9838 20.0989 83.1691 20.1189 83.6563 20.3379ZM95.0127 21.3848C94.1141 21.6137 93.1214 22.1013 93.1243 22.3124C93.1249 22.3495 93.2561 22.6074 93.4161 22.8854L93.707 23.3909L94.3847 23.0558C95.9248 22.2943 97.7402 22.4142 98.4081 23.3215C98.5993 23.5811 98.8298 24.5668 98.7352 24.7195C98.7049 24.7683 97.9315 24.8082 97.0165 24.8082C94.4924 24.8082 93.6501 25.1052 93.0985 26.1895C92.4715 27.4219 93.0099 28.7973 94.3438 29.3698C95.5274 29.8779 97.4371 29.7053 98.3545 29.0073L98.7913 28.6749V29.1203V29.5656H99.5868H100.382V26.9574C100.382 23.5096 100.266 22.9253 99.4213 22.1122C98.7596 21.4758 98.2271 21.3053 96.8026 21.2734C95.9742 21.2547 95.3772 21.2919 95.0127 21.3848ZM117.773 21.378C116.572 21.7234 115.411 22.727 114.985 23.7888C114.794 24.2649 114.755 24.5473 114.753 25.4525C114.751 26.4704 114.772 26.5854 115.06 27.1869C115.487 28.0753 116.053 28.6757 116.86 29.0942C119.277 30.3486 122.206 29.4975 123.27 27.2313C123.835 26.0274 123.762 24.4001 123.091 23.259C122.73 22.6452 121.94 21.9606 121.189 21.6099C120.579 21.3257 120.423 21.2966 119.377 21.2726C118.643 21.2557 118.067 21.2936 117.773 21.378ZM125.805 21.3063C125.769 21.3425 125.739 23.2158 125.739 25.469V29.5656H126.524H127.31L127.349 27.1126C127.386 24.7971 127.401 24.6301 127.622 24.1348C128.033 23.2113 128.818 22.7268 129.902 22.7268H130.413V21.9702V21.2135L129.731 21.2622C128.914 21.3204 128.07 21.6956 127.628 22.1968L127.33 22.5356V21.8879V21.2402H126.601C126.2 21.2402 125.842 21.2699 125.805 21.3063ZM132.302 25.4029V29.5656H133.09H133.878L133.914 26.9639C133.953 24.1904 133.977 24.0426 134.497 23.3835C135.181 22.5168 137.175 22.357 138.002 23.1023C138.105 23.1957 138.286 23.4504 138.403 23.6684C138.604 24.0417 138.618 24.2259 138.648 26.8153L138.68 29.5656H139.468H140.257V27.1531C140.257 24.5197 140.321 24.0928 140.809 23.455C141.639 22.3695 143.891 22.3365 144.599 23.3995C144.955 23.9334 145.03 24.5851 145.03 27.1422V29.5656H145.825H146.621V26.944C146.621 25.3804 146.576 24.1105 146.509 23.7972C146.275 22.6987 145.688 21.9372 144.737 21.4984C144.353 21.3214 144.095 21.2897 143.041 21.2897C141.888 21.2897 141.755 21.3097 141.202 21.5673C140.873 21.72 140.419 22.026 140.192 22.2473L139.779 22.6498L139.413 22.2453C139.211 22.0227 138.793 21.7168 138.483 21.5652C137.961 21.3098 137.833 21.2899 136.727 21.2921C135.369 21.2947 134.924 21.4348 134.199 22.0872L133.793 22.4526V21.8463V21.2402H133.048H132.302V25.4029ZM120.564 22.9006C122.187 23.7211 122.56 26.178 121.258 27.4756C120.447 28.2837 118.986 28.5336 117.933 28.044C117.382 27.7878 116.747 27.1473 116.53 26.6302C116.145 25.7135 116.292 24.4562 116.877 23.6513C117.657 22.5785 119.275 22.2489 120.564 22.9006ZM98.741 26.5591C98.7404 27.0942 98.702 27.2173 98.4321 27.5497C97.6275 28.5405 95.7357 28.7874 94.8217 28.0208C94.3117 27.5931 94.2886 26.7925 94.7734 26.3447C95.1537 25.9932 95.6235 25.915 97.2501 25.9323L98.7416 25.948L98.741 26.5591ZM89.4939 36.4826C89.3845 36.5047 89.172 36.6383 89.0216 36.7795C88.8071 36.9809 88.7481 37.1265 88.7481 37.4548C88.7481 38.0263 89.1578 38.3867 89.8075 38.3867C90.717 38.3867 91.1924 37.3811 90.5742 36.7648C90.43 36.6211 90.2622 36.4979 90.2013 36.4909C89.8319 36.4487 89.671 36.4469 89.4939 36.4826ZM121.097 36.5495C120.776 36.6884 120.468 37.1376 120.469 37.4649C120.47 37.813 120.844 38.2721 121.209 38.3726C121.724 38.5142 122.224 38.3491 122.462 37.9594C122.822 37.3719 122.638 36.8082 122 36.5426C121.595 36.374 121.5 36.3747 121.097 36.5495ZM131.805 38.8911V41.0804L131.492 40.8183C129.491 39.1401 126.017 39.8728 124.931 42.2022C123.914 44.3843 124.754 46.9695 126.788 47.9184C128.415 48.6771 130.328 48.4673 131.552 47.3959L131.904 47.0881V47.693V48.298H132.65H133.396V42.4999V36.7018H132.6H131.805V38.8911ZM155.67 42.4999V48.298H156.465H157.261V42.4999V36.7018H156.465H155.67V42.4999ZM81.15 37.3538C78.9348 37.8482 77.3005 39.3551 76.7517 41.4091C76.5723 42.0805 76.5822 43.565 76.771 44.2874C77.0899 45.5075 77.899 46.6247 78.9849 47.3443C81.2447 48.8416 84.6981 48.7196 86.517 47.0783L86.9878 46.6535L86.4283 46.1772L85.8689 45.7008L85.4775 46.0099C83.3241 47.7098 79.8606 47.0353 78.7024 44.6905C77.7529 42.7679 78.3524 40.5095 80.1135 39.3749C80.9411 38.8418 81.7435 38.6509 82.9456 38.7011C84.0268 38.7462 84.7227 38.9887 85.4752 39.5828L85.8644 39.89L86.2373 39.5953C86.4425 39.4332 86.688 39.2147 86.783 39.1097C86.9488 38.9267 86.9427 38.9064 86.6339 38.615C85.4202 37.4694 83.0619 36.9271 81.15 37.3538ZM93.72 39.0805V39.9725H92.9742H92.2284V40.6167V41.261H92.9742H93.72V43.7208C93.72 46.4616 93.7972 46.9499 94.3253 47.5493C94.8223 48.1134 95.4231 48.3436 96.4048 48.3457C97.2489 48.3475 98.0547 48.1433 98.2755 47.8715C98.3403 47.7917 98.2953 47.5812 98.1378 47.2281L97.9038 46.7034L97.5793 46.8706C97.1016 47.1168 96.183 47.1048 95.8352 46.8478C95.3766 46.5088 95.3228 46.1727 95.3166 43.6149L95.311 41.261H96.554H97.797V40.6167V39.9725H96.554H95.311V39.0805V38.1885H94.5155H93.72V39.0805ZM100.183 39.0805V39.9725H99.4874H98.7913V40.6167V41.261H99.4758H100.16L100.201 43.8627C100.241 46.4263 100.245 46.4727 100.504 47.0325C100.707 47.4703 100.874 47.6681 101.234 47.8953C102.113 48.4509 103.345 48.5256 104.371 48.0853C104.639 47.9708 104.857 47.8437 104.857 47.8028C104.857 47.7322 104.464 46.7972 104.406 46.7296C104.391 46.712 104.248 46.7648 104.088 46.8471C103.405 47.1992 102.543 47.0925 102.131 46.6047L101.874 46.3006V43.7807V41.261H103.067H104.26V40.6167V39.9725H103.067H101.874V39.0805V38.1885H101.029H100.183V39.0805ZM108.984 39.9377C107.922 40.1072 106.349 40.7357 106.349 40.9902C106.349 41.0441 106.486 41.3282 106.655 41.6216L106.961 42.155L107.21 41.9598C107.889 41.4274 109.684 41.1046 110.595 41.3512C111.407 41.5712 111.917 42.2229 111.917 43.0418V43.4415L110.749 43.4422C108.244 43.4438 107.124 43.749 106.479 44.6057C105.915 45.355 105.915 46.4838 106.479 47.2328C107.511 48.6016 110.544 48.7832 111.781 47.5504L112.017 47.3159V47.8069V48.298H112.812H113.608L113.607 45.7458C113.606 44.3421 113.559 42.9052 113.502 42.5524C113.302 41.3263 112.603 40.4889 111.478 40.1265C110.971 39.9633 109.514 39.853 108.984 39.9377ZM138.804 40.0209C136.842 40.4463 135.583 42.037 135.583 44.0907C135.583 46.5088 137.15 48.1256 139.72 48.3587C141.048 48.4793 142.6 48.0241 143.283 47.3141C143.605 46.9786 143.625 47.0419 142.959 46.2995L142.722 46.0355L142.281 46.3712C141.495 46.9694 140.168 47.1821 139.142 46.8744C138.19 46.5887 137.38 45.7794 137.213 44.9461L137.149 44.6308H140.642H144.135L144.134 44.0609C144.13 42.0598 142.816 40.4279 140.881 40.0192C140.066 39.847 139.604 39.8474 138.804 40.0209ZM148.162 39.9702C147.889 40.0125 147.464 40.1013 147.218 40.1676C146.694 40.3084 145.627 40.8529 145.627 40.9789C145.627 41.0267 145.763 41.3071 145.93 41.602L146.234 42.1382L146.701 41.8515C147.285 41.493 148.171 41.2608 148.954 41.2616C150.351 41.2628 151.07 41.7992 151.246 42.972L151.317 43.4415L150.088 43.4422C148.476 43.4432 147.346 43.5791 146.721 43.847C145.07 44.555 144.865 46.7769 146.359 47.7763C147.013 48.2138 147.508 48.3407 148.56 48.3407C149.622 48.3407 150.111 48.2129 150.79 47.7576L151.294 47.4194V47.8587V48.298H152.098H152.901L152.863 45.2998C152.822 42.1461 152.804 42.0063 152.326 41.2441C152.023 40.7618 151.537 40.4039 150.862 40.1678C150.242 39.9504 148.917 39.8535 148.162 39.9702ZM162.73 40.0084C161.436 40.2887 160.458 41.0486 159.873 42.23C159.505 42.9715 159.498 43.006 159.498 44.1301C159.498 45.2121 159.516 45.3118 159.816 45.9432C159.997 46.3241 160.339 46.8165 160.612 47.0889C162.203 48.6747 165.416 48.8274 167.053 47.3951C167.245 47.2263 167.403 47.0471 167.403 46.997C167.403 46.947 167.217 46.7047 166.99 46.4587L166.576 46.0116L166.319 46.2574C165.789 46.7631 165.158 46.9601 164.072 46.9588C162.914 46.9575 162.424 46.7752 161.748 46.0952C161.412 45.7568 161.039 45.0296 161.039 44.7123C161.039 44.6675 162.605 44.6308 164.52 44.6308H168V44.0046C168 41.9806 166.561 40.2971 164.552 39.969C163.824 39.8502 163.42 39.8589 162.73 40.0084ZM88.947 44.1352V48.298H89.7922H90.6374V44.1352V39.9725H89.7922H88.947V44.1352ZM120.767 44.1352V48.298H121.563H122.358V44.1352V39.9725H121.563H120.767V44.1352ZM130.405 41.6132C131.364 42.1337 131.805 42.9273 131.805 44.1352C131.805 45.3441 131.367 46.1309 130.398 46.666C129.918 46.931 129.778 46.9599 128.971 46.9593C128.24 46.9587 128 46.9185 127.665 46.74C126.731 46.2439 126.229 45.4585 126.16 44.383C126.065 42.926 126.703 41.8865 127.969 41.4351C128.718 41.1683 129.72 41.2416 130.405 41.6132ZM141.103 41.494C141.852 41.8417 142.544 42.7277 142.544 43.3392C142.544 43.5367 142.492 43.5406 139.859 43.5406C136.826 43.5406 136.996 43.5952 137.381 42.7477C137.833 41.7539 138.652 41.263 139.859 41.263C140.432 41.263 140.721 41.3166 141.103 41.494ZM164.738 41.3775C165.469 41.5959 166.252 42.4625 166.446 43.268L166.512 43.5406H163.768H161.024L161.091 43.2184C161.249 42.4605 161.854 41.7548 162.635 41.4173C163.049 41.238 164.198 41.2163 164.738 41.3775ZM111.916 45.2503C111.916 45.9809 111.738 46.3107 111.122 46.7227C110.086 47.4166 108.332 47.2949 107.843 46.4951C107.446 45.8464 107.638 45.2037 108.334 44.8538C108.738 44.6506 108.917 44.6308 110.347 44.6308H111.917L111.916 45.2503ZM151.294 45.1565C151.294 46.3393 150.274 47.1587 148.809 47.1524C147.928 47.1487 147.389 46.9329 147.107 46.4723C146.881 46.1029 146.868 45.7108 147.069 45.3226C147.364 44.7551 147.773 44.6499 149.728 44.6393L151.294 44.6308V45.1565Z" fill="#363B48"/>
<path d="M26.3809 4.37051C26.2766 4.08011 26.0091 4.36417 29.9798 0.549706C30.3352 0.208361 30.638 -0.0369438 30.6526 0.00458455C30.6672 0.046212 34.7695 9.51328 39.7687 21.0426L48.8582 42.005L46.7032 44.1032C45.5179 45.2573 44.5187 46.1716 44.4827 46.135C44.4165 46.0678 26.5594 4.86786 26.3809 4.37051Z" fill="#F1BE48"/>
<path d="M43.4038 22.0337C39.2355 12.4123 35.8008 4.47339 35.7709 4.39162C35.741 4.30985 36.3389 4.84586 37.0995 5.58276C37.8601 6.31967 40.2201 8.59262 42.344 10.6338C44.4678 12.6749 46.2653 14.4601 46.3383 14.6009C46.5207 14.9525 55.3475 35.3231 55.4082 35.5325C55.4426 35.6512 55.0071 36.1329 53.9305 37.1679C53.091 37.9749 52.1141 38.9138 51.7596 39.2542C51.2233 39.7694 51.1039 39.8443 51.0487 39.7002C51.0121 39.6051 47.572 31.6551 43.4038 22.0337Z" fill="#F1BE48"/>
<path d="M19.5628 10.5645L21.6856 8.51869C22.8532 7.39356 23.8466 6.47299 23.8933 6.47299C23.9993 6.47299 42.1431 48.355 42.0963 48.4914C42.0775 48.5462 41.1038 49.5136 39.9324 50.6413C38.1304 52.3763 37.7915 52.6626 37.7303 52.5022C37.6517 52.2961 20.2148 12.0305 19.8101 11.1204L19.5628 10.5645Z" fill="#F1BE48"/>
<path d="M12.9346 16.9477L15.1184 14.842C16.3194 13.6838 17.3096 12.7431 17.3187 12.7514C17.3277 12.7598 21.435 22.2352 26.446 33.808L35.5567 54.8491L33.9867 56.3558C33.1232 57.1844 32.1496 58.119 31.8232 58.4326C31.4969 58.7463 31.206 59.0016 31.1769 59C31.1336 58.9976 26.3578 47.9905 14.0246 19.4685L12.9346 16.9477Z" fill="#F1BE48"/>
<path d="M7.82644 21.8572C8.71751 21.0005 9.68633 20.0653 9.97947 19.7791C10.2725 19.4928 10.541 19.26 10.5761 19.2615C10.625 19.2639 25.3781 53.2491 25.7342 54.1797C25.7777 54.2937 25.7911 54.3662 25.7637 54.3409C25.7364 54.3157 25.3428 53.9357 24.889 53.4965C24.4352 53.0574 22.7215 51.4097 21.0808 49.8351C15.8344 44.8001 15.2766 44.2501 15.1294 43.9665C15.0501 43.8135 13.0099 39.1269 10.5957 33.5516L6.20621 23.4148L7.82644 21.8572Z" fill="#F1BE48"/>
<path d="M54.9884 26.7912C53.4707 23.2751 52.1884 20.3203 52.1388 20.2249C52.0892 20.1296 52.0701 20.0515 52.0962 20.0515C52.1808 20.0515 61.8503 29.3882 61.8503 29.4699C61.8503 29.6274 57.905 33.3546 57.8274 33.2704C57.7836 33.2229 56.506 30.3072 54.9884 26.7912Z" fill="#F1BE48"/>
<path d="M0 29.4709C0 29.4239 0.886487 28.5294 1.96996 27.4831C3.05343 26.4368 3.95414 25.5966 3.97164 25.6161C4.00217 25.65 9.54592 38.4401 9.67171 38.7666C9.70552 38.8545 7.54315 36.818 4.86658 34.2413C2.18992 31.6645 0 29.5178 0 29.4709Z" fill="#F1BE48"/>
</g>
<defs>
<clipPath id="clip0_1196_8101">
<rect width="168" height="59" fill="white"/>
</clipPath>
</defs>
</svg>
