<svg width="231" height="231" viewBox="0 0 231 231" fill="none" xmlns="http://www.w3.org/2000/svg">
<path d="M38.5 77L77 115.55L38.5 154L1.68508e-06 115.55L38.5 77Z" fill="#865F3E"/>
<path d="M231 154L231 231L154 231L154 154L231 154ZM192.6 213.733C193.9 202.69 202.5 194.056 213.5 192.651C213.7 192.651 213.7 192.45 213.5 192.45C202.5 191.145 193.9 182.411 192.6 171.368C192.6 171.167 192.4 171.167 192.4 171.368C191.1 182.411 182.5 191.145 171.6 192.45C171.4 192.45 171.4 192.651 171.6 192.651C182.5 194.056 191.1 202.69 192.4 213.733C192.4 213.933 192.6 213.933 192.6 213.733Z" fill="#865F3E"/>
<path d="M154 77L154 68.4667L77 68.4667L77 77L154 77Z" fill="#E79FB5"/>
<path d="M154 59.8331L154 51.2998L77 51.2998L77 59.8331L154 59.8331Z" fill="#E79FB5"/>
<path d="M154 42.8669L154 34.1329L77 34.1329L77 42.8669L154 42.8669Z" fill="#E79FB5"/>
<path d="M154 25.7L154 17.0663L77 17.0663L77 25.7L154 25.7Z" fill="#E79FB5"/>
<path d="M154 8.53326L154 6.75788e-06L77 -3.36578e-06L77 8.53325L154 8.53326Z" fill="#E79FB5"/>
<path d="M154 0L154 77L231 77L231 1.00973e-05L154 0Z" fill="#F0C72F"/>
<path d="M38.5501 192.55L77 192.55L77 154L38.5501 192.55Z" fill="#E79FB5"/>
<path d="M8.40354e-06 192.55L38.5501 192.55L38.55 154L8.40354e-06 192.55Z" fill="#E79FB5"/>
<path d="M38.5501 231L77 231L77 192.55L38.5501 231Z" fill="#E79FB5"/>
<path d="M0 231L38.5501 231L38.5501 192.55L0 231Z" fill="#E79FB5"/>
<path d="M154.375 153.153C171.606 130.944 171.503 99.6433 154.168 77.6402C153.756 77.1236 154.168 76.8137 154.684 77.1236C176.765 94.5815 207.822 94.6848 230.006 77.3303C230.522 76.9171 230.831 77.3303 230.522 77.8468C213.291 100.057 213.394 131.253 230.934 153.36C231.141 153.876 230.831 154.186 230.418 153.876C208.338 136.418 177.178 136.315 154.891 153.67C154.478 153.876 154.065 153.463 154.375 153.153Z" fill="#123F69"/>
<path d="M154 231L154 154L77 154L77 231L154 231ZM115.4 156.409C135.352 156.409 151.493 172.572 151.493 192.55C151.493 212.528 135.251 228.691 115.4 228.691C95.4479 228.691 79.306 212.528 79.306 192.55C79.306 172.572 95.5482 156.409 115.4 156.409Z" fill="#123F69"/>
<path d="M154 115.5C154 94.1446 136.755 77 115.5 77C94.1445 77 77 94.1445 77 115.5C77 136.755 94.1445 154 115.5 154C136.755 154 154 136.755 154 115.5Z" fill="#F0C72F"/>
</svg>
