<svg width="324" height="216" viewBox="0 0 324 216" fill="none" xmlns="http://www.w3.org/2000/svg">
<path d="M162.07 161.93L162.07 108L108 108L162.07 161.93Z" fill="#E89619"/>
<path d="M162.07 216L162.07 161.93L108 161.93L162.07 216Z" fill="#E89619"/>
<path d="M216 161.93L216 108L162.07 108L216 161.93Z" fill="#E89619"/>
<path d="M216 216L216 161.93L162.07 161.93L216 216Z" fill="#E89619"/>
<path d="M324 194.372L216 194.372L216 216L324 216V194.372Z" fill="#76A1C9"/>
<path d="M324 151.116L216 151.116L216 172.884L324 172.884V151.116Z" fill="#76A1C9"/>
<path d="M324 108L216 108L216 129.628L324 129.628V108Z" fill="#76A1C9"/>
<path d="M216 216H237.656L237.656 108L216 108L216 216Z" fill="#76A1C9"/>
<path d="M259.172 216H280.969L280.969 108L259.172 108L259.172 216Z" fill="#76A1C9"/>
<path d="M302.484 216H324L324 108L302.484 108L302.484 216Z" fill="#76A1C9"/>
<path d="M324 -7.62939e-06L216 -1.70711e-05L216 108L324 108L324 -7.62939e-06ZM249.653 54C249.653 42.7792 258.806 33.6623 270.07 33.6623C281.194 33.6623 290.488 42.7792 290.488 54C290.488 65.0805 281.194 74.3377 270.07 74.3377C258.665 74.3377 249.653 65.0805 249.653 54Z" fill="#76A1C9"/>
<path d="M6.5515e-07 161.93L53.9298 216L108 161.93L53.9298 108L6.5515e-07 161.93ZM54.2106 125.977C56.4577 144.655 71.0637 159.402 89.7425 161.789C90.0234 161.789 90.0234 162.07 89.7425 162.351C71.0637 164.739 56.4577 179.345 54.2106 197.883C54.0702 198.445 53.6489 198.445 53.6489 197.883C51.4018 179.204 36.7958 164.598 18.117 162.351C17.8362 162.211 17.8362 161.789 18.117 161.789C36.7958 159.402 51.4018 144.655 53.6489 125.977C53.7893 125.696 54.0702 125.696 54.2106 125.977Z" fill="#E79FB5"/>
</svg>
