<svg width="634" height="432" viewBox="0 0 634 432" fill="none" xmlns="http://www.w3.org/2000/svg">
<path d="M162.418 107.579C165.897 79.762 187.747 57.7053 215.582 54.3336C216.139 54.3336 216.139 53.7717 215.582 53.6312C187.747 50.4 165.897 28.4839 162.418 0.526827C162.278 -0.175611 161.722 -0.175611 161.722 0.526827C158.242 28.3434 136.253 50.4 108.418 53.6312C107.861 53.7717 107.861 54.3336 108.418 54.3336C136.253 57.7053 158.242 79.6215 161.722 107.579C161.722 108.14 162.278 108.14 162.418 107.579Z" fill="#76A1C9"/>
<path d="M472.07 377.93L472.07 324L418 324L472.07 377.93Z" fill="#E89619"/>
<path d="M472.07 432L472.07 377.93L418 377.93L472.07 432Z" fill="#E89619"/>
<path d="M526 377.93L526 324L472.07 324L526 377.93Z" fill="#E89619"/>
<path d="M526 432L526 377.93L472.07 377.93L526 432Z" fill="#E89619"/>
<path d="M312.047 108L312.047 5.24196e-06L324 4.72083e-06L324 108L312.047 108Z" fill="#E89619"/>
<path d="M288 108L288 6.29035e-06L300.094 5.76309e-06L300.094 108L288 108Z" fill="#E89619"/>
<path d="M263.953 108L263.953 7.33874e-06L276.047 6.81148e-06L276.047 108L263.953 108Z" fill="#E89619"/>
<path d="M240.047 108L240.047 8.381e-06L252 7.85987e-06L252 108L240.047 108Z" fill="#E89619"/>
<path d="M216 108L216 9.42939e-06L227.813 8.91439e-06L227.813 108L216 108Z" fill="#E89619"/>
<path d="M108 7.62939e-06L9.44166e-06 -1.81226e-06L0 108L108 108L108 7.62939e-06ZM3.37944 54.1406C3.37944 26.1562 26.0496 3.51563 54.0704 3.51563C82.0913 3.51563 104.761 26.2969 104.761 54.1406C104.761 82.125 82.0913 104.766 54.0704 104.766C26.0496 104.766 3.37943 81.9844 3.37944 54.1406Z" fill="#E79FB5"/>
<path d="M634 410.372L526 410.372L526 432L634 432V410.372Z" fill="#76A1C9"/>
<path d="M634 367.116L526 367.116L526 388.884L634 388.884V367.116Z" fill="#76A1C9"/>
<path d="M634 324L526 324L526 345.628L634 345.628V324Z" fill="#76A1C9"/>
<path d="M526 432H547.656L547.656 324L526 324L526 432Z" fill="#76A1C9"/>
<path d="M569.172 432H590.969L590.969 324L569.172 324L569.172 432Z" fill="#76A1C9"/>
<path d="M612.484 432H634L634 324L612.484 324L612.484 432Z" fill="#76A1C9"/>
<path d="M634 216L526 216L526 324L634 324L634 216ZM559.653 270C559.653 258.779 568.806 249.662 580.07 249.662C591.194 249.662 600.488 258.779 600.488 270C600.488 281.081 591.194 290.338 580.07 290.338C568.665 290.338 559.653 281.081 559.653 270Z" fill="#76A1C9"/>
<path d="M310 377.93L363.93 432L418 377.93L363.93 324L310 377.93ZM364.211 341.977C366.458 360.655 381.064 375.402 399.743 377.789C400.023 377.789 400.023 378.07 399.743 378.351C381.064 380.739 366.458 395.345 364.211 413.883C364.07 414.445 363.649 414.445 363.649 413.883C361.402 395.204 346.796 380.598 328.117 378.351C327.836 378.211 327.836 377.789 328.117 377.789C346.796 375.402 361.402 360.655 363.649 341.977C363.789 341.696 364.07 341.696 364.211 341.977Z" fill="#E79FB5"/>
</svg>
