<svg width="360" height="240" viewBox="0 0 360 240" fill="none" xmlns="http://www.w3.org/2000/svg">
<path d="M360 180.078L300.078 120L240 180.078L300.078 240L360 180.078ZM299.766 220.026C297.269 199.272 281.04 182.887 260.286 180.234C259.974 180.234 259.974 179.922 260.286 179.61C281.04 176.957 297.269 160.728 299.766 140.13C299.922 139.506 300.39 139.506 300.39 140.13C302.887 160.884 319.116 177.113 339.87 179.61C340.182 179.766 340.182 180.234 339.87 180.234C319.116 182.887 302.887 199.272 300.39 220.026C300.234 220.338 299.922 220.338 299.766 220.026Z" fill="#76A1C9"/>
<path d="M360 120L360 0L240 -1.57131e-05L240 120L360 120Z" fill="#E79FB5"/>
<path d="M240 1.16488e-05L226.701 9.32813e-06L226.701 120L240 120L240 1.16488e-05Z" fill="#E79FB5"/>
<path d="M213.246 7.2239e-05L199.948 6.99184e-05L199.948 120L213.246 120L213.246 7.2239e-05Z" fill="#E79FB5"/>
<path d="M186.806 6.7625e-05L173.194 6.52497e-05L173.194 120L186.806 120L186.806 6.7625e-05Z" fill="#E79FB5"/>
<path d="M160.052 6.29564e-05L146.597 6.06084e-05L146.597 120L160.052 120L160.052 6.29564e-05Z" fill="#E79FB5"/>
<path d="M133.299 5.82878e-05L120 5.59671e-05L120 120L133.299 120L133.299 5.82878e-05Z" fill="#E79FB5"/>
<path d="M60.4639 0.468285C64.3299 31.3756 88.6082 55.8829 119.536 59.6293C120.155 59.6293 120.155 60.2537 119.536 60.4098C88.6082 64 64.3299 88.3512 60.4639 119.415C60.3093 120.195 59.6907 120.195 59.6907 119.415C55.8247 88.5073 31.3918 64 0.463928 60.4098C-0.154633 60.2537 -0.154633 59.6293 0.463928 59.6293C31.3918 55.8829 55.8247 31.5317 59.6907 0.468285C59.6907 -0.156105 60.3093 -0.156105 60.4639 0.468285Z" fill="#123F69"/>
</svg>
