<svg width="16" height="18" viewBox="0 0 16 18" fill="none" xmlns="http://www.w3.org/2000/svg">
<path d="M1.79329 9.58374L8.58169 2.79534C8.91502 2.45662 9.31211 2.18725 9.75007 2.00276C10.188 1.81827 10.6582 1.72232 11.1334 1.72044C11.6086 1.71856 12.0795 1.81079 12.5189 1.99181C12.9583 2.17283 13.3575 2.43905 13.6935 2.77513C14.0295 3.1112 14.2956 3.51048 14.4765 3.94992C14.6575 4.38936 14.7496 4.86027 14.7476 5.33549C14.7456 5.81072 14.6495 6.28084 14.4649 6.71875C14.2804 7.15666 14.0109 7.55369 13.6721 7.88694L5.61169 15.9473C5.27418 16.285 4.81635 16.4748 4.33892 16.4749C3.86149 16.475 3.40357 16.2855 3.06589 15.9479C2.72822 15.6104 2.53845 15.1526 2.53834 14.6752C2.53823 14.1977 2.72778 13.7398 3.06529 13.4021L10.2773 6.19014C10.3347 6.13487 10.3805 6.06873 10.412 5.99557C10.4436 5.92242 10.4602 5.84371 10.461 5.76405C10.4618 5.68438 10.4468 5.60536 10.4167 5.53158C10.3866 5.4578 10.3422 5.39075 10.2859 5.33434C10.2297 5.27792 10.1627 5.23328 10.089 5.20301C10.0154 5.17273 9.93637 5.15744 9.8567 5.15802C9.77704 5.15859 9.69829 5.17503 9.62504 5.20637C9.55179 5.23771 9.48552 5.28332 9.43009 5.34054L2.21809 12.5525C1.93748 12.8306 1.71455 13.1614 1.56211 13.5259C1.40968 13.8904 1.33073 14.2814 1.32981 14.6764C1.32889 15.0715 1.40601 15.4629 1.55675 15.828C1.70749 16.1932 1.92887 16.525 2.20818 16.8044C2.4875 17.0838 2.81925 17.3053 3.1844 17.4562C3.54954 17.607 3.94088 17.6842 4.33595 17.6834C4.73102 17.6826 5.12204 17.6038 5.48656 17.4514C5.85108 17.2991 6.18192 17.0763 6.46009 16.7957L14.5205 8.73534C15.4207 7.83514 15.9264 6.61421 15.9264 5.34114C15.9264 4.06807 15.4207 2.84714 14.5205 1.94694C13.6203 1.04674 12.3994 0.541016 11.1263 0.541016C9.85322 0.541016 8.63229 1.04674 7.73209 1.94694L0.944892 8.73534C0.887586 8.79069 0.841876 8.85689 0.810431 8.9301C0.778985 9.0033 0.762434 9.08203 0.761741 9.1617C0.761049 9.24137 0.77623 9.32037 0.806399 9.39411C0.836567 9.46785 0.881119 9.53484 0.937455 9.59118C0.99379 9.64751 1.06078 9.69206 1.13452 9.72223C1.20826 9.7524 1.28726 9.76758 1.36693 9.76689C1.4466 9.7662 1.52533 9.74965 1.59853 9.7182C1.67174 9.68675 1.73794 9.64104 1.79329 9.58374V9.58374Z" fill="#32404E"/>
</svg>
