<svg width="68" height="60" viewBox="0 0 68 60" fill="none" xmlns="http://www.w3.org/2000/svg">
<path fill-rule="evenodd" clip-rule="evenodd" d="M12.8231 0H55.176V21.1763C55.176 32.8718 45.695 42.353 33.9995 42.353C22.3041 42.353 12.8231 32.8718 12.8231 21.1763V0ZM34.065 30.977C34.7261 25.5191 39.0509 21.2347 44.5051 20.5525C44.6153 20.5252 44.6153 20.416 44.5051 20.416C39.0234 19.7338 34.7261 15.4221 34.065 9.96422C34.065 9.85507 33.9548 9.85507 33.9272 9.96422C33.2937 15.4221 28.9688 19.7338 23.5146 20.416C23.3769 20.416 23.3769 20.5252 23.5146 20.5525C28.9964 21.2347 33.2937 25.5191 33.9272 30.977C33.9548 31.0861 34.065 31.0861 34.065 30.977Z" fill="#F0C72F"/>
<path d="M67.8819 4.23529V12.7058C67.8819 17.384 63.7735 21.1765 58.7054 21.1765V4.23529H67.8819Z" fill="#F0C72F"/>
<path d="M0.117188 12.7058V4.23529H9.29366V21.1765C4.22563 21.1765 0.117188 17.384 0.117188 12.7058Z" fill="#F0C72F"/>
<path d="M19.8819 60C19.8819 52.203 26.2026 45.8824 33.9995 45.8824C41.7965 45.8824 48.1172 52.203 48.1172 60H19.8819Z" fill="#F0C72F"/>
</svg>
