<svg width="410" height="180" viewBox="0 0 410 180" fill="none" xmlns="http://www.w3.org/2000/svg">
<path d="M1.18193e-05 90L0 180L90 180L90 90L1.18193e-05 90Z" fill="#F0C72F"/>
<path d="M90 180L99.9739 180L99.9739 90.0001L90 90.0001L90 180Z" fill="#F0C72F"/>
<path d="M110.065 180L120.039 180L120.039 90L110.065 90L110.065 180Z" fill="#F0C72F"/>
<path d="M129.896 180L140.104 180L140.104 90L129.896 90L129.896 180Z" fill="#F0C72F"/>
<path d="M149.961 180L160.052 180L160.052 90L149.961 90L149.961 180Z" fill="#F0C72F"/>
<path d="M170.026 180L180 180L180 90L170.026 90L170.026 180Z" fill="#F0C72F"/>
<path d="M364.652 179.649C361.753 156.468 343.544 138.088 320.348 135.278C319.884 135.278 319.884 134.81 320.348 134.693C343.544 132 361.753 113.737 364.652 90.439C364.768 89.8537 365.232 89.8537 365.232 90.439C368.131 113.62 386.456 132 409.652 134.693C410.116 134.81 410.116 135.278 409.652 135.278C386.456 138.088 368.131 156.351 365.232 179.649C365.232 180.117 364.768 180.117 364.652 179.649Z" fill="#E79FB5"/>
<path d="M5.91735e-06 44.9415L44.9415 90L90 44.9415L44.9415 -1.74463e-06L5.91735e-06 44.9415ZM45.1755 14.9805C47.0481 30.5461 59.2198 42.8348 74.7854 44.8244C75.0195 44.8244 75.0195 45.0585 74.7854 45.2926C59.2198 47.2822 47.0481 59.4538 45.1755 74.9025C45.0585 75.3706 44.7074 75.3706 44.7074 74.9025C42.8348 59.3368 30.6632 47.1651 15.0975 45.2926C14.8635 45.1756 14.8635 44.8244 15.0975 44.8244C30.6632 42.8348 42.8348 30.5461 44.7074 14.9805C44.8244 14.7464 45.0585 14.7464 45.1755 14.9805Z" fill="#865F3E"/>
</svg>
