<svg width="120" height="120" viewBox="0 0 120 120" fill="none" xmlns="http://www.w3.org/2000/svg">
<path d="M30.039 90.0389L60 90.0389L60 60L30.039 90.0389Z" fill="#865F3E"/>
<path d="M1.30965e-06 90.0389L30.039 90.0389L30.039 60L1.30965e-06 90.0389Z" fill="#865F3E"/>
<path d="M30.039 120L60 120L60 90.0389L30.039 120Z" fill="#865F3E"/>
<path d="M0 120L30.039 120L30.039 90.0389L0 120Z" fill="#865F3E"/>
<path d="M89.961 60C106.58 60 120 73.42 120 90.039L120 60L89.961 60Z" fill="#865F3E"/>
<path d="M60 90.039C60 73.42 73.42 60 89.961 60L60 60L60 90.039Z" fill="#865F3E"/>
<path d="M89.961 120C73.42 120 60 106.58 60 90.039L60 120L89.961 120Z" fill="#865F3E"/>
<path d="M120 90.039C120 106.58 106.58 120 89.961 120L120 120L120 90.039Z" fill="#865F3E"/>
<path d="M119.708 0.659809C106.281 17.9661 106.362 42.3559 119.869 59.5012C120.19 59.9037 119.869 60.1451 119.467 59.9037C102.261 46.3001 78.0607 46.2196 60.7747 59.7426C60.3727 60.0646 60.1315 59.7426 60.3727 59.3402C73.7995 42.0339 73.7192 17.7246 60.0512 0.498805C59.8904 0.0963311 60.1316 -0.145151 60.4532 0.0963312C77.6588 13.6999 101.94 13.7804 119.306 0.257336C119.628 0.0963478 119.949 0.418324 119.708 0.659809Z" fill="#E79FB5"/>
</svg>
