<svg width="180" height="180" viewBox="0 0 180 180" fill="none" xmlns="http://www.w3.org/2000/svg">
<path d="M135.059 90C110.13 90 90 69.8437 90 45C90 20.1562 110.13 -1.75982e-06 135.059 -3.93914e-06C159.87 -6.10823e-06 180 20.1562 180 45C180 69.8437 159.87 90 135.059 90ZM135.059 28.0078C125.696 28.0078 118.088 35.625 118.088 45C118.088 54.375 125.696 61.9922 135.059 61.9922C144.304 61.9922 152.029 54.375 152.029 45C152.029 35.5078 144.304 28.0078 135.059 28.0078Z" fill="#F0C72F"/>
<path d="M-3.93402e-06 135L45.0586 90L90 135L45.0586 180L-3.93402e-06 135Z" fill="#E79FB5"/>
<path d="M90 90L180 90L180 180L90 180L90 90ZM159.817 134.883C146.91 133.364 136.819 123.312 135.176 110.455C135.176 110.221 134.941 110.221 134.941 110.455C133.416 123.312 123.207 133.364 110.3 134.883C110.065 134.883 110.065 135.117 110.3 135.117C123.207 136.636 133.416 146.688 134.941 159.429C134.941 159.662 135.176 159.662 135.176 159.429C136.819 146.688 146.91 136.636 159.817 135.117C160.052 135.117 160.052 134.883 159.817 134.883Z" fill="#E79FB5"/>
</svg>
