<svg width="345" height="120" viewBox="0 0 345 120" fill="none" xmlns="http://www.w3.org/2000/svg">
<path d="M7.87957e-06 59.9999L0 120L60.0001 120L60.0001 59.9999L7.87957e-06 59.9999Z" fill="#F0C72F"/>
<path d="M59.9999 120L66.6492 120L66.6492 60L59.9999 60L59.9999 120Z" fill="#F0C72F"/>
<path d="M73.3768 120L80.0261 120L80.0261 59.9999L73.3768 59.9999L73.3768 120Z" fill="#F0C72F"/>
<path d="M86.5972 120L93.4029 120L93.4029 59.9999L86.5972 59.9999L86.5972 120Z" fill="#F0C72F"/>
<path d="M99.974 120L106.702 120L106.702 59.9999L99.974 59.9999L99.974 120Z" fill="#F0C72F"/>
<path d="M113.351 120L120 120L120 59.9999L113.351 59.9999L113.351 120Z" fill="#F0C72F"/>
<path d="M314.768 119.766C312.835 104.312 300.696 92.0585 285.232 90.1853C284.923 90.1853 284.923 89.8731 285.232 89.7951C300.696 87.9999 312.835 75.8243 314.768 60.2926C314.845 59.9024 315.155 59.9024 315.155 60.2926C317.088 75.7463 329.304 88 344.768 89.7951C345.077 89.8731 345.077 90.1853 344.768 90.1853C329.304 92.0585 317.088 104.234 315.155 119.766C315.155 120.078 314.845 120.078 314.768 119.766Z" fill="#E79FB5"/>
<path d="M3.94491e-06 29.961L29.961 60L60.0001 29.961L29.961 -7.61855e-05L3.94491e-06 29.961ZM30.1171 9.98692C31.3654 20.364 39.4799 28.5565 49.857 29.8829C50.0131 29.8829 50.0131 30.039 49.857 30.195C39.4799 31.5214 31.3654 39.6359 30.1171 49.935C30.039 50.247 29.805 50.247 29.805 49.935C28.5566 39.5578 20.4422 31.4434 10.065 30.195C9.90899 30.117 9.90899 29.8829 10.065 29.8829C20.4422 28.5565 28.5566 20.364 29.805 9.98692C29.883 9.83087 30.039 9.83087 30.1171 9.98692Z" fill="#865F3E"/>
</svg>
