<svg width="324" height="324" viewBox="0 0 324 324" fill="none" xmlns="http://www.w3.org/2000/svg">
<g clip-path="url(#clip0_1269_9980)">
<path d="M162 179.93L1.56543e-06 179.93L0 162L162 162V179.93Z" fill="#E89619"/>
<path d="M162 216L4.71469e-06 216L3.13085e-06 197.859L162 197.859V216Z" fill="#E89619"/>
<path d="M162 252.07L7.86396e-06 252.07L6.28011e-06 233.93L162 233.93V252.07Z" fill="#E89619"/>
<path d="M162 287.93L1.09948e-05 287.93L9.42938e-06 270L162 270V287.93Z" fill="#E89619"/>
<path d="M162 324L1.41441e-05 324L1.25971e-05 306.281L162 306.281L162 324Z" fill="#E89619"/>
<path d="M242.895 80.8946L242.895 -9.93308e-06L324 -1.70235e-05L242.895 80.8946Z" fill="#E89619"/>
<path d="M242.895 162L242.895 80.8946L324 80.8947L242.895 162Z" fill="#E89619"/>
<path d="M162 80.8946L162 7.43866e-06L242.895 -9.93308e-06L162 80.8946Z" fill="#E89619"/>
<path d="M162 162L162 80.8946L242.895 80.8946L162 162Z" fill="#E89619"/>
<path d="M121.5 162C143.965 162 162 143.859 162 121.5C162 99.0351 143.965 81 121.5 81C99.1406 81 81 99.0351 81 121.5C81 143.859 99.1406 162 121.5 162Z" fill="#76A1C9"/>
<path d="M40.5527 81C18.117 81 -1.58384e-06 99.117 -3.53602e-06 121.447C-5.4974e-06 143.883 18.117 162 40.5527 162C62.883 162 81 143.883 81 121.447C81 99.117 62.883 81 40.5527 81ZM40.5527 136.72C32.1262 136.72 25.2796 129.874 25.2796 121.447C25.2796 113.126 32.1262 106.28 40.5527 106.28C48.8739 106.28 55.8258 113.126 55.8258 121.447C55.8258 129.874 48.8739 136.72 40.5527 136.72Z" fill="#76A1C9"/>
<path d="M0.394294 80.1092C18.5205 56.7458 18.4119 23.8195 0.177208 0.673405C-0.256952 0.130068 0.177208 -0.195934 0.719908 0.130068C23.9475 18.4948 56.618 18.6035 79.9541 0.347423C80.4968 -0.0872463 80.8224 0.347423 80.4968 0.89076C62.3706 24.2542 62.4791 57.0718 80.9309 80.3266C81.148 80.8699 80.8224 81.1959 80.3882 80.8699C57.1607 62.5051 24.3816 62.3965 0.936994 80.6526C0.502834 80.8699 0.0686744 80.4352 0.394294 80.1092Z" fill="#E79FB5"/>
<path d="M162 7.08125e-06L81 0L81 81L162 81L162 7.08125e-06Z" fill="#32404E"/>
</g>
<defs>
<clipPath id="clip0_1269_9980">
<rect width="324" height="324" fill="white"/>
</clipPath>
</defs>
</svg>
