<svg width="570" height="228" viewBox="0 0 570 228" fill="none" xmlns="http://www.w3.org/2000/svg">
<path d="M342 3.8147e-05L228 2.81808e-05L228 114L342 114L342 3.8147e-05ZM231.567 57.1485C231.567 27.6094 255.497 3.71097 285.074 3.71097C314.652 3.71097 338.582 27.7578 338.582 57.1485C338.582 86.6875 314.652 110.586 285.074 110.586C255.497 110.586 231.567 86.5391 231.567 57.1485Z" fill="#F0C72F"/>
<path d="M170.926 228L228 171.074L170.926 114L114 171.074L170.926 228ZM132.975 170.778C152.692 168.406 168.257 152.988 170.778 133.272C170.778 132.975 171.074 132.975 171.371 133.272C173.891 152.988 189.308 168.406 208.876 170.778C209.469 170.926 209.469 171.371 208.876 171.371C189.16 173.743 173.743 189.16 171.371 208.876C171.222 209.173 170.778 209.173 170.778 208.876C168.257 189.16 152.692 173.743 132.975 171.371C132.679 171.222 132.679 170.926 132.975 170.778Z" fill="#123F69"/>
<path d="M284.926 170.926L228 170.926L228 228L284.926 170.926Z" fill="#76A1C9"/>
<path d="M342 170.926L284.926 170.926L284.926 228L342 170.926Z" fill="#76A1C9"/>
<path d="M284.926 114L228 114L228 170.926L284.926 114Z" fill="#76A1C9"/>
<path d="M342 114L284.926 114L284.926 170.926L342 114Z" fill="#76A1C9"/>
<path d="M513 114C481.383 114 456 139.531 456 171C456 202.617 481.383 228 513 228C544.469 228 570 202.617 570 171C570 139.531 544.469 114 513 114Z" fill="#F0C72F"/>
<path d="M570 1.10016e-06L557.366 0L557.366 114H570L570 1.10016e-06Z" fill="#32404E"/>
<path d="M544.584 6.08828e-05L531.95 5.97827e-05L531.95 114H544.584L544.584 6.08828e-05Z" fill="#32404E"/>
<path d="M519.465 5.86954e-05L506.534 5.75694e-05L506.534 114H519.465L519.465 5.86954e-05Z" fill="#32404E"/>
<path d="M494.049 5.64822e-05L481.267 5.5369e-05L481.267 114H494.049L494.049 5.64822e-05Z" fill="#32404E"/>
<path d="M468.634 5.42689e-05L456 5.31687e-05L456 114H468.634L468.634 5.42689e-05Z" fill="#32404E"/>
<path d="M456 114L342 114L342 228L456 228L456 114ZM377.523 171C377.523 159.156 387.184 149.532 399.074 149.532C410.816 149.532 420.626 159.156 420.626 171C420.626 182.696 410.816 192.468 399.074 192.468C387.035 192.468 377.523 182.696 377.523 171Z" fill="#32404E"/>
<path d="M114 114L228 114L228 3.8147e-05L114 2.81808e-05L114 114Z" fill="#32404E"/>
<path d="M114 101.383L1.10159e-06 101.383L0 114L114 114V101.383Z" fill="#76A1C9"/>
<path d="M114 76L3.31775e-06 76L2.20319e-06 88.7656L114 88.7656V76Z" fill="#76A1C9"/>
<path d="M114 50.6172L5.53389e-06 50.6172L4.41934e-06 63.3829L114 63.3829V50.6172Z" fill="#76A1C9"/>
<path d="M114 25.3829L7.73708e-06 25.3829L6.63549e-06 38.0001L114 38.0001V25.3829Z" fill="#76A1C9"/>
<path d="M114 9.97916e-06L9.95324e-06 0L8.86461e-06 12.4688L114 12.4688L114 9.97916e-06Z" fill="#76A1C9"/>
<path d="M455.555 57.4407C426.193 61.1134 402.911 84.1778 399.352 113.559C399.352 114.147 398.759 114.147 398.611 113.559C395.2 84.1778 372.066 61.1134 342.556 57.4407C341.815 57.2938 341.815 56.7062 342.556 56.7062C371.918 53.0335 395.2 29.8222 398.611 0.440745C398.759 -0.146886 399.352 -0.146886 399.352 0.440745C402.911 29.8222 426.045 53.0335 455.555 56.7062C456.148 56.7062 456.148 57.2938 455.555 57.4407Z" fill="#123F69"/>
</svg>
