<svg width="47" height="35" viewBox="0 0 47 35" fill="none" xmlns="http://www.w3.org/2000/svg">
<path d="M45.91 1H1V29.24H45.91V1Z" stroke="black" stroke-width="0.23" stroke-miterlimit="10"/>
<path d="M22.5099 7.26047L23.4499 6.60047L24.3999 7.26047L24.0399 6.20047L25.0099 5.55047H23.8199L23.4499 4.48047L23.0899 5.55047H21.9099L22.8699 6.20047L22.5099 7.26047Z" fill="black"/>
<path d="M17.6 8.5007L18.55 7.8507L19.5 8.5007L19.14 7.4407L20.1 6.7907H18.92L18.55 5.7207L18.19 6.7907H17L17.96 7.4407L17.6 8.5007Z" fill="black"/>
<path d="M14.9599 9.10938L14.5999 10.1894H13.4199L14.3799 10.8394L14.0099 11.8894L14.9599 11.2394L15.9099 11.8894L15.5499 10.8394L16.5099 10.1894H15.3299L14.9599 9.10938Z" fill="black"/>
<path d="M13.6501 15.8605L14.5901 16.5105L14.2301 15.4605L15.1901 14.8005H14.0101L13.6501 13.7305L13.2801 14.8105L12.1001 14.8005L13.0601 15.4605L12.7001 16.5105L13.6501 15.8605Z" fill="black"/>
<path d="M15.3299 19.4411L14.9599 18.3711L14.5999 19.4411H13.4199L14.3799 20.0911L14.0099 21.1411L14.9599 20.4911L15.9099 21.1411L15.5499 20.0911L16.5099 19.4411H15.3299Z" fill="black"/>
<path d="M18.92 22.8298L18.56 21.7598L18.2 22.8298H17.01L17.97 23.4798L17.61 24.5298L18.56 23.8798L19.51 24.5298L19.15 23.4798L20.11 22.8298H18.92Z" fill="black"/>
<path d="M23.8199 24.0602L23.4599 22.9902L23.0899 24.0602H21.9099L22.8699 24.7102L22.5099 25.7702L23.4599 25.1102L24.3999 25.7702L24.0399 24.7102L25.0099 24.0602H23.8199Z" fill="black"/>
<path d="M28.7201 22.8298L28.3601 21.7598L27.9901 22.8298H26.8101L27.7701 23.4798L27.4101 24.5298L28.3601 23.8798L29.3001 24.5298L28.9401 23.4798L29.9001 22.8298H28.7201Z" fill="black"/>
<path d="M32.3099 19.4411L31.9499 18.3711L31.5899 19.4411H30.3999L31.3599 20.0911L30.9999 21.1411L31.9499 20.4911L32.8999 21.1411L32.5399 20.0911L33.4999 19.4411H32.3099Z" fill="black"/>
<path d="M34.7999 14.7907H33.62L33.25 13.7207L32.8899 14.7907H31.7L32.66 15.4407L32.31 16.5007L33.25 15.8407L34.2 16.5007L33.84 15.4407L34.7999 14.7907Z" fill="black"/>
<path d="M30.9999 11.8796L31.9499 11.2296L32.8999 11.8796L32.5399 10.8196L33.4999 10.1696H32.3099L31.9499 9.09961L31.5899 10.1696H30.3999L31.3599 10.8196L30.9999 11.8796Z" fill="black"/>
<path d="M28.3701 5.7207L28.0001 6.8007L26.8201 6.7907L27.7801 7.4407L27.4201 8.5007L28.3701 7.8507L29.3101 8.5007L28.9501 7.4407L29.9201 6.7907H28.7301L28.3701 5.7207Z" fill="black"/>
<path d="M1.12988 34.6508V31.3008H3.69988V31.6908H1.59988V32.7208H3.56988V33.1108H1.59988V34.2508H3.78988V34.6508H1.12988Z" fill="black"/>
<path d="M6.77007 31.3008H7.24007V33.2308C7.25041 33.5059 7.20972 33.7805 7.12007 34.0408C7.03106 34.2454 6.87618 34.4143 6.68007 34.5208C6.42496 34.6561 6.13864 34.7216 5.85007 34.7108C5.57032 34.7201 5.29247 34.6618 5.04007 34.5408C4.83176 34.4494 4.6669 34.281 4.58007 34.0708C4.4802 33.8025 4.43597 33.5167 4.45007 33.2308V31.3008H4.91007V33.2308C4.9019 33.4503 4.92891 33.6698 4.99007 33.8808C5.05118 34.0157 5.15721 34.1253 5.29007 34.1908C5.44638 34.2754 5.62242 34.3168 5.80007 34.3108C6.06572 34.3341 6.33029 34.2554 6.54007 34.0908C6.71702 33.8411 6.79537 33.5348 6.76007 33.2308L6.77007 31.3008Z" fill="black"/>
<path d="M8.03003 34.6504V31.3004H9.61003C9.85332 31.2913 10.0965 31.3217 10.33 31.3904C10.4923 31.4503 10.6297 31.563 10.72 31.7104C10.8189 31.8583 10.8711 32.0325 10.87 32.2104C10.8733 32.3215 10.8537 32.4322 10.8125 32.5354C10.7712 32.6386 10.7091 32.7322 10.63 32.8104C10.4192 32.997 10.1512 33.1064 9.87003 33.1204C9.97036 33.1647 10.0645 33.2218 10.15 33.2904C10.3006 33.4242 10.4349 33.5752 10.55 33.7404L11.16 34.6504H10.57L10.1 33.9504C9.96003 33.7504 9.85003 33.6004 9.76003 33.4904C9.69374 33.4034 9.61247 33.3289 9.52003 33.2704C9.4583 33.2239 9.38626 33.1931 9.31003 33.1804H9.05003H8.50003V34.6704L8.03003 34.6504ZM8.50003 32.7804H9.50003C9.67291 32.789 9.84587 32.7653 10.01 32.7104C10.122 32.6802 10.2185 32.6087 10.28 32.5104C10.347 32.425 10.3823 32.319 10.38 32.2104C10.382 32.1349 10.3658 32.0601 10.3327 31.9922C10.2996 31.9243 10.2507 31.8654 10.19 31.8204C10.0229 31.7064 9.82162 31.6534 9.62003 31.6704H8.50003V32.7804Z" fill="black"/>
<path d="M11.4701 33.0192C11.4507 32.7824 11.4797 32.5441 11.5553 32.3189C11.631 32.0937 11.7517 31.8862 11.9101 31.7092C12.0736 31.553 12.2666 31.431 12.4778 31.3503C12.689 31.2696 12.9141 31.2318 13.1401 31.2392C13.4509 31.2336 13.7578 31.3094 14.0301 31.4592C14.2869 31.6022 14.4956 31.8179 14.6301 32.0792C14.7709 32.3578 14.8396 32.6672 14.8301 32.9792C14.8353 33.2951 14.7632 33.6075 14.6201 33.8892C14.4773 34.1486 14.2618 34.3606 14.0001 34.4992C13.7347 34.6378 13.4396 34.7098 13.1401 34.7092C12.825 34.714 12.5143 34.6346 12.2401 34.4792C11.983 34.3321 11.7745 34.1132 11.6401 33.8492C11.5048 33.5937 11.436 33.3083 11.4401 33.0192H11.4701ZM11.9201 33.0192C11.905 33.2011 11.9283 33.3842 11.9886 33.5565C12.0489 33.7288 12.1448 33.8864 12.2701 34.0192C12.3824 34.1327 12.5164 34.2222 12.6642 34.2823C12.8121 34.3425 12.9706 34.372 13.1301 34.3692C13.2929 34.3742 13.4551 34.3457 13.6064 34.2855C13.7578 34.2253 13.8952 34.1347 14.0101 34.0192C14.1297 33.883 14.2212 33.7246 14.2796 33.553C14.3379 33.3814 14.3619 33.2 14.3501 33.0192C14.356 32.7709 14.3047 32.5245 14.2001 32.2992C14.1119 32.0998 13.9609 31.9348 13.7701 31.8292C13.5797 31.7159 13.3617 31.6571 13.1401 31.6592C12.8236 31.655 12.5169 31.7691 12.2801 31.9792C12.1517 32.1187 12.0527 32.2828 11.9891 32.4615C11.9255 32.6402 11.8987 32.8299 11.9101 33.0192" fill="black"/>
<path d="M15.47 34.6493V31.2993H16.81C16.9897 31.2857 17.1702 31.2857 17.35 31.2993C17.5065 31.3201 17.6566 31.3747 17.79 31.4593C17.9135 31.5381 18.0136 31.6486 18.08 31.7793C18.1494 31.9225 18.1837 32.0802 18.18 32.2393C18.1821 32.3726 18.1575 32.5049 18.1077 32.6286C18.0579 32.7522 17.9839 32.8647 17.89 32.9593C17.6068 33.1826 17.2493 33.2899 16.89 33.2593H15.91V34.6193L15.47 34.6493ZM15.91 32.8893H16.91C17.1386 32.9122 17.3681 32.8557 17.56 32.7293C17.6236 32.6735 17.6737 32.604 17.7066 32.5261C17.7395 32.4482 17.7543 32.3638 17.75 32.2793C17.7564 32.153 17.7191 32.0284 17.6445 31.9264C17.5698 31.8245 17.4623 31.7513 17.34 31.7193C17.1937 31.7042 17.0463 31.7042 16.9 31.7193H15.91V32.8893Z" fill="black"/>
<path d="M18.79 34.6508V31.3008H21.36V31.6908H19.26V32.7208H21.22V33.1108H19.26V34.2508H21.44V34.6508H18.79Z" fill="black"/>
<path d="M21.7 34.6508L23.07 31.3008H23.57L25.0299 34.6508H24.49L24.0799 33.6508H22.59L22.2 34.6508H21.7ZM22.7 33.2708H23.91L23.54 32.3508C23.43 32.0608 23.34 31.8308 23.29 31.6508C23.2418 31.8683 23.1783 32.0822 23.0999 32.2908L22.7 33.2708Z" fill="black"/>
<path d="M25.3899 34.6508V31.3008H25.8799L27.7399 33.9308V31.3008H28.1899V34.6508H27.7099L25.8399 32.0108V34.6508H25.3899Z" fill="black"/>
<path d="M32.7001 31.3008H33.1701V33.2308C33.1804 33.5059 33.1397 33.7805 33.0501 34.0408C32.9611 34.2454 32.8062 34.4143 32.6101 34.5208C32.3545 34.6548 32.0685 34.7202 31.7801 34.7108C31.4971 34.7201 31.216 34.6619 30.9601 34.5408C30.7567 34.4457 30.5962 34.2781 30.5101 34.0708C30.4063 33.8034 30.3586 33.5174 30.3701 33.2308V31.3008H30.8401V33.2308C30.8291 33.4512 30.8596 33.6717 30.9301 33.8808C30.9912 34.0157 31.0972 34.1253 31.2301 34.1908C31.3864 34.2754 31.5624 34.3168 31.7401 34.3108C32.0055 34.3321 32.2694 34.2536 32.4801 34.0908C32.657 33.8411 32.7354 33.5348 32.7001 33.2308V31.3008Z" fill="black"/>
<path d="M33.9399 34.6508V31.3008H34.4299L36.2899 33.9308V31.3008H36.7399V34.6508H36.2599L34.3899 32.0108V34.6508H33.9399Z" fill="black"/>
<path d="M38.0801 31.3008H37.6101V34.6508H38.0801V31.3008Z" fill="black"/>
<path d="M38.7699 33.0194C38.7564 32.7799 38.792 32.5401 38.8745 32.3148C38.9571 32.0896 39.0848 31.8835 39.2499 31.7094C39.4108 31.5526 39.6019 31.43 39.8117 31.3493C40.0214 31.2685 40.2453 31.2311 40.4699 31.2394C40.7808 31.2324 41.088 31.3083 41.3599 31.4594C41.6185 31.5999 41.828 31.8163 41.9599 32.0794C42.1041 32.3571 42.1763 32.6666 42.1699 32.9794C42.1767 33.2967 42.1009 33.6103 41.9499 33.8894C41.8127 34.153 41.5957 34.3665 41.3299 34.4994C41.0653 34.6403 40.7696 34.7125 40.4699 34.7094C40.1581 34.7129 39.8509 34.6336 39.5799 34.4794C39.318 34.3385 39.1079 34.1178 38.9799 33.8494C38.8414 33.5947 38.7692 33.3093 38.7699 33.0194ZM39.2599 33.0194C39.2434 33.2006 39.2652 33.3832 39.3237 33.5555C39.3823 33.7278 39.4764 33.8858 39.5999 34.0194C39.8343 34.2432 40.1458 34.368 40.4699 34.368C40.7939 34.368 41.1055 34.2432 41.3399 34.0194C41.4612 33.884 41.5546 33.726 41.6147 33.5543C41.6747 33.3827 41.7003 33.2009 41.6899 33.0194C41.6957 32.7711 41.6444 32.5248 41.5399 32.2994C41.4465 32.1034 41.2968 31.9398 41.1099 31.8294C40.9188 31.7175 40.7013 31.6588 40.4799 31.6594C40.163 31.6532 39.8556 31.7676 39.6199 31.9794C39.4881 32.1245 39.388 32.2955 39.326 32.4815C39.2641 32.6674 39.2415 32.8643 39.2599 33.0594" fill="black"/>
<path d="M42.77 34.6508V31.3008H43.25L45.12 33.9308V31.3008H45.57V34.6508H45.08L43.22 32.0108V34.6508H42.77Z" fill="black"/>
</svg>
