<svg width="324" height="108" viewBox="0 0 324 108" fill="none" xmlns="http://www.w3.org/2000/svg">
<path d="M162.418 107.579C165.897 79.762 187.747 57.7053 215.582 54.3336C216.139 54.3336 216.139 53.7717 215.582 53.6312C187.747 50.4 165.897 28.4839 162.418 0.526831C162.278 -0.175608 161.722 -0.175608 161.722 0.526831C158.242 28.3434 136.253 50.4 108.418 53.6312C107.861 53.7717 107.861 54.3336 108.418 54.3336C136.253 57.7053 158.242 79.6215 161.722 107.579C161.722 108.14 162.278 108.14 162.418 107.579Z" fill="#76A1C9"/>
<path d="M312.047 108L312.047 5.24196e-06L324 4.72083e-06L324 108L312.047 108Z" fill="#E89619"/>
<path d="M288 108L288 6.29035e-06L300.094 5.76309e-06L300.094 108L288 108Z" fill="#E89619"/>
<path d="M263.953 108L263.953 7.33874e-06L276.047 6.81148e-06L276.047 108L263.953 108Z" fill="#E89619"/>
<path d="M240.047 108L240.047 8.381e-06L252 7.85987e-06L252 108L240.047 108Z" fill="#E89619"/>
<path d="M216 108L216 9.42939e-06L227.813 8.91439e-06L227.813 108L216 108Z" fill="#E89619"/>
<path d="M108 8.01087e-06L1.07783e-05 -1.43079e-06L1.33661e-06 108L108 108L108 8.01087e-06ZM3.37944 54.1406C3.37944 26.1563 26.0496 3.51563 54.0704 3.51563C82.0913 3.51563 104.761 26.2969 104.761 54.1406C104.761 82.125 82.0913 104.766 54.0704 104.766C26.0496 104.766 3.37944 81.9844 3.37944 54.1406Z" fill="#E79FB5"/>
</svg>
