<svg width="216" height="216" viewBox="0 0 216 216" fill="none" xmlns="http://www.w3.org/2000/svg">
<path d="M108 119.953L1.04362e-06 119.953L0 108L108 108V119.953Z" fill="#E79FB5"/>
<path d="M108 144L3.14313e-06 144L2.08723e-06 131.906L108 131.906V144Z" fill="#E79FB5"/>
<path d="M108 168.047L5.24264e-06 168.047L4.18674e-06 155.953L108 155.953V168.047Z" fill="#E79FB5"/>
<path d="M108 191.953L7.32987e-06 191.953L6.28625e-06 180L108 180V191.953Z" fill="#E79FB5"/>
<path d="M108 216L9.42939e-06 216L8.39805e-06 204.187L108 204.187L108 216Z" fill="#E79FB5"/>
<path d="M-5.98805e-06 108L108 108L108 6.02943e-06L0 0L-5.98805e-06 108ZM83.7809 54.1403C68.292 55.9636 56.1825 68.026 54.2112 83.4545C54.2112 83.7351 53.9296 83.7351 53.9296 83.4545C52.0991 68.026 39.8487 55.9636 24.3598 54.1403C24.0782 54.1403 24.0782 53.8597 24.3598 53.8597C39.8487 52.0364 52.0991 39.974 53.9296 24.6857C53.9296 24.4052 54.2112 24.4052 54.2112 24.6857C56.1825 39.974 68.292 52.0364 83.7809 53.8597C84.0626 53.8597 84.0626 54.1403 83.7809 54.1403Z" fill="#76A1C9"/>
<path d="M108 54.0702C108 24.1561 132.156 -5.25671e-06 161.93 -1.17359e-05C191.844 -1.82457e-05 216 24.156 216 54.0702C216 83.844 191.844 108 161.93 108C132.156 108 108 83.844 108 54.0702ZM182.294 54.0702C182.294 42.8349 173.165 33.7061 161.93 33.7061C150.835 33.7061 141.706 42.8349 141.706 54.0702C141.706 65.1652 150.835 74.4344 161.93 74.4344C173.165 74.4344 182.294 65.1652 182.294 54.0702Z" fill="#E89619"/>
</svg>
