<svg width="160" height="48" viewBox="0 0 160 48" fill="none" xmlns="http://www.w3.org/2000/svg">
<path d="M79.7171 18.919H73.8605V30.1337H70V15.3379H83.5776V30.1337H79.7171V18.919Z" fill="white"/>
<path d="M92.5791 15.3184H97.174L103.219 29.2848V30.133H99.2078L98.2286 27.7205H91.4868L90.5076 30.133H86.6095V29.2848L92.5791 15.3184ZM92.8804 24.3466H96.8915L95.046 19.7854H94.707L92.8804 24.3466Z" fill="white"/>
<path d="M107.042 15.3184H119.301V30.1142H115.441V18.8995H110.77L110.526 25.3079C110.413 28.0032 109.32 30.265 106.816 30.265C106.119 30.265 105.498 30.2273 104.725 30.1142V26.3257C104.876 26.3445 105.29 26.3634 105.479 26.3634C106.157 26.3634 106.609 25.9299 106.665 25.044L107.042 15.3184Z" fill="white"/>
<path d="M128.303 15.3184H132.897L138.942 29.2848V30.133H134.931L133.952 27.7205H127.21L126.231 30.133H122.333V29.2848L128.303 15.3184ZM128.604 24.3466H132.615L130.77 19.7854H130.431L128.604 24.3466Z" fill="white"/>
<path d="M145.891 26.533H151.635V15.3184H155.495V26.533H158L157.303 33.3184H153.706L153.951 30.133H142.031V15.3372H145.891V26.533Z" fill="white"/>
<path d="M23.9284 38.3415C26.5641 38.3415 28.6963 36.2082 28.6963 33.5711C28.6963 30.9341 26.5641 28.8008 23.9284 28.8008C21.2927 28.8008 19.1605 30.9341 19.1605 33.5711C19.1605 36.2082 21.2927 38.3415 23.9284 38.3415Z" fill="white"/>
<path d="M19.1413 28.7715H28.7068V19.2011H19.1413V28.7715Z" fill="white"/>
<path d="M0.0311031 38.3457H9.59653L9.59653 28.7753H0.0311031L0.0311031 38.3457Z" fill="white"/>
<path d="M4.82629 19.2244L0.0506744 24L4.82631 28.7756L9.60192 24L4.82629 19.2244Z" fill="white"/>
<path d="M14.3834 38.3286L9.60902 43.1055L14.3834 47.8823L19.1578 43.1055L14.3834 38.3286Z" fill="white"/>
<path d="M38.2515 28.7715H47.8169V19.2011H38.2515V28.7715Z" fill="white"/>
<path d="M38.2515 38.3457H47.8169V28.7753H38.2515V38.3457Z" fill="white"/>
<path d="M0.0311031 19.2246H9.59653L9.59653 9.65423L0.0311031 9.65423L0.0311031 19.2246Z" fill="white"/>
<path d="M38.2633 14.4614L43.0377 19.2383L47.8121 14.4614L43.0377 9.68458L38.2633 14.4614Z" fill="white"/>
<path d="M38.2689 43.1294L43.0433 47.9062L47.8177 43.1294L43.0433 38.3525L38.2689 43.1294Z" fill="white"/>
<path d="M4.82717 9.65989C7.46284 9.65989 9.59508 7.52655 9.59508 4.88951C9.59508 2.25248 7.46284 0.119141 4.82717 0.119141C2.19149 0.119141 0.059269 2.25248 0.059269 4.88951C0.059269 7.52655 2.19149 9.65989 4.82717 9.65989Z" fill="white"/>
<path d="M14.3926 9.65989C17.0282 9.65989 19.1605 7.52655 19.1605 4.88951C19.1605 2.25248 17.0282 0.119141 14.3926 0.119141C11.7569 0.119141 9.62466 2.25248 9.62466 4.88951C9.59504 7.52655 11.7569 9.65989 14.3926 9.65989Z" fill="white"/>
<path d="M23.9284 9.65989C26.5641 9.65989 28.6963 7.52655 28.6963 4.88951C28.6963 2.25248 26.5641 0.119141 23.9284 0.119141C21.2927 0.119141 19.1605 2.25248 19.1605 4.88951C19.1605 7.52655 21.2927 9.65989 23.9284 9.65989Z" fill="white"/>
<path d="M28.7112 9.65039L38.2766 9.65039V0.0800152L28.7112 0.0800152V9.65039Z" fill="white"/>
<path d="M38.2515 9.65039L47.8169 9.65039V0.0800152L38.2515 0.0800152V9.65039Z" fill="white"/>
<path d="M23.9284 38.3418C21.2927 38.3418 19.1605 40.4751 19.1605 43.1122C19.1605 45.7492 21.2927 47.8825 23.9284 47.8825C26.5641 47.8825 28.6963 45.7492 28.6963 43.1122C28.6963 40.4751 26.5641 38.3418 23.9284 38.3418Z" fill="white"/>
<path d="M38.2617 38.3418H28.6963V47.9122H38.2617V38.3418Z" fill="white"/>
<path d="M9.62469 38.3418H0.059269V47.9122H9.62469V38.3418Z" fill="white"/>
</svg>
