<svg width="288" height="144" viewBox="0 0 288 144" fill="none" xmlns="http://www.w3.org/2000/svg">
<path d="M215.906 71.9065L144 71.9065L144 144L215.906 71.9065Z" fill="#F0C72F"/>
<path d="M288 71.9065L215.906 71.9065L215.906 144L288 71.9065Z" fill="#F0C72F"/>
<path d="M215.906 3.08478e-06L144 -6.39456e-06L144 71.9065L215.906 3.08478e-06Z" fill="#F0C72F"/>
<path d="M288 1.25888e-05L215.906 3.08478e-06L215.906 71.9065L288 1.25888e-05Z" fill="#F0C72F"/>
<path d="M71.9062 44.9416C86.8867 44.9416 99.0584 57.1132 99.0584 72.0937C99.0584 86.8869 86.8867 99.0586 71.9062 99.0586C57.113 99.0586 44.7541 86.8869 44.7541 72.0937C44.7541 57.1132 57.113 44.9416 71.9062 44.9416Z" fill="#F0C72F"/>
<path d="M71.9062 0.000176791C111.792 0.000180285 144 32.2082 144 72.0937L144 0.000167847L71.9062 0.000176791Z" fill="#F0C72F"/>
<path d="M-0.000115795 72.0937C-0.000112315 32.2082 32.2079 0.000173315 71.9062 0.000176791L-0.000109504 0.000170494L-0.000115795 72.0937Z" fill="#F0C72F"/>
<path d="M71.9062 144C32.2079 144 -0.00011926 111.792 -0.000115795 72.0937L-0.00012207 144L71.9062 144Z" fill="#F0C72F"/>
<path d="M144 72.0937C144 111.792 111.792 144 71.9062 144L144 144L144 72.0937Z" fill="#F0C72F"/>
</svg>
