<svg width="793" height="469" viewBox="0 0 793 469" fill="none" xmlns="http://www.w3.org/2000/svg">
<g clip-path="url(#clip0_1213_4245)">
<circle cx="313.5" cy="49.5" r="9.5" fill="#32404E"/>
<path d="M316.526 44.0469V45.6533H311.577V44.0469H316.526ZM317.989 44.0469V54H315.938V44.0469H317.989ZM311.317 44.0469H313.361L313.108 49.0439C313.072 49.7913 313.001 50.4408 312.896 50.9922C312.796 51.5436 312.66 52.013 312.486 52.4004C312.313 52.7832 312.099 53.0931 311.844 53.3301C311.593 53.5625 311.297 53.7334 310.955 53.8428C310.613 53.9476 310.224 54 309.786 54H309.28V52.4004L309.54 52.3799C309.763 52.3571 309.959 52.2979 310.128 52.2021C310.297 52.1064 310.44 51.9629 310.559 51.7715C310.682 51.5801 310.782 51.3363 310.859 51.04C310.941 50.7393 311.005 50.3724 311.051 49.9395C311.101 49.5065 311.135 49.0007 311.153 48.4219L311.317 44.0469Z" fill="white"/>
</g>
<g clip-path="url(#clip1_1213_4245)">
<circle cx="382.5" cy="99.5" r="9.5" fill="#32404E"/>
<path d="M385.396 95.0469V96.6533H380.919V105H378.875V95.0469H385.396ZM380.215 98.6768H382.539C383.323 98.6768 383.997 98.8066 384.562 99.0664C385.128 99.3262 385.563 99.6908 385.868 100.16C386.174 100.63 386.326 101.176 386.326 101.801C386.326 102.275 386.24 102.708 386.066 103.1C385.893 103.487 385.64 103.824 385.308 104.111C384.979 104.394 384.583 104.613 384.118 104.768C383.653 104.923 383.127 105 382.539 105H378.875V95.0469H380.933V103.4H382.539C382.931 103.4 383.255 103.327 383.51 103.182C383.765 103.036 383.956 102.842 384.084 102.601C384.216 102.354 384.282 102.083 384.282 101.787C384.282 101.505 384.216 101.249 384.084 101.021C383.956 100.789 383.765 100.607 383.51 100.475C383.255 100.342 382.931 100.276 382.539 100.276H380.215V98.6768Z" fill="white"/>
</g>
<g clip-path="url(#clip2_1213_4245)">
<circle cx="271.5" cy="139.5" r="9.5" fill="#32404E"/>
<path d="M271.936 136.749L269.229 145H267.048L270.746 135.047H272.134L271.936 136.749ZM274.185 145L271.471 136.749L271.252 135.047H272.653L276.372 145H274.185ZM274.062 141.295V142.901H268.805V141.295H274.062Z" fill="white"/>
</g>
<g clip-path="url(#clip3_1213_4245)">
<circle cx="155.5" cy="216.5" r="9.5" fill="#32404E"/>
<path d="M155.785 217.632H153.229L153.215 216.224H155.361C155.74 216.224 156.049 216.176 156.291 216.08C156.533 215.98 156.713 215.836 156.831 215.649C156.954 215.458 157.016 215.226 157.016 214.952C157.016 214.642 156.956 214.392 156.838 214.2C156.724 214.009 156.544 213.87 156.298 213.783C156.056 213.697 155.744 213.653 155.361 213.653H153.939V222H151.889V212.047H155.361C155.94 212.047 156.457 212.102 156.913 212.211C157.373 212.32 157.763 212.487 158.082 212.71C158.401 212.933 158.645 213.216 158.813 213.558C158.982 213.895 159.066 214.296 159.066 214.761C159.066 215.171 158.973 215.549 158.786 215.896C158.604 216.242 158.314 216.524 157.918 216.743C157.526 216.962 157.013 217.083 156.38 217.105L155.785 217.632ZM155.696 222H152.668L153.468 220.4H155.696C156.056 220.4 156.35 220.343 156.578 220.229C156.806 220.111 156.975 219.951 157.084 219.751C157.193 219.55 157.248 219.32 157.248 219.061C157.248 218.769 157.198 218.516 157.098 218.302C157.002 218.088 156.847 217.924 156.633 217.81C156.419 217.691 156.136 217.632 155.785 217.632H153.81L153.823 216.224H156.284L156.756 216.777C157.362 216.768 157.85 216.875 158.219 217.099C158.592 217.317 158.864 217.602 159.032 217.953C159.205 218.304 159.292 218.68 159.292 219.081C159.292 219.719 159.153 220.257 158.875 220.694C158.597 221.127 158.189 221.453 157.651 221.672C157.118 221.891 156.466 222 155.696 222Z" fill="white"/>
</g>
<g clip-path="url(#clip4_1213_4245)">
<circle cx="424.5" cy="361.5" r="9.5" fill="#32404E"/>
<path d="M428.424 357.047V358.653H423.939V367H421.896V357.047H428.424Z" fill="white"/>
</g>
<g clip-path="url(#clip5_1213_4245)">
<circle cx="537.5" cy="318.5" r="9.5" fill="#32404E"/>
<path d="M540.784 320.4V322H533.613V320.4H540.784ZM534.222 320.4V324.44H532.294L532.185 320.4H534.222ZM542.261 320.4L542.083 324.447H540.203V320.4H542.261ZM539.656 312.047V313.653H534.864V312.047H539.656ZM541.119 312.047V322H539.075V312.047H541.119ZM534.611 312.047H536.662L536.396 316.101C536.354 316.771 536.282 317.363 536.177 317.878C536.076 318.388 535.953 318.837 535.808 319.225C535.666 319.612 535.509 319.951 535.336 320.243C535.163 320.53 534.98 320.781 534.789 320.995C534.598 321.205 534.404 321.392 534.208 321.556C534.012 321.715 533.821 321.863 533.634 322H532.458V320.4H532.916C533.048 320.291 533.187 320.141 533.333 319.949C533.483 319.758 533.625 319.5 533.757 319.177C533.894 318.849 534.012 318.434 534.112 317.933C534.217 317.431 534.295 316.821 534.345 316.101L534.611 312.047Z" fill="white"/>
</g>
<g clip-path="url(#clip6_1213_4245)">
<circle cx="661.5" cy="338.5" r="9.5" fill="#32404E"/>
<path d="M661.607 339.229H660.062V338.142H661.293C661.653 338.142 661.945 338.087 662.168 337.978C662.391 337.864 662.555 337.704 662.66 337.499C662.765 337.294 662.817 337.052 662.817 336.774C662.817 336.547 662.758 336.337 662.64 336.146C662.526 335.954 662.348 335.801 662.106 335.688C661.865 335.569 661.557 335.51 661.184 335.51C660.901 335.51 660.644 335.56 660.411 335.66C660.179 335.76 659.994 335.902 659.857 336.084C659.721 336.262 659.652 336.478 659.652 336.733H657.608C657.608 336.296 657.702 335.904 657.889 335.558C658.08 335.207 658.34 334.91 658.668 334.669C659.001 334.423 659.383 334.236 659.816 334.108C660.249 333.981 660.705 333.917 661.184 333.917C661.744 333.917 662.25 333.979 662.701 334.102C663.152 334.22 663.54 334.398 663.863 334.635C664.187 334.872 664.435 335.166 664.608 335.517C664.782 335.868 664.868 336.275 664.868 336.74C664.868 337.082 664.791 337.403 664.636 337.704C664.481 338.005 664.26 338.269 663.973 338.497C663.686 338.725 663.341 338.905 662.94 339.037C662.539 339.165 662.095 339.229 661.607 339.229ZM660.062 338.634H661.607C662.15 338.634 662.631 338.691 663.05 338.805C663.474 338.919 663.831 339.085 664.123 339.304C664.419 339.522 664.643 339.794 664.793 340.117C664.948 340.436 665.025 340.803 665.025 341.218C665.025 341.683 664.93 342.095 664.738 342.455C664.551 342.815 664.285 343.12 663.938 343.371C663.597 343.622 663.191 343.811 662.722 343.938C662.257 344.066 661.744 344.13 661.184 344.13C660.737 344.13 660.293 344.075 659.851 343.966C659.409 343.852 659.007 343.679 658.647 343.446C658.287 343.214 658 342.915 657.786 342.551C657.572 342.186 657.465 341.749 657.465 341.238H659.522C659.522 341.48 659.593 341.701 659.734 341.901C659.876 342.097 660.072 342.255 660.322 342.373C660.573 342.487 660.86 342.544 661.184 342.544C661.562 342.544 661.883 342.485 662.147 342.366C662.416 342.248 662.619 342.086 662.756 341.881C662.897 341.671 662.968 341.441 662.968 341.19C662.968 340.922 662.931 340.694 662.858 340.507C662.785 340.32 662.678 340.167 662.537 340.049C662.396 339.926 662.22 339.837 662.011 339.782C661.806 339.728 661.566 339.7 661.293 339.7H660.062V338.634Z" fill="white"/>
</g>
<g clip-path="url(#clip7_1213_4245)">
<circle cx="585.5" cy="116.5" r="9.5" fill="#32404E"/>
<path d="M583.946 112.047V122H581.896V112.047H583.946ZM589.812 112.047L585.997 117.892H583.488L583.229 116.066H584.903L587.323 112.047H589.812ZM587.699 122L584.91 117.55L586.332 116.087L590.133 122H587.699Z" fill="white"/>
</g>
<circle cx="571.5" cy="214.5" r="9.5" fill="#32404E"/>
<path d="M569.054 214.898L565.26 209.047H567.81L570.038 213.08H571.768L571.501 214.898H569.054ZM570.024 214.584L567.666 219H565.109L568.37 213.395L570.024 214.584ZM573.107 209.047V219H571.07V209.047H573.107ZM578.836 209.047L575.097 214.898H572.663L572.396 213.08H574.112L576.286 209.047H578.836ZM576.43 219L574.126 214.584L575.787 213.395L578.986 219H576.43Z" fill="white"/>
<defs>
<clipPath id="clip0_1213_4245">
<rect width="19" height="19" fill="white" transform="translate(304 40)"/>
</clipPath>
<clipPath id="clip1_1213_4245">
<rect width="19" height="19" fill="white" transform="translate(373 90)"/>
</clipPath>
<clipPath id="clip2_1213_4245">
<rect width="19" height="19" fill="white" transform="translate(262 130)"/>
</clipPath>
<clipPath id="clip3_1213_4245">
<rect width="19" height="19" fill="white" transform="translate(146 207)"/>
</clipPath>
<clipPath id="clip4_1213_4245">
<rect width="19" height="19" fill="white" transform="translate(415 352)"/>
</clipPath>
<clipPath id="clip5_1213_4245">
<rect width="19" height="19" fill="white" transform="translate(528 309)"/>
</clipPath>
<clipPath id="clip6_1213_4245">
<rect width="19" height="19" fill="white" transform="translate(652 329)"/>
</clipPath>
<clipPath id="clip7_1213_4245">
<rect width="19" height="19" fill="white" transform="translate(576 107)"/>
</clipPath>
</defs>
</svg>
