<svg width="324" height="324" viewBox="0 0 324 324" fill="none" xmlns="http://www.w3.org/2000/svg">
<g clip-path="url(#clip0_1196_8132)">
<path d="M81.1051 81.1054L81.1051 162L1.13325e-05 162L81.1051 81.1054Z" fill="#E79FB5"/>
<path d="M81.105 1.41441e-05L81.1051 81.1054L-6.05472e-06 81.1053L81.105 1.41441e-05Z" fill="#E79FB5"/>
<path d="M162 81.1054L162 162L81.1051 162L162 81.1054Z" fill="#E79FB5"/>
<path d="M162 0L162 81.1054L81.1051 81.1054L162 0Z" fill="#E79FB5"/>
<path d="M214.931 251.082C225.958 251.082 234.918 260.042 234.918 271.069C234.918 281.958 225.958 290.918 214.931 290.918C204.042 290.918 194.944 281.958 194.944 271.069C194.944 260.042 204.042 251.082 214.931 251.082Z" fill="#E89619"/>
<path d="M214.931 218C244.291 218 268 241.709 268 271.069L268 218L214.931 218Z" fill="#E89619"/>
<path d="M162 271.069C162 241.709 185.709 218 214.931 218L162 218L162 271.069Z" fill="#E89619"/>
<path d="M214.931 324C185.709 324 162 300.291 162 271.069L162 324L214.931 324Z" fill="#E89619"/>
<path d="M268 271.069C268 300.291 244.291 324 214.931 324L268 324L268 271.069Z" fill="#E89619"/>
<path d="M40.5527 243C18.117 243 -1.58384e-06 224.883 -3.53602e-06 202.553C-5.4974e-06 180.117 18.117 162 40.5527 162C62.883 162 81 180.117 81 202.553C81 224.883 62.883 243 40.5527 243ZM40.5527 187.28C32.1262 187.28 25.2796 194.126 25.2796 202.553C25.2796 210.874 32.1262 217.72 40.5527 217.72C48.8739 217.72 55.8258 210.874 55.8258 202.553C55.8258 194.126 48.8739 187.28 40.5527 187.28Z" fill="#E89619"/>
<path d="M5.32562e-06 283.553L40.4473 243L81 283.553L40.4473 324L5.32562e-06 283.553ZM40.658 310.518C42.3433 296.508 53.2978 285.449 67.3069 283.658C67.5175 283.658 67.5175 283.447 67.3069 283.237C53.2978 281.446 42.3433 270.492 40.658 256.588C40.5526 256.166 40.2367 256.166 40.2367 256.588C38.5514 270.597 27.5969 281.551 13.5878 283.237C13.3771 283.342 13.3771 283.658 13.5878 283.658C27.5969 285.449 38.5514 296.508 40.2367 310.518C40.342 310.728 40.5527 310.728 40.658 310.518Z" fill="#E79FB5"/>
<path d="M162 162L162 243L81 243L81 162L162 162Z" fill="#76A1C9"/>
<path d="M162 315.035L81 315.035L81 324L162 324L162 315.035Z" fill="#76A1C9"/>
<path d="M162 297L81 297L81 306.07L162 306.07V297Z" fill="#76A1C9"/>
<path d="M162 278.965L81 278.965L81 288.035L162 288.035V278.965Z" fill="#76A1C9"/>
<path d="M162 261.035L81 261.035L81 270L162 270L162 261.035Z" fill="#76A1C9"/>
<path d="M162 243L81 243L81 251.859L162 251.859L162 243Z" fill="#76A1C9"/>
</g>
<defs>
<clipPath id="clip0_1196_8132">
<rect width="324" height="324" fill="white" transform="matrix(1 0 0 -1 0 324)"/>
</clipPath>
</defs>
</svg>
