<svg width="324" height="324" viewBox="0 0 324 324" fill="none" xmlns="http://www.w3.org/2000/svg">
<g clip-path="url(#clip0_1196_8111)">
<path d="M323.999 17.9297L162 17.9297L162 1.52588e-05L323.999 0V17.9297Z" fill="black"/>
<path d="M323.999 54L162 54L162 35.8593L323.999 35.8593V54Z" fill="black"/>
<path d="M323.999 90.0702L162 90.0702L162 71.9296L323.999 71.9296V90.0702Z" fill="black"/>
<path d="M323.999 125.93L162 125.93L162 108L323.999 108V125.93Z" fill="black"/>
<path d="M324 162L162 162L162 144.281L323.999 144.281L324 162Z" fill="black"/>
<path d="M81.1049 242.895L162 242.895L162 324L81.1049 242.895Z" fill="black"/>
<path d="M-0.000484745 242.895L81.1049 242.895L81.1048 324L-0.000484745 242.895Z" fill="black"/>
<path d="M81.1049 162L162 162L162 242.895L81.1049 162Z" fill="black"/>
<path d="M-0.000488281 162L81.1049 162L81.1049 242.895L-0.000488281 162Z" fill="black"/>
<path d="M80.9995 40.5C80.9995 18.0352 62.8589 6.10895e-06 40.4995 1.22215e-06C18.0346 -3.68769e-06 -0.00047452 18.0352 -0.00047943 40.5C-0.000484316 62.8594 18.0346 81 40.4995 81C62.8589 81 80.9995 62.8594 80.9995 40.5Z" fill="black"/>
<path d="M-0.000479418 121.447C-0.000484322 143.883 18.1165 162 40.4468 162C62.8825 162 80.9995 143.883 80.9995 121.447C80.9995 99.117 62.8825 81 40.4469 81C18.1166 81 -0.000474538 99.117 -0.000479418 121.447ZM55.7199 121.447C55.7199 129.874 48.8734 136.72 40.4468 136.72C32.1257 136.72 25.2791 129.874 25.2791 121.447C25.2791 113.126 32.1257 106.174 40.4469 106.174C48.8734 106.174 55.7199 113.126 55.7199 121.447Z" fill="black"/>
<path d="M81.3943 161.109C99.5205 137.746 99.4119 104.82 81.1772 81.6734C80.743 81.1301 81.1772 80.8041 81.7199 81.1301C104.947 99.4949 137.618 99.6035 160.954 81.3474C161.497 80.9128 161.822 81.3474 161.497 81.8908C143.371 105.254 143.479 138.072 161.931 161.327C162.148 161.87 161.822 162.196 161.388 161.87C138.161 143.505 105.382 143.396 81.937 161.653C81.5028 161.87 81.0687 161.435 81.3943 161.109Z" fill="black"/>
<path d="M162 7.08125e-06L81 0L81 81L162 81L162 7.08125e-06Z" fill="black"/>
</g>
<defs>
<clipPath id="clip0_1196_8111">
<rect width="324" height="324" fill="white"/>
</clipPath>
</defs>
</svg>
