<svg width="160" height="193" viewBox="0 0 160 193" fill="none" xmlns="http://www.w3.org/2000/svg">
<g clip-path="url(#clip0_1744_27695)">
<path d="M48.5629 48.5631L48.5629 97L8.45478e-06 97L48.5629 48.5631Z" fill="#E79FB5"/>
<path d="M48.5629 8.49096e-06L48.5629 48.5631L-3.39651e-06 48.563L48.5629 8.49096e-06Z" fill="#E79FB5"/>
<path d="M97 48.5631L97 97L48.5629 97L97 48.5631Z" fill="#E79FB5"/>
<path d="M97 0L97 48.5631L48.5629 48.5631L97 0Z" fill="#E79FB5"/>
<path d="M128.459 149.662C135.013 149.662 140.338 154.987 140.338 161.541C140.338 168.013 135.013 173.338 128.459 173.338C121.987 173.338 116.58 168.013 116.58 161.541C116.58 154.987 121.987 149.662 128.459 149.662Z" fill="#E89619"/>
<path d="M128.459 130C145.909 130 160 144.091 160 161.541L160 130L128.459 130Z" fill="#E89619"/>
<path d="M97 161.541C97 144.091 111.091 130 128.459 130L97 130L97 161.541Z" fill="#E89619"/>
<path d="M128.459 193C111.091 193 97 178.909 97 161.541L97 193L128.459 193Z" fill="#E89619"/>
<path d="M160 161.541C160 178.909 145.909 193 128.459 193L160 193L160 161.541Z" fill="#E89619"/>
<path d="M24.2106 145.074C10.8161 145.074 -9.45577e-07 134.258 -2.11106e-06 120.927C-3.28203e-06 107.532 10.8161 96.716 24.2106 96.716C37.5421 96.716 48.3582 107.532 48.3582 120.927C48.3582 134.258 37.5421 145.074 24.2106 145.074ZM24.2106 111.808C19.1798 111.808 15.0923 115.896 15.0923 120.927C15.0923 125.894 19.1798 129.982 24.2106 129.982C29.1784 129.982 33.3288 125.894 33.3288 120.927C33.3288 115.896 29.1784 111.808 24.2106 111.808Z" fill="#E89619"/>
<path d="M3.17947e-06 169.285L24.1477 145.074L48.3582 169.285L24.1477 193.432L3.17947e-06 169.285ZM24.2734 185.383C25.2796 177.02 31.8196 170.417 40.1832 169.348C40.309 169.348 40.309 169.222 40.1832 169.096C31.8196 168.027 25.2796 161.487 24.2734 153.186C24.2105 152.935 24.0219 152.935 24.0219 153.186C23.0157 161.55 16.4758 168.09 8.11211 169.096C7.98634 169.159 7.98634 169.348 8.11211 169.348C16.4758 170.417 23.0157 177.02 24.0219 185.383C24.0848 185.509 24.2105 185.509 24.2734 185.383Z" fill="#E79FB5"/>
<path d="M97 96L97 145L48 145L48 96L97 96Z" fill="#76A1C9"/>
<path d="M97 187.688L16 187.688L16 193L97 193L97 187.688Z" fill="#76A1C9"/>
<path d="M97 177L16 177L16 182.375L97 182.375L97 177Z" fill="#76A1C9"/>
<path d="M97 166.313L16 166.313L16 171.688L97 171.688L97 166.313Z" fill="#76A1C9"/>
<path d="M97 155.688L16 155.688L16 161L97 161L97 155.688Z" fill="#76A1C9"/>
<path d="M97 145L16 145L16 150.25L97 150.25L97 145Z" fill="#76A1C9"/>
</g>
<defs>
<clipPath id="clip0_1744_27695">
<rect width="160" height="193" fill="white" transform="matrix(1 0 0 -1 0 193)"/>
</clipPath>
</defs>
</svg>
