<svg width="120" height="120" viewBox="0 0 120 120" fill="none" xmlns="http://www.w3.org/2000/svg">
<path d="M90.039 60C73.42 60 60 46.5625 60 30C60 13.4375 73.42 6.45618e-06 90.039 5.0033e-06C106.58 3.55724e-06 120 13.4375 120 30C120 46.5625 106.58 60 90.039 60ZM90.039 18.6719C83.7971 18.6719 78.7256 23.75 78.7256 30C78.7256 36.25 83.7971 41.3281 90.039 41.3281C96.2029 41.3281 101.352 36.25 101.352 30C101.352 23.6719 96.2029 18.6719 90.039 18.6719Z" fill="#F0C72F"/>
<path d="M-2.62268e-06 89.9981L30.0391 59.998L60 89.9981L30.0391 119.998L-2.62268e-06 89.9981Z" fill="#E79FB5"/>
<path d="M60 59.9981L120 59.998L120 119.998L60 119.998L60 59.9981ZM106.545 89.9201C97.94 88.9071 91.2125 82.2058 90.1173 73.6344C90.1173 73.4786 89.9609 73.4786 89.9609 73.6344C88.9439 82.2058 82.1382 88.9071 73.5332 89.9201C73.3768 89.9201 73.3768 90.076 73.5332 90.076C82.1382 91.089 88.9439 97.7903 89.9609 106.284C89.9609 106.44 90.1173 106.44 90.1173 106.284C91.2125 97.7902 97.94 91.089 106.545 90.076C106.701 90.076 106.701 89.9201 106.545 89.9201Z" fill="#E79FB5"/>
</svg>
