<svg width="180" height="180" viewBox="0 0 180 180" fill="none" xmlns="http://www.w3.org/2000/svg">
<path d="M45.0586 135.058L90 135.058L90 90L45.0586 135.058Z" fill="#865F3E"/>
<path d="M1.96447e-06 135.058L45.0586 135.058L45.0585 90L1.96447e-06 135.058Z" fill="#865F3E"/>
<path d="M45.0586 180L90 180L90 135.058L45.0586 180Z" fill="#865F3E"/>
<path d="M0 180L45.0586 180L45.0586 135.058L0 180Z" fill="#865F3E"/>
<path d="M134.941 90C159.87 90 180 110.13 180 135.059L180 90L134.941 90Z" fill="#865F3E"/>
<path d="M90 135.059C90 110.13 110.13 90 134.941 90L90 90L90 135.059Z" fill="#865F3E"/>
<path d="M134.941 180C110.13 180 90 159.87 90 135.059L90 180L134.941 180Z" fill="#865F3E"/>
<path d="M180 135.059C180 159.87 159.87 180 134.941 180L180 180L180 135.059Z" fill="#865F3E"/>
<path d="M179.562 0.989716C159.422 26.9491 159.542 63.5338 179.803 89.2518C180.286 89.8555 179.803 90.2177 179.2 89.8555C153.392 69.4502 117.091 69.3294 91.1621 89.614C90.5591 90.0969 90.1973 89.614 90.5591 89.0103C110.699 63.0508 110.579 26.5869 90.0768 0.748211C89.8356 0.144503 90.1974 -0.217721 90.6798 0.144503C116.488 20.5498 152.909 20.6706 178.959 0.386009C179.441 0.144526 179.924 0.627492 179.562 0.989716Z" fill="#E79FB5"/>
</svg>
