<svg width="48" height="48" viewBox="0 0 48 48" fill="none" xmlns="http://www.w3.org/2000/svg">
<path fill-rule="evenodd" clip-rule="evenodd" d="M12.2902 11.6222L9.46167 12.6013V18.7818L12.2902 11.6222ZM9.46167 12.6013L7.5 13.3838L9.46376 18.7818V12.6013H9.46167ZM25.4525 20.3187L22.7544 25.661L28.3838 28.5733L25.4525 20.3187ZM39.0145 20.2688L40.5 11.6126L37.2325 15.0822L39.0145 20.2688ZM40.5 11.6126L37.6714 12.6358L37.2325 15.0796L40.5 11.6126ZM38.3524 24.1172L39.0124 20.2699L36.396 19.7333L38.3524 24.1172ZM39.0124 20.2699L37.2314 15.0822L36.3981 19.7344L39.0124 20.2699ZM38.3524 24.1172L36.3981 19.7344L35.3724 25.4512L38.3524 24.1172ZM29.6048 32.0062L31.2244 36.5144L34.2672 31.6269L29.6048 32.0062ZM31.2244 36.5144L35.3944 35.0036L34.2667 31.6237L31.2244 36.5144ZM35.3944 35.0036L36.5651 34.5993L34.2672 31.6243L35.3944 35.0036ZM28.3853 28.5754L29.6048 32.0073L34.2667 31.6253L28.3853 28.5754ZM35.374 25.4517L28.3853 28.5754L34.2667 31.6237L35.374 25.4517ZM36.5651 34.6003L38.3524 24.1167L34.2667 31.6237L36.5651 34.6003ZM38.3524 24.1167L35.3703 25.4501L34.2667 31.6237L38.3524 24.1167ZM25.4525 20.3187L28.3859 28.5733L31.4905 23.4404L25.4525 20.3187ZM24.3677 17.2641L25.4525 20.3187L29.7823 18.4121L24.3677 17.2641ZM25.4525 20.3187L31.4905 23.4409L29.7844 18.4121L25.4525 20.3187ZM24.3677 17.2641L29.7823 18.4121L27.4362 11.5L24.3677 17.2641ZM24.3677 17.2641L27.4362 11.5L22.9031 13.1166L24.3677 17.2641ZM22.7544 25.6615L25.4525 20.3187L22.9052 18.9731L22.7544 25.6615ZM25.4525 20.3187L24.3677 17.2641L22.9052 18.9736L25.4525 20.3187ZM24.3677 17.2641L22.901 13.1161V18.9736L24.3677 17.2641ZM22.7544 25.6615L22.9052 18.9736L19.5754 24.0168L22.7544 25.6615ZM12.3782 26.7633L16.0905 37L19.567 30.4869L12.3782 26.7633ZM16.0905 37L19.567 35.7484V30.489L16.0905 37ZM19.5738 24.0168L12.3767 26.7633L19.567 30.4869L19.5738 24.0168ZM22.7528 25.6637L19.5738 24.0168L19.5686 30.4869L22.7528 25.6637ZM12.2902 11.6222L9.46167 18.7818L16.114 22.2265L12.2902 11.6222ZM9.46167 18.7818L12.3767 26.7639L16.1146 22.227L9.46167 18.7818ZM12.3767 26.7639L19.5738 24.0173L16.1167 22.227L12.3767 26.7639Z" fill="#2E3139"/>
</svg>
