<svg width="180" height="66" viewBox="0 0 180 66" fill="none" xmlns="http://www.w3.org/2000/svg">
<path fill-rule="evenodd" clip-rule="evenodd" d="M32.1212 0.586974C27.8669 4.66004 28.1535 4.35673 28.2653 4.66682C28.4565 5.19788 47.5891 49.1911 47.66 49.2628C47.6986 49.3019 48.7692 48.3256 50.0391 47.0933L52.3481 44.8528L42.6093 22.4692C37.253 10.1583 32.8577 0.049345 32.842 0.00489537C32.8264 -0.0394484 32.502 0.222487 32.1212 0.586974ZM38.326 4.68936C38.358 4.77667 42.0381 13.2539 46.504 23.5275C50.97 33.8012 54.6559 42.2902 54.6951 42.3918C54.7542 42.5456 54.8822 42.4656 55.4567 41.9155C55.8365 41.552 56.8832 40.5494 57.7827 39.6877C58.9362 38.5826 59.4028 38.0682 59.3659 37.9415C59.3009 37.7179 49.8436 15.9662 49.6481 15.5907C49.5699 15.4405 47.6441 13.5342 45.3685 11.3547C43.0929 9.17517 40.5644 6.74812 39.7495 5.96125C38.9345 5.17439 38.2939 4.60205 38.326 4.68936ZM23.2345 9.09622L20.9601 11.2807L21.2251 11.8743C21.6587 12.8461 40.3411 55.8416 40.4254 56.0617C40.4909 56.233 40.854 55.9272 42.7847 54.0746C44.0398 52.8704 45.083 51.8374 45.1031 51.779C45.1533 51.6333 25.7135 6.91184 25.6 6.91184C25.5499 6.91184 24.4855 7.89481 23.2345 9.09622ZM16.1983 15.8482L13.8585 18.0967L15.0264 20.7884C28.2404 51.2441 33.3575 62.9975 33.4038 63C33.435 63.0017 33.7467 62.7291 34.0963 62.3941C34.446 62.0592 35.4891 61.0614 36.4143 60.1765L38.0965 58.5677L28.3349 36.1C22.9661 23.7427 18.5654 13.6249 18.5557 13.6159C18.546 13.607 17.4851 14.6115 16.1983 15.8482ZM119.935 19.238C118.654 19.6356 117.993 20.5969 117.993 22.0651V22.6809H117.194H116.395V23.3688V24.0567H117.194H117.993V27.8138V31.5708H118.846H119.698V27.8138V24.0567H121.03H122.362V23.3688V22.6809H121.03H119.698V22.0406C119.698 21.6665 119.767 21.2672 119.865 21.0798C120.177 20.4796 121.17 20.2861 122.005 20.6627L122.448 20.8624L122.671 20.3288C123.011 19.5171 123.025 19.5399 121.946 19.1975C121.463 19.0442 120.497 19.0636 119.935 19.238ZM95.3004 25.3796V31.5708H96.1527H97.005V25.3796V19.1884H96.1527H95.3004V25.3796ZM83.0482 25.75V31.5708H83.9538H84.8594V29.8365V28.1024L87.0701 28.0532C88.9165 28.0121 89.3906 27.9683 89.9465 27.7877C91.2791 27.3549 92.2356 26.5232 92.6459 25.4409C92.9727 24.5786 92.9041 22.9633 92.5084 22.2025C91.9639 21.1558 90.7985 20.332 89.4621 20.0488C89.1203 19.9764 87.7433 19.9292 85.9729 19.9292H83.0482V25.75ZM10.6923 21.1201C10.3782 21.4257 9.34018 22.4242 8.38548 23.3391L6.64951 25.0022L11.3525 35.8262C13.9392 41.7795 16.1251 46.7839 16.2101 46.9473C16.3678 47.2501 16.9654 47.8374 22.5866 53.2138C24.3445 54.8951 26.1806 56.6545 26.6667 57.1234C27.153 57.5924 27.5747 57.9981 27.604 58.025C27.6333 58.052 27.619 57.9746 27.5723 57.8529C27.1908 56.8592 11.3839 20.5699 11.3315 20.5674C11.2939 20.5657 11.0063 20.8143 10.6923 21.1201ZM110.749 21.7284V22.6809H110.003H109.257V23.3688V24.0567H109.993H110.728L110.767 26.8877C110.803 29.4736 110.826 29.76 111.026 30.195C111.46 31.1357 112.448 31.6766 113.732 31.6766C114.383 31.6766 115.259 31.4511 115.591 31.1981C115.796 31.0422 115.795 31.0304 115.511 30.4562C115.23 29.8862 115.218 29.8763 114.977 30.0332C114.617 30.2675 113.825 30.3477 113.364 30.1967C113.12 30.1168 112.891 29.94 112.765 29.7343C112.578 29.4292 112.561 29.1769 112.56 26.729L112.56 24.0567H113.838H115.117V23.3688V22.6809H113.838H112.56V21.7284V20.7759H111.654H110.749V21.7284ZM55.863 21.5961C55.9161 21.6979 57.2901 24.8531 58.9161 28.6075C60.5421 32.3619 61.9109 35.4753 61.9579 35.526C62.041 35.6159 66.2681 31.636 66.2681 31.4678C66.2681 31.3806 55.908 21.4109 55.8174 21.4109C55.7893 21.4109 55.8099 21.4943 55.863 21.5961ZM89.6318 21.7175C90.757 22.2215 91.3176 23.3367 91.0477 24.5346C90.8824 25.2685 90.5247 25.7546 89.9024 26.091C89.2084 26.4662 88.3233 26.5949 86.4309 26.5958L84.8594 26.5967V23.9958V21.395L86.9636 21.4299C88.9113 21.4622 89.1097 21.4836 89.6318 21.7175ZM101.799 22.8353C100.837 23.0798 99.7729 23.6005 99.776 23.8258C99.7767 23.8655 99.9173 24.1408 100.089 24.4377L100.4 24.9774L101.126 24.6196C102.777 23.8065 104.722 23.9346 105.437 24.9034C105.642 25.1805 105.889 26.233 105.788 26.3961C105.755 26.4482 104.927 26.4909 103.946 26.4909C101.242 26.4909 100.339 26.8079 99.7484 27.9657C99.0766 29.2818 99.6535 30.7504 101.083 31.3617C102.351 31.9043 104.397 31.7199 105.38 30.9747L105.848 30.6197V31.0953V31.5708H106.7H107.553V28.7857C107.553 25.1042 107.428 24.4802 106.523 23.6121C105.814 22.9326 105.243 22.7504 103.717 22.7163C102.829 22.6964 102.19 22.7361 101.799 22.8353ZM126.186 22.8281C124.899 23.1969 123.655 24.2686 123.199 25.4024C122.994 25.9107 122.952 26.2122 122.95 27.1788C122.948 28.2658 122.97 28.3885 123.279 29.0308C123.736 29.9794 124.343 30.6205 125.207 31.0674C127.797 32.4069 130.935 31.498 132.075 29.0782C132.681 27.7927 132.602 26.055 131.883 24.8366C131.497 24.1812 130.65 23.4502 129.845 23.0757C129.192 22.7722 129.025 22.7412 127.903 22.7155C127.118 22.6975 126.5 22.7379 126.186 22.8281ZM134.791 22.7515C134.752 22.7902 134.72 24.7904 134.72 27.1964V31.5708H135.562H136.403L136.445 28.9515C136.485 26.479 136.501 26.3007 136.737 25.7718C137.178 24.7857 138.019 24.2684 139.181 24.2684H139.728V23.4604V22.6524L138.997 22.7044C138.122 22.7666 137.218 23.1672 136.745 23.7024L136.425 24.0641V23.3725V22.6809H135.644C135.214 22.6809 134.83 22.7126 134.791 22.7515ZM141.752 27.1258V31.5708H142.596H143.441L143.48 28.7927C143.521 25.8312 143.547 25.6733 144.104 24.9695C144.837 24.0441 146.973 23.8734 147.859 24.6693C147.97 24.769 148.163 25.0409 148.289 25.2738C148.504 25.6723 148.519 25.8691 148.552 28.634L148.586 31.5708H149.43H150.275V28.9947C150.275 26.1828 150.344 25.7269 150.866 25.0459C151.756 23.8868 154.169 23.8516 154.928 24.9867C155.309 25.5568 155.389 26.2526 155.389 28.9831V31.5708H156.241H157.094V28.7714C157.094 27.1018 157.045 25.7458 156.974 25.4113C156.723 24.2383 156.094 23.4252 155.075 22.9567C154.664 22.7677 154.388 22.7338 153.258 22.7338C152.023 22.7338 151.88 22.7552 151.287 23.0302C150.936 23.1932 150.449 23.52 150.206 23.7563L149.764 24.1861L149.371 23.7541C149.155 23.5165 148.706 23.1898 148.375 23.028C147.816 22.7553 147.678 22.734 146.493 22.7363C145.038 22.7391 144.561 22.8887 143.785 23.5853L143.35 23.9755V23.3282V22.6809H142.551H141.752V27.1258ZM129.176 24.4539C130.915 25.3301 131.314 27.9535 129.919 29.3391C129.05 30.202 127.485 30.4688 126.357 29.946C125.767 29.6724 125.086 28.9885 124.853 28.4364C124.442 27.4575 124.599 26.1149 125.225 25.2555C126.061 24.1099 127.795 23.758 129.176 24.4539ZM2.11067 29.3463C0.949808 30.4636 0 31.4187 0 31.4689C0 31.5191 2.34634 33.8113 5.21419 36.5627C8.08194 39.3142 10.3988 41.4887 10.3625 41.3948C10.2278 41.0462 4.28804 27.3889 4.25533 27.3528C4.23658 27.332 3.27154 28.2291 2.11067 29.3463ZM105.794 28.3604C105.793 28.9318 105.752 29.0632 105.463 29.4182C104.601 30.4762 102.574 30.7398 101.595 29.9212C101.048 29.4645 101.024 28.6096 101.543 28.1315C101.95 27.7562 102.454 27.6727 104.197 27.6911L105.795 27.7079L105.794 28.3604ZM95.8864 38.9568C95.7692 38.9804 95.5415 39.123 95.3803 39.2737C95.1505 39.4888 95.0873 39.6442 95.0873 39.9949C95.0873 40.6051 95.5263 40.9899 96.2224 40.9899C97.1968 40.9899 97.7062 39.9161 97.0438 39.2581C96.8893 39.1046 96.7095 38.9731 96.6443 38.9655C96.2485 38.9206 96.0761 38.9185 95.8864 38.9568ZM129.746 39.0282C129.403 39.1765 129.073 39.6561 129.074 40.0057C129.075 40.3773 129.476 40.8676 129.867 40.9749C130.418 41.126 130.954 40.9498 131.21 40.5337C131.595 39.9063 131.398 39.3044 130.715 39.0208C130.281 38.8408 130.178 38.8415 129.746 39.0282ZM141.219 41.5285V43.8662L140.884 43.5864C138.741 41.7943 135.018 42.5768 133.855 45.0641C132.765 47.3941 133.665 50.1546 135.844 51.1678C137.587 51.978 139.637 51.7539 140.949 50.6099L141.326 50.2813V50.9272V51.5732H142.125H142.924V45.382V39.1908H142.072H141.219V41.5285ZM166.789 45.382V51.5732H167.641H168.494V45.382V39.1908H167.641H166.789V45.382ZM86.9464 39.887C84.573 40.4149 82.8219 42.024 82.2339 44.2173C82.0417 44.9342 82.0524 46.5193 82.2546 47.2906C82.5963 48.5934 83.4632 49.7864 84.6267 50.5548C87.0479 52.1536 90.748 52.0234 92.6969 50.2708L93.2012 49.8172L92.6018 49.3085L92.0024 48.7999L91.5831 49.1299C89.2758 50.945 85.5649 50.2248 84.3241 47.7211C83.3067 45.6681 83.949 43.2566 85.8359 42.0452C86.7226 41.4759 87.5824 41.2721 88.8703 41.3256C90.0288 41.3738 90.7743 41.6327 91.5806 42.2671L91.9976 42.5952L92.3972 42.2804C92.617 42.1074 92.88 41.874 92.9818 41.762C93.1595 41.5665 93.153 41.5449 92.822 41.2336C91.5217 40.0104 88.9949 39.4313 86.9464 39.887ZM100.414 41.7307V42.6832H99.6153H98.8162V43.3711V44.059H99.6153H100.414V46.6856C100.414 49.6123 100.497 50.1336 101.063 50.7737C101.595 51.3761 102.239 51.6218 103.291 51.6241C104.195 51.6261 105.059 51.4079 105.295 51.1178C105.365 51.0326 105.316 50.8078 105.148 50.4307L104.897 49.8704L104.549 50.049C104.037 50.3118 103.053 50.299 102.681 50.0246C102.189 49.6627 102.132 49.3038 102.125 46.5726L102.119 44.059H103.451H104.782V43.3711V42.6832H103.451H102.119V41.7307V40.7782H101.267H100.414V41.7307ZM107.339 41.7307V42.6832H106.594H105.848V43.3711V44.059H106.581H107.315L107.358 46.8371C107.401 49.5746 107.405 49.6241 107.683 50.2219C107.9 50.6893 108.08 50.9006 108.465 51.1432C109.407 51.7365 110.727 51.8161 111.827 51.346C112.113 51.2238 112.347 51.088 112.347 51.0444C112.347 50.969 111.926 49.9706 111.863 49.8985C111.847 49.8796 111.694 49.936 111.523 50.0239C110.791 50.3999 109.867 50.2859 109.426 49.7651L109.151 49.4403V46.7496V44.059H110.429H111.708V43.3711V42.6832H110.429H109.151V41.7307V40.7782H108.245H107.339V41.7307ZM116.768 42.6461C115.631 42.827 113.945 43.4981 113.945 43.7699C113.945 43.8275 114.093 44.1308 114.273 44.4442L114.601 45.0137L114.868 44.8053C115.595 44.2367 117.519 43.892 118.495 44.1553C119.365 44.3903 119.911 45.0862 119.911 45.9606V46.3874L118.659 46.3882C115.976 46.3899 114.776 46.7158 114.085 47.6306C113.48 48.4307 113.48 49.636 114.085 50.4358C115.19 51.8973 118.44 52.0913 119.766 50.7749L120.018 50.5245V51.0487V51.5732H120.87H121.722L121.722 48.848C121.721 47.3491 121.671 45.8147 121.609 45.438C121.395 44.1288 120.647 43.2346 119.44 42.8477C118.897 42.6734 117.337 42.5556 116.768 42.6461ZM148.719 42.7349C146.617 43.1891 145.268 44.8877 145.268 47.0807C145.268 49.6627 146.947 51.3891 149.7 51.638C151.123 51.7667 152.786 51.2807 153.517 50.5226C153.863 50.1643 153.884 50.2319 153.17 49.4391L152.916 49.1573L152.444 49.5158C151.601 50.1545 150.18 50.3816 149.081 50.0531C148.06 49.748 147.193 48.8838 147.014 47.994L146.946 47.6573H150.688H154.43L154.429 47.0488C154.425 44.9121 153.018 43.1695 150.944 42.7331C150.071 42.5492 149.576 42.5497 148.719 42.7349ZM158.745 42.6808C158.452 42.726 157.997 42.8208 157.733 42.8915C157.173 43.0419 156.028 43.6233 156.028 43.7578C156.028 43.8089 156.175 44.1083 156.354 44.4232L156.679 44.9958L157.179 44.6896C157.805 44.3068 158.755 44.0588 159.593 44.0597C161.09 44.0611 161.861 44.6337 162.05 45.886L162.125 46.3874L160.808 46.3882C159.082 46.3893 157.871 46.5344 157.201 46.8204C155.432 47.5764 155.213 49.9489 156.813 51.0161C157.514 51.4833 158.044 51.6188 159.171 51.6188C160.31 51.6188 160.834 51.4823 161.561 50.9962L162.101 50.6349V51.1041V51.5732H162.962H163.822L163.781 48.3717C163.738 45.0042 163.718 44.8549 163.206 44.0411C162.882 43.5261 162.361 43.1439 161.638 42.8917C160.973 42.6596 159.554 42.5561 158.745 42.6808ZM174.353 42.7215C172.967 43.0208 171.92 43.8322 171.292 45.0938C170.898 45.8855 170.891 45.9223 170.891 47.1227C170.891 48.2781 170.91 48.3845 171.231 49.0587C171.425 49.4654 171.792 49.9913 172.085 50.2821C173.789 51.9754 177.231 52.1385 178.985 50.609C179.192 50.4288 179.361 50.2374 179.361 50.184C179.361 50.1306 179.161 49.8719 178.918 49.6092L178.475 49.1317L178.199 49.3943C177.631 49.9342 176.955 50.1445 175.792 50.1431C174.551 50.1418 174.025 49.9471 173.302 49.221C172.941 48.8597 172.542 48.0832 172.542 47.7443C172.542 47.6965 174.22 47.6573 176.271 47.6573H180V46.9887C180 44.8275 178.459 43.0298 176.305 42.6795C175.526 42.5526 175.093 42.5619 174.353 42.7215ZM95.3004 47.1282V51.5732H96.206H97.1116V47.1282V42.6832H96.206H95.3004V47.1282ZM129.393 47.1282V51.5732H130.246H131.098V47.1282V42.6832H130.246H129.393V47.1282ZM139.72 44.4352C140.747 44.9909 141.219 45.8383 141.219 47.1282C141.219 48.419 140.751 49.2591 139.712 49.8305C139.198 50.1135 139.047 50.1443 138.183 50.1437C137.4 50.143 137.143 50.1002 136.784 49.9096C135.783 49.3798 135.246 48.5412 135.171 47.3928C135.07 45.8369 135.754 44.727 137.11 44.245C137.912 43.9601 138.986 44.0384 139.72 44.4352ZM151.182 44.3079C151.984 44.6791 152.726 45.6253 152.726 46.2781C152.726 46.4891 152.67 46.4932 149.849 46.4932C146.599 46.4932 146.782 46.5515 147.194 45.6465C147.678 44.5854 148.556 44.0612 149.849 44.0612C150.462 44.0612 150.772 44.1184 151.182 44.3079ZM176.505 44.1835C177.288 44.4167 178.127 45.3421 178.336 46.2022L178.406 46.4932H175.466H172.525L172.597 46.1492C172.767 45.3399 173.415 44.5863 174.251 44.2259C174.696 44.0345 175.926 44.0113 176.505 44.1835ZM119.91 48.3188C119.91 49.099 119.719 49.4511 119.06 49.8911C117.949 50.632 116.07 50.502 115.546 49.6481C115.121 48.9554 115.327 48.2691 116.072 47.8955C116.505 47.6785 116.697 47.6573 118.229 47.6573H119.911L119.91 48.3188ZM162.101 48.2187C162.101 49.4817 161.008 50.3566 159.438 50.3499C158.495 50.3459 157.916 50.1155 157.614 49.6237C157.372 49.2293 157.359 48.8106 157.574 48.3961C157.89 47.7901 158.328 47.6778 160.423 47.6665L162.101 47.6573V48.2187Z" fill="black"/>
</svg>
