<svg width="11" height="11" viewBox="0 0 11 11" fill="none" xmlns="http://www.w3.org/2000/svg">
<path d="M10.0153 0.177788L5.50057 4.69255L0.985809 0.177788C0.877222 0.0784208 0.734484 0.0247806 0.587331 0.0280411C0.440177 0.0313016 0.299955 0.0912117 0.195877 0.19529C0.0917978 0.299369 0.0318877 0.439591 0.0286272 0.586744C0.0253667 0.733898 0.079007 0.876636 0.178374 0.985223L4.69085 5.49999L0.177229 10.0136C0.122085 10.0662 0.078004 10.1292 0.047576 10.199C0.017148 10.2689 0.000987167 10.3441 4.38287e-05 10.4202C-0.000899509 10.4964 0.0133936 10.572 0.0420828 10.6426C0.070772 10.7131 0.113278 10.7773 0.167103 10.8312C0.220928 10.8851 0.284985 10.9277 0.35551 10.9564C0.426034 10.9852 0.501602 10.9996 0.577771 10.9988C0.65394 10.998 0.729174 10.9819 0.79905 10.9516C0.868926 10.9212 0.932034 10.8773 0.984664 10.8222L5.50057 6.30857L10.0153 10.8233C10.1239 10.9227 10.2667 10.9763 10.4138 10.9731C10.561 10.9698 10.7012 10.9099 10.8053 10.8058C10.9093 10.7017 10.9693 10.5615 10.9725 10.4144C10.9758 10.2672 10.9221 10.1245 10.8228 10.0159L6.30801 5.50113L10.8228 0.985223C10.8779 0.932671 10.922 0.869626 10.9524 0.799793C10.9829 0.72996 10.999 0.654749 11 0.578581C11.0009 0.502413 10.9866 0.426825 10.9579 0.35626C10.9292 0.285695 10.8867 0.221577 10.8329 0.167676C10.7791 0.113775 10.715 0.0711774 10.6445 0.0423882C10.574 0.013599 10.4984 -0.000801003 10.4222 3.43708e-05C10.3461 0.000869744 10.2708 0.0169238 10.201 0.0472528C10.1311 0.0775818 10.068 0.121574 10.0153 0.176642V0.177788Z" fill="#242424"/>
</svg>
