<svg width="14" height="8" viewBox="0 0 14 8" fill="none" xmlns="http://www.w3.org/2000/svg">
<path fill-rule="evenodd" clip-rule="evenodd" d="M0.158175 0.167835C0.208187 0.114634 0.2676 0.0724241 0.33301 0.0436241C0.398421 0.0148241 0.468543 0 0.539361 0C0.610179 0 0.680301 0.0148241 0.745711 0.0436241C0.811122 0.0724241 0.870534 0.114634 0.920547 0.167835L7.00014 6.6199L13.0797 0.167835C13.1298 0.11472 13.1892 0.0725863 13.2546 0.0438404C13.32 0.0150945 13.3901 0.000299105 13.4609 0.000299105C13.5317 0.000299105 13.6018 0.0150945 13.6672 0.0438404C13.7326 0.0725863 13.7921 0.11472 13.8421 0.167835C13.8922 0.220951 13.9319 0.284008 13.959 0.353407C13.9861 0.422806 14 0.497187 14 0.572304C14 0.64742 13.9861 0.721802 13.959 0.791201C13.9319 0.860599 13.8922 0.923657 13.8421 0.976772L7.38133 7.83216C7.33132 7.88537 7.2719 7.92758 7.20649 7.95638C7.14108 7.98518 7.07096 8 7.00014 8C6.92932 8 6.8592 7.98518 6.79379 7.95638C6.72838 7.92758 6.66897 7.88537 6.61896 7.83216L0.158175 0.976772C0.108036 0.923705 0.0682557 0.860663 0.0411135 0.791258C0.0139713 0.721852 0 0.647447 0 0.572304C0 0.49716 0.0139713 0.422755 0.0411135 0.35335C0.0682557 0.283944 0.108036 0.220903 0.158175 0.167835Z" fill="#242424"/>
</svg>
