<svg width="861" height="453" viewBox="0 0 861 453" fill="none" xmlns="http://www.w3.org/2000/svg">
<path d="M547.4 382.1C543.8 382.1 540.2 380.8 537.3 378.3C537 378.1 536.8 377.8 536.5 377.6C534.6 375.9 532.2 373.8 528.7 373.1C518.1 370.9 506.8 373.6 500 375.3C494.6 376.6 492.2 377.2 490.9 374.9C490.1 373.5 489.6 372 489.1 370.6C488.1 367.6 487.5 366.3 486.6 365.9C486.9 366.8 487.3 367.9 487.6 368.7C489 372.6 490.3 376.3 487.9 378.5C485.2 380.9 476.9 377.8 475.2 376C474.2 374.9 474.3 373.5 474.5 369.8C474.7 367.5 475.1 361.3 474.1 360.1C472.6 359.1 467.9 364.7 465.9 367C463.1 370.3 461.4 372.2 459.5 372.7C455.4 373.7 451.1 369.2 446.5 364.4C445.1 363 443.2 361 442 360C441.9 360.4 441.8 360.8 441.7 361.1C441.3 362.8 440.7 364.9 439.2 366.7C437.5 368.8 435.5 369.1 434.1 368.9C429.7 368.5 424.9 363.1 418.6 351.6C418.5 351.5 410 337.6 399.9 335.6C396.5 334.9 393.5 335.7 390.5 337.9L390.2 338.1C383.6 343.5 379.9 345.1 377.2 343.6C376 342.9 374.8 341.4 375.3 337.9C375.4 337.6 375.4 337.4 375.4 337.2C374.9 337.1 374.1 337 373.4 337C369.9 336.7 364.1 336.3 360 329.4C353.5 318.5 348.3 312.6 339.1 312.6C329.3 312.6 321 309.6 317.2 306.7C313.7 304 312.4 300.5 311.1 297.1C309.9 294.1 308.8 291.2 306.1 288.8C303.1 286.2 296.4 284.7 289.3 283.1C282.4 281.5 274.5 279.7 268.3 276.5C263.2 273.8 258.9 268.1 254.3 262.1C248.8 254.9 242.6 246.6 234 242.7C233.3 242.5 230.7 243.4 229.3 243.9C226.5 244.9 223.9 245.8 221.7 245.1C218.9 244.3 216.9 241.3 214.6 237.8C212 233.8 208.9 229.2 205.4 229.4C202.5 229.5 202.1 230.2 201.2 231.9C200.5 233.2 199.5 235.1 197.2 236.4C193.3 238.7 190.1 236.1 186.7 233.4C184.3 231.5 181.4 229.2 177.4 227.4C174.9 226.3 172.9 225.9 170.5 225.5C167.8 225 164.6 224.4 159.9 222.7C154.4 220.7 139.1 215.2 134.8 214.5C133.4 214.3 134.6 210.2 136 210.4C140.6 211.1 155.8 215.8 161.7 218C166.1 219.6 168.9 220.1 171.5 220.6C174 221.1 176.5 221.5 179.5 222.9C184.1 225 187.5 227.6 189.9 229.5C193 231.9 194 232.6 194.8 232.1C195.9 231.5 196.3 230.7 196.9 229.6C198 227.5 199.6 224.7 205.3 224.4C205.4 224.4 205.5 224.4 205.7 224.4C211.8 224.4 215.7 230.3 218.9 235C220.3 237.1 222.2 240 223.2 240.3C223.9 240.5 226.3 239.7 227.7 239.1C230.6 238.1 233.7 237 236.1 238.1C245.8 242.5 252.4 251.3 258.3 259C262.5 264.5 266.5 269.8 270.6 272C276.2 275 283.4 276.6 290.4 278.2C298.5 280 305.4 281.6 309.4 285.1C313.1 288.3 314.5 292.1 315.8 295.4C316.9 298.4 317.9 300.9 320.3 302.8C322.5 304.5 329.2 307.7 339.1 307.7C351.8 307.7 358.5 317.2 364.3 327C367.1 331.7 370.6 332 373.8 332.2C375.9 332.4 378.1 332.5 379.5 334.3C380.4 335.4 380.7 337 380.3 338.9V339C381.4 338.5 383.4 337.4 387 334.4C387.2 334.2 387.3 334.1 387.4 334.1C391.5 331 396.1 329.9 400.9 330.9C413.3 333.6 422.8 349.3 422.8 349.4C430.3 363.1 433.7 364.1 434.4 364.2C434.5 364.2 434.7 364.2 435.2 363.7C436 362.7 436.4 361.3 436.7 360C437.2 358.1 437.8 355.9 440 355C442.9 353.8 445.7 356.7 449.9 361.1C452 363.3 456.4 367.9 458 368C458.8 367.5 460.5 365.5 461.8 364C465.9 359.2 471.4 352.7 476.7 356.2C479.8 358.3 479.7 363.6 479.2 370.3C479.1 371.2 479.1 372.4 479 373.1C480.1 373.7 482.3 374.4 483.7 374.6C483.5 373.5 482.8 371.8 482.4 370.7C481.2 367.4 480.3 364.8 481.4 362.8C481.9 361.9 482.7 361.4 483.7 361.2C490.2 359.9 492.1 365.5 493.4 369.2C493.7 370.1 494 370.9 494.3 371.7C495.3 371.5 496.9 371.1 498.3 370.8C505.5 369.1 517.5 366.2 529.2 368.6C534 369.6 537.2 372.4 539.3 374.3C539.6 374.5 539.8 374.8 540.1 375C543.4 377.8 547.1 378 549.6 377.2C551.3 376.7 552.5 375.6 552.8 374.4C553 373.8 553.1 373.3 550.2 372.4C549.9 372.3 549.7 372.3 549.5 372.2C545.9 371 544.7 367.9 545.1 365.4C545.6 362.4 548.1 360.2 550.9 360.2C552.3 360.2 554.2 361.1 559.1 363.5C560.4 364.1 562.2 365 563.5 365.6C563.5 365 563.4 364.3 563.3 363.8C562.9 361.2 562.3 357.2 565.9 354.6C571.4 350.6 575.2 354.4 577.2 356.5C578.2 357.5 579.2 358.6 579.9 358.5C580.2 358.5 581.5 358.2 583.9 355.1C584.5 354.3 585.9 352.6 587.9 352.9C589.8 353.2 590.5 355 590.9 356.2C591.1 356.6 591.3 357.4 591.6 357.6C593.3 358.7 596.9 357.4 600.2 356.2C602.8 355.3 605.5 354.3 608 354.2C617.2 353.8 645.3 354.6 654.4 363.3C656.5 365.3 670.3 375.4 670.3 377.9C670.3 379.3 672.8 381.9 671.4 381.9C670 381.9 669.7 385.4 667.5 381.3C667 380.3 652 367.9 651 366.8C643.8 359.9 618.6 358.6 608.2 359.1C606.5 359.2 604.1 360 601.9 360.8C597.6 362.3 592.7 364.1 588.9 361.6C588 361 587.4 360.1 587 359.3C584.7 362 582.6 363.3 580.4 363.4C577.4 363.6 575.5 361.6 573.9 359.9C571.6 357.5 570.9 357.2 569 358.5C568 359.2 568 360.2 568.4 362.9C568.8 365.3 569.3 368.5 566.5 370.5C564.9 371.7 563.2 370.9 557.1 367.9C555 366.9 551.9 365.4 550.9 365.1C550.5 365.2 550.2 365.7 550.1 366.1C550 366.5 550.1 367 551.1 367.4C551.2 367.4 551.4 367.5 551.6 367.5C556.6 369 558.7 371.6 557.7 375.5C557 378.4 554.6 380.8 551.1 381.8C550.2 381.9 548.8 382.1 547.4 382.1Z" fill="#F3BD48"/>
<path d="M394.587 117.252V106.739H399.123C400.294 106.739 401.2 106.974 401.841 107.445C402.492 107.916 402.817 108.581 402.817 109.442C402.817 110.013 402.682 110.494 402.412 110.884C402.151 111.275 401.791 111.57 401.33 111.77C400.88 111.97 400.384 112.071 399.844 112.071L400.099 111.71C400.77 111.71 401.345 111.815 401.826 112.026C402.317 112.226 402.697 112.531 402.967 112.942C403.238 113.342 403.373 113.843 403.373 114.444C403.373 115.335 403.042 116.025 402.382 116.516C401.731 117.007 400.745 117.252 399.423 117.252H394.587ZM395.698 116.336H399.408C400.329 116.336 401.035 116.181 401.526 115.87C402.016 115.55 402.262 115.044 402.262 114.353C402.262 113.673 402.016 113.177 401.526 112.867C401.035 112.546 400.329 112.386 399.408 112.386H395.578V111.47H399.048C399.889 111.47 400.539 111.31 401 110.989C401.471 110.669 401.706 110.193 401.706 109.563C401.706 108.922 401.471 108.446 401 108.136C400.539 107.815 399.889 107.655 399.048 107.655H395.698V116.336ZM405.684 117.252V109.367H406.706V111.515L406.6 111.139C406.821 110.539 407.191 110.083 407.712 109.773C408.232 109.452 408.878 109.292 409.649 109.292V110.328C409.609 110.328 409.569 110.328 409.529 110.328C409.489 110.318 409.449 110.313 409.409 110.313C408.578 110.313 407.927 110.569 407.456 111.079C406.986 111.58 406.751 112.296 406.751 113.227V117.252H405.684ZM414.735 117.327C413.975 117.327 413.289 117.157 412.678 116.816C412.077 116.466 411.602 115.99 411.251 115.39C410.901 114.779 410.726 114.083 410.726 113.302C410.726 112.511 410.901 111.815 411.251 111.215C411.602 110.614 412.077 110.143 412.678 109.803C413.279 109.462 413.965 109.292 414.735 109.292C415.516 109.292 416.207 109.462 416.808 109.803C417.419 110.143 417.894 110.614 418.235 111.215C418.585 111.815 418.76 112.511 418.76 113.302C418.76 114.083 418.585 114.779 418.235 115.39C417.894 115.99 417.419 116.466 416.808 116.816C416.197 117.157 415.506 117.327 414.735 117.327ZM414.735 116.381C415.306 116.381 415.812 116.256 416.252 116.005C416.693 115.745 417.038 115.385 417.289 114.924C417.549 114.454 417.679 113.913 417.679 113.302C417.679 112.681 417.549 112.141 417.289 111.68C417.038 111.22 416.693 110.864 416.252 110.614C415.812 110.354 415.311 110.223 414.75 110.223C414.19 110.223 413.689 110.354 413.249 110.614C412.808 110.864 412.458 111.22 412.197 111.68C411.937 112.141 411.807 112.681 411.807 113.302C411.807 113.913 411.937 114.454 412.197 114.924C412.458 115.385 412.808 115.745 413.249 116.005C413.689 116.256 414.185 116.381 414.735 116.381ZM424.076 117.327C423.325 117.327 422.649 117.157 422.049 116.816C421.458 116.476 420.992 116.005 420.652 115.405C420.312 114.794 420.141 114.093 420.141 113.302C420.141 112.501 420.312 111.8 420.652 111.2C420.992 110.599 421.458 110.133 422.049 109.803C422.649 109.462 423.325 109.292 424.076 109.292C424.767 109.292 425.383 109.447 425.923 109.758C426.474 110.068 426.91 110.524 427.23 111.124C427.56 111.715 427.726 112.441 427.726 113.302C427.726 114.153 427.565 114.879 427.245 115.48C426.925 116.081 426.489 116.541 425.938 116.861C425.398 117.172 424.777 117.327 424.076 117.327ZM424.151 116.381C424.712 116.381 425.213 116.256 425.653 116.005C426.104 115.745 426.454 115.385 426.704 114.924C426.965 114.454 427.095 113.913 427.095 113.302C427.095 112.681 426.965 112.141 426.704 111.68C426.454 111.22 426.104 110.864 425.653 110.614C425.213 110.354 424.712 110.223 424.151 110.223C423.601 110.223 423.105 110.354 422.664 110.614C422.224 110.864 421.873 111.22 421.613 111.68C421.353 112.141 421.223 112.681 421.223 113.302C421.223 113.913 421.353 114.454 421.613 114.924C421.873 115.385 422.224 115.745 422.664 116.005C423.105 116.256 423.601 116.381 424.151 116.381ZM427.125 117.252V114.879L427.23 113.287L427.08 111.695V106.108H428.146V117.252H427.125ZM431.176 120.241C430.805 120.241 430.45 120.181 430.11 120.06C429.779 119.94 429.494 119.76 429.254 119.52L429.749 118.724C429.949 118.914 430.165 119.059 430.395 119.159C430.635 119.269 430.901 119.324 431.191 119.324C431.541 119.324 431.842 119.224 432.092 119.024C432.352 118.834 432.598 118.493 432.828 118.003L433.339 116.846L433.459 116.681L436.703 109.367H437.754L433.804 118.198C433.584 118.709 433.339 119.114 433.068 119.415C432.808 119.715 432.523 119.925 432.212 120.045C431.902 120.176 431.556 120.241 431.176 120.241ZM433.278 117.477L429.644 109.367H430.755L433.969 116.606L433.278 117.477Z" fill="white"/>
<path d="M494.88 174.727V164.214H498.815C499.706 164.214 500.472 164.359 501.113 164.649C501.753 164.93 502.244 165.34 502.585 165.881C502.935 166.411 503.11 167.057 503.11 167.818C503.11 168.559 502.935 169.2 502.585 169.74C502.244 170.271 501.753 170.682 501.113 170.972C500.472 171.262 499.706 171.407 498.815 171.407H495.496L495.991 170.882V174.727H494.88ZM495.991 170.972L495.496 170.431H498.785C499.836 170.431 500.632 170.206 501.173 169.755C501.723 169.295 501.999 168.649 501.999 167.818C501.999 166.977 501.723 166.326 501.173 165.866C500.632 165.405 499.836 165.175 498.785 165.175H495.496L495.991 164.649V170.972ZM508.458 174.802C507.697 174.802 507.011 174.631 506.4 174.291C505.8 173.941 505.324 173.465 504.974 172.864C504.623 172.254 504.448 171.558 504.448 170.777C504.448 169.986 504.623 169.29 504.974 168.689C505.324 168.088 505.8 167.618 506.4 167.277C507.001 166.937 507.687 166.767 508.458 166.767C509.239 166.767 509.93 166.937 510.53 167.277C511.141 167.618 511.617 168.088 511.957 168.689C512.308 169.29 512.483 169.986 512.483 170.777C512.483 171.558 512.308 172.254 511.957 172.864C511.617 173.465 511.141 173.941 510.53 174.291C509.92 174.631 509.229 174.802 508.458 174.802ZM508.458 173.855C509.029 173.855 509.534 173.73 509.975 173.48C510.415 173.22 510.761 172.859 511.011 172.399C511.271 171.928 511.401 171.387 511.401 170.777C511.401 170.156 511.271 169.615 511.011 169.155C510.761 168.694 510.415 168.339 509.975 168.088C509.534 167.828 509.034 167.698 508.473 167.698C507.912 167.698 507.412 167.828 506.971 168.088C506.531 168.339 506.18 168.694 505.92 169.155C505.659 169.615 505.529 170.156 505.529 170.777C505.529 171.387 505.659 171.928 505.92 172.399C506.18 172.859 506.531 173.22 506.971 173.48C507.412 173.73 507.907 173.855 508.458 173.855ZM514.735 174.727V163.583H515.801V174.727H514.735ZM513.699 171.077L513.203 170.431L516.837 167.698L517.318 168.359L513.699 171.077ZM522.068 174.802C521.307 174.802 520.622 174.631 520.011 174.291C519.41 173.941 518.934 173.465 518.584 172.864C518.234 172.254 518.058 171.558 518.058 170.777C518.058 169.986 518.234 169.29 518.584 168.689C518.934 168.088 519.41 167.618 520.011 167.277C520.612 166.937 521.297 166.767 522.068 166.767C522.849 166.767 523.54 166.937 524.141 167.277C524.752 167.618 525.227 168.088 525.568 168.689C525.918 169.29 526.093 169.986 526.093 170.777C526.093 171.558 525.918 172.254 525.568 172.864C525.227 173.465 524.752 173.941 524.141 174.291C523.53 174.631 522.839 174.802 522.068 174.802ZM522.068 173.855C522.639 173.855 523.145 173.73 523.585 173.48C524.026 173.22 524.371 172.859 524.621 172.399C524.882 171.928 525.012 171.387 525.012 170.777C525.012 170.156 524.882 169.615 524.621 169.155C524.371 168.694 524.026 168.339 523.585 168.088C523.145 167.828 522.644 167.698 522.083 167.698C521.523 167.698 521.022 167.828 520.581 168.088C520.141 168.339 519.791 168.694 519.53 169.155C519.27 169.615 519.14 170.156 519.14 170.777C519.14 171.387 519.27 171.928 519.53 172.399C519.791 172.859 520.141 173.22 520.581 173.48C521.022 173.73 521.518 173.855 522.068 173.855ZM532.295 166.767C532.936 166.767 533.497 166.892 533.977 167.142C534.468 167.383 534.848 167.753 535.119 168.254C535.399 168.754 535.539 169.385 535.539 170.146V174.727H534.473V170.251C534.473 169.42 534.263 168.794 533.842 168.374C533.432 167.943 532.851 167.728 532.1 167.728C531.539 167.728 531.049 167.843 530.628 168.073C530.218 168.294 529.897 168.619 529.667 169.05C529.447 169.47 529.336 169.981 529.336 170.581V174.727H528.27V166.842H529.291V169.005L529.126 168.599C529.377 168.028 529.777 167.583 530.328 167.262C530.878 166.932 531.534 166.767 532.295 166.767ZM542.444 166.767C543.085 166.767 543.646 166.892 544.126 167.142C544.617 167.383 544.997 167.753 545.268 168.254C545.548 168.754 545.688 169.385 545.688 170.146V174.727H544.622V170.251C544.622 169.42 544.412 168.794 543.991 168.374C543.581 167.943 543 167.728 542.249 167.728C541.688 167.728 541.198 167.843 540.777 168.073C540.367 168.294 540.046 168.619 539.816 169.05C539.596 169.47 539.486 169.981 539.486 170.581V174.727H538.419V166.842H539.441V169.005L539.275 168.599C539.526 168.028 539.926 167.583 540.477 167.262C541.028 166.932 541.683 166.767 542.444 166.767ZM551.918 174.802C551.097 174.802 550.376 174.631 549.755 174.291C549.134 173.941 548.649 173.465 548.298 172.864C547.948 172.254 547.773 171.558 547.773 170.777C547.773 169.996 547.938 169.305 548.268 168.704C548.609 168.103 549.069 167.633 549.65 167.292C550.241 166.942 550.901 166.767 551.632 166.767C552.373 166.767 553.029 166.937 553.6 167.277C554.18 167.608 554.636 168.078 554.966 168.689C555.297 169.29 555.462 169.986 555.462 170.777C555.462 170.827 555.457 170.882 555.447 170.942C555.447 170.992 555.447 171.047 555.447 171.107H548.584V170.311H554.876L554.456 170.627C554.456 170.056 554.331 169.55 554.08 169.11C553.84 168.659 553.51 168.309 553.089 168.058C552.669 167.808 552.183 167.683 551.632 167.683C551.092 167.683 550.606 167.808 550.175 168.058C549.745 168.309 549.41 168.659 549.169 169.11C548.929 169.56 548.809 170.076 548.809 170.657V170.822C548.809 171.423 548.939 171.953 549.199 172.414C549.47 172.864 549.84 173.22 550.311 173.48C550.791 173.73 551.337 173.855 551.948 173.855C552.428 173.855 552.874 173.77 553.284 173.6C553.705 173.43 554.065 173.17 554.366 172.819L554.966 173.51C554.616 173.931 554.175 174.251 553.645 174.471C553.124 174.692 552.548 174.802 551.918 174.802Z" fill="white"/>
<path d="M382.579 255.928V245.415H383.495L388.301 253.615H387.821L392.582 245.415H393.498V255.928H392.431V247.082H392.687L388.301 254.591H387.776L383.36 247.082H383.646V255.928H382.579ZM401.639 255.928V254.186L401.594 253.9V250.987C401.594 250.316 401.404 249.8 401.023 249.44C400.653 249.079 400.097 248.899 399.356 248.899C398.845 248.899 398.36 248.984 397.899 249.154C397.439 249.325 397.048 249.55 396.728 249.83L396.247 249.034C396.648 248.694 397.128 248.434 397.689 248.253C398.25 248.063 398.84 247.968 399.461 247.968C400.482 247.968 401.268 248.223 401.819 248.734C402.38 249.235 402.66 250 402.66 251.032V255.928H401.639ZM398.92 256.003C398.33 256.003 397.814 255.908 397.374 255.717C396.943 255.517 396.613 255.247 396.382 254.906C396.152 254.556 396.037 254.156 396.037 253.705C396.037 253.295 396.132 252.924 396.322 252.594C396.523 252.253 396.843 251.983 397.283 251.783C397.734 251.572 398.335 251.467 399.086 251.467H401.804V252.263H399.116C398.355 252.263 397.824 252.398 397.524 252.669C397.233 252.939 397.088 253.274 397.088 253.675C397.088 254.126 397.263 254.486 397.614 254.756C397.964 255.027 398.455 255.162 399.086 255.162C399.686 255.162 400.202 255.027 400.633 254.756C401.073 254.476 401.394 254.075 401.594 253.555L401.834 254.291C401.634 254.811 401.283 255.227 400.783 255.537C400.292 255.848 399.671 256.003 398.92 256.003ZM405.556 255.928V248.043H406.578V250.191L406.472 249.815C406.693 249.215 407.063 248.759 407.584 248.449C408.104 248.128 408.75 247.968 409.521 247.968V249.004C409.481 249.004 409.441 249.004 409.401 249.004C409.361 248.994 409.321 248.989 409.281 248.989C408.45 248.989 407.799 249.245 407.328 249.755C406.858 250.256 406.623 250.972 406.623 251.903V255.928H405.556ZM411.467 255.928V248.043H412.533V255.928H411.467ZM412.007 246.301C411.787 246.301 411.602 246.226 411.452 246.076C411.302 245.925 411.227 245.745 411.227 245.535C411.227 245.325 411.302 245.15 411.452 245.009C411.602 244.859 411.787 244.784 412.007 244.784C412.228 244.784 412.413 244.854 412.563 244.994C412.713 245.135 412.788 245.31 412.788 245.52C412.788 245.74 412.713 245.925 412.563 246.076C412.423 246.226 412.238 246.301 412.007 246.301ZM420.441 255.928V254.186L420.396 253.9V250.987C420.396 250.316 420.206 249.8 419.825 249.44C419.455 249.079 418.899 248.899 418.158 248.899C417.648 248.899 417.162 248.984 416.702 249.154C416.241 249.325 415.851 249.55 415.53 249.83L415.05 249.034C415.45 248.694 415.931 248.434 416.491 248.253C417.052 248.063 417.643 247.968 418.263 247.968C419.285 247.968 420.071 248.223 420.621 248.734C421.182 249.235 421.462 250 421.462 251.032V255.928H420.441ZM417.723 256.003C417.132 256.003 416.616 255.908 416.176 255.717C415.745 255.517 415.415 255.247 415.185 254.906C414.954 254.556 414.839 254.156 414.839 253.705C414.839 253.295 414.934 252.924 415.125 252.594C415.325 252.253 415.645 251.983 416.086 251.783C416.536 251.572 417.137 251.467 417.888 251.467H420.606V252.263H417.918C417.157 252.263 416.626 252.398 416.326 252.669C416.036 252.939 415.891 253.274 415.891 253.675C415.891 254.126 416.066 254.486 416.416 254.756C416.767 255.027 417.257 255.162 417.888 255.162C418.489 255.162 419.004 255.027 419.435 254.756C419.875 254.476 420.196 254.075 420.396 253.555L420.636 254.291C420.436 254.811 420.086 255.227 419.585 255.537C419.094 255.848 418.474 256.003 417.723 256.003ZM434.211 247.968C434.851 247.968 435.407 248.093 435.878 248.343C436.358 248.584 436.729 248.954 436.989 249.455C437.259 249.955 437.395 250.586 437.395 251.347V255.928H436.328V251.452C436.328 250.621 436.128 249.995 435.728 249.575C435.337 249.144 434.781 248.929 434.06 248.929C433.52 248.929 433.049 249.044 432.649 249.275C432.258 249.495 431.953 249.82 431.733 250.251C431.522 250.671 431.417 251.182 431.417 251.783V255.928H430.351V251.452C430.351 250.621 430.151 249.995 429.75 249.575C429.35 249.144 428.789 248.929 428.068 248.929C427.537 248.929 427.072 249.044 426.671 249.275C426.271 249.495 425.961 249.82 425.74 250.251C425.53 250.671 425.425 251.182 425.425 251.783V255.928H424.359V248.043H425.38V250.176L425.215 249.8C425.455 249.23 425.84 248.784 426.371 248.464C426.912 248.133 427.548 247.968 428.278 247.968C429.049 247.968 429.705 248.163 430.246 248.554C430.786 248.934 431.137 249.51 431.297 250.281L430.877 250.116C431.107 249.475 431.512 248.959 432.093 248.569C432.684 248.168 433.39 247.968 434.211 247.968ZM444.356 256.003C443.675 256.003 443.06 255.848 442.509 255.537C441.958 255.217 441.518 254.761 441.187 254.171C440.867 253.57 440.707 252.839 440.707 251.978C440.707 251.117 440.867 250.391 441.187 249.8C441.508 249.199 441.943 248.744 442.494 248.434C443.045 248.123 443.665 247.968 444.356 247.968C445.107 247.968 445.778 248.138 446.369 248.479C446.97 248.809 447.44 249.28 447.78 249.89C448.121 250.491 448.291 251.187 448.291 251.978C448.291 252.779 448.121 253.48 447.78 254.08C447.44 254.681 446.97 255.152 446.369 255.492C445.778 255.833 445.107 256.003 444.356 256.003ZM440.286 258.841V248.043H441.308V250.416L441.202 251.993L441.353 253.585V258.841H440.286ZM444.281 255.057C444.842 255.057 445.343 254.932 445.783 254.681C446.224 254.421 446.574 254.06 446.834 253.6C447.095 253.129 447.225 252.589 447.225 251.978C447.225 251.367 447.095 250.831 446.834 250.371C446.574 249.91 446.224 249.55 445.783 249.29C445.343 249.029 444.842 248.899 444.281 248.899C443.721 248.899 443.215 249.029 442.764 249.29C442.324 249.55 441.973 249.91 441.713 250.371C441.463 250.831 441.338 251.367 441.338 251.978C441.338 252.589 441.463 253.129 441.713 253.6C441.973 254.06 442.324 254.421 442.764 254.681C443.215 254.932 443.721 255.057 444.281 255.057ZM453.679 256.003C452.918 256.003 452.232 255.833 451.621 255.492C451.02 255.142 450.545 254.666 450.194 254.065C449.844 253.455 449.669 252.759 449.669 251.978C449.669 251.187 449.844 250.491 450.194 249.89C450.545 249.29 451.02 248.819 451.621 248.479C452.222 248.138 452.908 247.968 453.679 247.968C454.46 247.968 455.151 248.138 455.751 248.479C456.362 248.819 456.838 249.29 457.178 249.89C457.528 250.491 457.704 251.187 457.704 251.978C457.704 252.759 457.528 253.455 457.178 254.065C456.838 254.666 456.362 255.142 455.751 255.492C455.141 255.833 454.45 256.003 453.679 256.003ZM453.679 255.057C454.249 255.057 454.755 254.932 455.196 254.681C455.636 254.421 455.982 254.06 456.232 253.6C456.492 253.129 456.622 252.589 456.622 251.978C456.622 251.357 456.492 250.816 456.232 250.356C455.982 249.895 455.636 249.54 455.196 249.29C454.755 249.029 454.254 248.899 453.694 248.899C453.133 248.899 452.632 249.029 452.192 249.29C451.751 249.54 451.401 249.895 451.141 250.356C450.88 250.816 450.75 251.357 450.75 251.978C450.75 252.589 450.88 253.129 451.141 253.6C451.401 254.06 451.751 254.421 452.192 254.681C452.632 254.932 453.128 255.057 453.679 255.057ZM459.881 255.928V244.784H460.947V255.928H459.881Z" fill="white"/>
<path d="M324.329 385.555C323.548 385.555 322.798 385.43 322.077 385.179C321.366 384.919 320.815 384.589 320.425 384.188L320.86 383.332C321.231 383.693 321.726 383.998 322.347 384.248C322.978 384.489 323.639 384.609 324.329 384.609C324.99 384.609 325.526 384.529 325.936 384.369C326.357 384.198 326.662 383.973 326.852 383.693C327.053 383.412 327.153 383.102 327.153 382.762C327.153 382.351 327.033 382.021 326.792 381.77C326.562 381.52 326.257 381.325 325.876 381.185C325.496 381.034 325.075 380.904 324.615 380.794C324.154 380.684 323.694 380.569 323.233 380.449C322.772 380.319 322.347 380.148 321.956 379.938C321.576 379.728 321.266 379.452 321.025 379.112C320.795 378.762 320.68 378.306 320.68 377.745C320.68 377.225 320.815 376.749 321.085 376.319C321.366 375.878 321.791 375.528 322.362 375.267C322.933 374.997 323.664 374.862 324.555 374.862C325.145 374.862 325.731 374.947 326.312 375.117C326.893 375.277 327.393 375.503 327.814 375.793L327.438 376.679C326.988 376.379 326.507 376.158 325.996 376.018C325.496 375.878 325.01 375.808 324.54 375.808C323.909 375.808 323.388 375.893 322.978 376.063C322.567 376.234 322.262 376.464 322.062 376.754C321.871 377.035 321.776 377.355 321.776 377.715C321.776 378.126 321.891 378.456 322.122 378.707C322.362 378.957 322.672 379.152 323.053 379.292C323.443 379.432 323.869 379.558 324.329 379.668C324.79 379.778 325.246 379.898 325.696 380.028C326.157 380.158 326.577 380.329 326.958 380.539C327.348 380.739 327.658 381.009 327.889 381.35C328.129 381.69 328.249 382.136 328.249 382.686C328.249 383.197 328.109 383.673 327.829 384.113C327.548 384.544 327.118 384.894 326.537 385.164C325.966 385.425 325.231 385.555 324.329 385.555ZM332.938 385.54C332.198 385.54 331.627 385.34 331.226 384.939C330.826 384.539 330.626 383.973 330.626 383.242V375.838H331.692V383.182C331.692 383.643 331.807 383.998 332.037 384.248C332.278 384.499 332.618 384.624 333.059 384.624C333.529 384.624 333.92 384.489 334.23 384.218L334.606 384.984C334.395 385.174 334.14 385.315 333.84 385.405C333.549 385.495 333.249 385.54 332.938 385.54ZM329.214 378.466V377.58H334.095V378.466H329.214ZM341.488 385.465V383.723L341.443 383.437V380.524C341.443 379.853 341.252 379.337 340.872 378.977C340.501 378.616 339.946 378.436 339.205 378.436C338.694 378.436 338.209 378.521 337.748 378.692C337.288 378.862 336.897 379.087 336.577 379.367L336.096 378.571C336.497 378.231 336.977 377.971 337.538 377.79C338.099 377.6 338.689 377.505 339.31 377.505C340.331 377.505 341.117 377.76 341.668 378.271C342.229 378.772 342.509 379.538 342.509 380.569V385.465H341.488ZM338.769 385.54C338.179 385.54 337.663 385.445 337.222 385.255C336.792 385.054 336.462 384.784 336.231 384.444C336.001 384.093 335.886 383.693 335.886 383.242C335.886 382.832 335.981 382.461 336.171 382.131C336.371 381.79 336.692 381.52 337.132 381.32C337.583 381.11 338.184 381.004 338.935 381.004H341.653V381.8H338.965C338.204 381.8 337.673 381.936 337.373 382.206C337.082 382.476 336.937 382.812 336.937 383.212C336.937 383.663 337.112 384.023 337.463 384.293C337.813 384.564 338.304 384.699 338.935 384.699C339.535 384.699 340.051 384.564 340.481 384.293C340.922 384.013 341.242 383.613 341.443 383.092L341.683 383.828C341.483 384.348 341.132 384.764 340.632 385.074C340.141 385.385 339.52 385.54 338.769 385.54ZM349.43 377.505C350.071 377.505 350.632 377.63 351.112 377.881C351.603 378.121 351.983 378.491 352.254 378.992C352.534 379.493 352.674 380.123 352.674 380.884V385.465H351.608V380.989C351.608 380.158 351.397 379.533 350.977 379.112C350.566 378.682 349.986 378.466 349.235 378.466C348.674 378.466 348.184 378.581 347.763 378.812C347.353 379.032 347.032 379.357 346.802 379.788C346.582 380.208 346.471 380.719 346.471 381.32V385.465H345.405V377.58H346.426V379.743L346.261 379.337C346.511 378.767 346.912 378.321 347.463 378.001C348.013 377.67 348.669 377.505 349.43 377.505ZM355.554 385.465V377.58H356.621V385.465H355.554ZM356.095 375.838C355.875 375.838 355.689 375.763 355.539 375.613C355.389 375.463 355.314 375.282 355.314 375.072C355.314 374.862 355.389 374.687 355.539 374.546C355.689 374.396 355.875 374.321 356.095 374.321C356.315 374.321 356.5 374.391 356.651 374.531C356.801 374.672 356.876 374.847 356.876 375.057C356.876 375.277 356.801 375.463 356.651 375.613C356.51 375.763 356.325 375.838 356.095 375.838ZM361.705 385.54C361.054 385.54 360.439 385.45 359.858 385.27C359.277 385.079 358.822 384.844 358.491 384.564L358.972 383.723C359.292 383.963 359.703 384.173 360.203 384.353C360.704 384.524 361.23 384.609 361.78 384.609C362.531 384.609 363.072 384.494 363.402 384.263C363.733 384.023 363.898 383.708 363.898 383.317C363.898 383.027 363.803 382.802 363.612 382.641C363.432 382.471 363.192 382.346 362.892 382.266C362.591 382.176 362.256 382.101 361.885 382.041C361.515 381.981 361.144 381.91 360.774 381.83C360.414 381.75 360.083 381.635 359.783 381.485C359.482 381.325 359.237 381.11 359.047 380.839C358.867 380.569 358.777 380.208 358.777 379.758C358.777 379.327 358.897 378.942 359.137 378.601C359.377 378.261 359.728 377.996 360.188 377.805C360.659 377.605 361.23 377.505 361.9 377.505C362.411 377.505 362.922 377.575 363.432 377.715C363.943 377.846 364.363 378.021 364.694 378.241L364.228 379.097C363.878 378.857 363.502 378.687 363.102 378.586C362.701 378.476 362.301 378.421 361.9 378.421C361.19 378.421 360.664 378.546 360.323 378.797C359.993 379.037 359.828 379.347 359.828 379.728C359.828 380.028 359.918 380.263 360.098 380.434C360.288 380.604 360.534 380.739 360.834 380.839C361.144 380.929 361.48 381.004 361.84 381.064C362.211 381.125 362.576 381.2 362.937 381.29C363.307 381.37 363.643 381.485 363.943 381.635C364.253 381.775 364.499 381.981 364.679 382.251C364.869 382.511 364.964 382.857 364.964 383.287C364.964 383.748 364.834 384.148 364.574 384.489C364.323 384.819 363.953 385.079 363.462 385.27C362.982 385.45 362.396 385.54 361.705 385.54ZM366.996 385.465V374.321H368.062V385.465H366.996ZM365.96 381.815L365.464 381.17L369.098 378.436L369.579 379.097L365.96 381.815ZM376.056 385.465V383.723L376.011 383.437V380.524C376.011 379.853 375.821 379.337 375.441 378.977C375.07 378.616 374.515 378.436 373.774 378.436C373.263 378.436 372.777 378.521 372.317 378.692C371.856 378.862 371.466 379.087 371.145 379.367L370.665 378.571C371.065 378.231 371.546 377.971 372.107 377.79C372.667 377.6 373.258 377.505 373.879 377.505C374.9 377.505 375.686 377.76 376.237 378.271C376.797 378.772 377.078 379.538 377.078 380.569V385.465H376.056ZM373.338 385.54C372.747 385.54 372.232 385.445 371.791 385.255C371.361 385.054 371.03 384.784 370.8 384.444C370.57 384.093 370.455 383.693 370.455 383.242C370.455 382.832 370.55 382.461 370.74 382.131C370.94 381.79 371.261 381.52 371.701 381.32C372.152 381.11 372.752 381.004 373.503 381.004H376.222V381.8H373.533C372.772 381.8 372.242 381.936 371.941 382.206C371.651 382.476 371.506 382.812 371.506 383.212C371.506 383.663 371.681 384.023 372.031 384.293C372.382 384.564 372.873 384.699 373.503 384.699C374.104 384.699 374.62 384.564 375.05 384.293C375.491 384.013 375.811 383.613 376.011 383.092L376.252 383.828C376.051 384.348 375.701 384.764 375.2 385.074C374.71 385.385 374.089 385.54 373.338 385.54ZM381.434 385.465L378.461 377.58H379.482L382.185 384.894H381.72L384.498 377.58H385.414L388.162 384.894H387.697L390.445 377.58H391.421L388.433 385.465H387.427L384.783 378.586H385.099L382.44 385.465H381.434ZM396.021 385.54C395.26 385.54 394.574 385.37 393.963 385.029C393.363 384.679 392.887 384.203 392.537 383.603C392.186 382.992 392.011 382.296 392.011 381.515C392.011 380.724 392.186 380.028 392.537 379.427C392.887 378.827 393.363 378.356 393.963 378.016C394.564 377.675 395.25 377.505 396.021 377.505C396.802 377.505 397.493 377.675 398.093 378.016C398.704 378.356 399.18 378.827 399.52 379.427C399.871 380.028 400.046 380.724 400.046 381.515C400.046 382.296 399.871 382.992 399.52 383.603C399.18 384.203 398.704 384.679 398.093 385.029C397.483 385.37 396.792 385.54 396.021 385.54ZM396.021 384.594C396.592 384.594 397.097 384.469 397.538 384.218C397.978 383.958 398.324 383.598 398.574 383.137C398.834 382.666 398.965 382.126 398.965 381.515C398.965 380.894 398.834 380.354 398.574 379.893C398.324 379.432 397.978 379.077 397.538 378.827C397.097 378.566 396.597 378.436 396.036 378.436C395.475 378.436 394.975 378.566 394.534 378.827C394.094 379.077 393.743 379.432 393.483 379.893C393.222 380.354 393.092 380.894 393.092 381.515C393.092 382.126 393.222 382.666 393.483 383.137C393.743 383.598 394.094 383.958 394.534 384.218C394.975 384.469 395.47 384.594 396.021 384.594ZM395.045 376.349L397.102 374.486H398.529L396.096 376.349H395.045ZM403.61 385.465L400.636 377.58H401.657L404.361 384.894H403.895L406.674 377.58H407.59L410.338 384.894H409.872L412.621 377.58H413.597L410.608 385.465H409.602L406.959 378.586H407.274L404.616 385.465H403.61Z" fill="white"/>
<path d="M280.146 448.25V437.737H284.681C285.853 437.737 286.759 437.972 287.4 438.443C288.05 438.914 288.376 439.579 288.376 440.44C288.376 441.011 288.241 441.492 287.97 441.882C287.71 442.273 287.35 442.568 286.889 442.768C286.438 442.969 285.943 443.069 285.402 443.069L285.657 442.708C286.328 442.708 286.904 442.813 287.385 443.024C287.875 443.224 288.256 443.529 288.526 443.94C288.796 444.34 288.931 444.841 288.931 445.442C288.931 446.333 288.601 447.023 287.94 447.514C287.289 448.005 286.303 448.25 284.982 448.25H280.146ZM281.257 447.334H284.967C285.888 447.334 286.594 447.179 287.084 446.868C287.575 446.548 287.82 446.042 287.82 445.351C287.82 444.671 287.575 444.175 287.084 443.865C286.594 443.544 285.888 443.384 284.967 443.384H281.137V442.468H284.606C285.447 442.468 286.098 442.308 286.559 441.987C287.029 441.667 287.264 441.191 287.264 440.561C287.264 439.92 287.029 439.444 286.559 439.134C286.098 438.813 285.447 438.653 284.606 438.653H281.257V447.334ZM294.457 448.325C293.696 448.325 293.01 448.155 292.399 447.814C291.799 447.464 291.323 446.988 290.973 446.388C290.622 445.777 290.447 445.081 290.447 444.3C290.447 443.509 290.622 442.813 290.973 442.213C291.323 441.612 291.799 441.141 292.399 440.801C293 440.46 293.686 440.29 294.457 440.29C295.238 440.29 295.929 440.46 296.529 440.801C297.14 441.141 297.616 441.612 297.956 442.213C298.307 442.813 298.482 443.509 298.482 444.3C298.482 445.081 298.307 445.777 297.956 446.388C297.616 446.988 297.14 447.464 296.529 447.814C295.919 448.155 295.228 448.325 294.457 448.325ZM294.457 447.379C295.028 447.379 295.533 447.254 295.974 447.003C296.414 446.743 296.76 446.383 297.01 445.922C297.27 445.452 297.4 444.911 297.4 444.3C297.4 443.679 297.27 443.139 297.01 442.678C296.76 442.218 296.414 441.862 295.974 441.612C295.533 441.352 295.033 441.221 294.472 441.221C293.911 441.221 293.411 441.352 292.97 441.612C292.529 441.862 292.179 442.218 291.919 442.678C291.658 443.139 291.528 443.679 291.528 444.3C291.528 444.911 291.658 445.452 291.919 445.922C292.179 446.383 292.529 446.743 292.97 447.003C293.411 447.254 293.906 447.379 294.457 447.379ZM304.684 440.29C305.324 440.29 305.885 440.415 306.366 440.666C306.856 440.906 307.237 441.276 307.507 441.777C307.787 442.278 307.928 442.908 307.928 443.669V448.25H306.861V443.775C306.861 442.943 306.651 442.318 306.231 441.897C305.82 441.467 305.239 441.251 304.488 441.251C303.928 441.251 303.437 441.367 303.017 441.597C302.606 441.817 302.286 442.143 302.055 442.573C301.835 442.994 301.725 443.504 301.725 444.105V448.25H300.659V437.106H301.725V442.528L301.515 442.122C301.765 441.552 302.166 441.106 302.716 440.786C303.267 440.455 303.923 440.29 304.684 440.29ZM314.022 448.325C313.261 448.325 312.575 448.155 311.964 447.814C311.364 447.464 310.888 446.988 310.538 446.388C310.187 445.777 310.012 445.081 310.012 444.3C310.012 443.509 310.187 442.813 310.538 442.213C310.888 441.612 311.364 441.141 311.964 440.801C312.565 440.46 313.251 440.29 314.022 440.29C314.803 440.29 315.494 440.46 316.094 440.801C316.705 441.141 317.181 441.612 317.521 442.213C317.872 442.813 318.047 443.509 318.047 444.3C318.047 445.081 317.872 445.777 317.521 446.388C317.181 446.988 316.705 447.464 316.094 447.814C315.484 448.155 314.793 448.325 314.022 448.325ZM314.022 447.379C314.593 447.379 315.098 447.254 315.539 447.003C315.979 446.743 316.325 446.383 316.575 445.922C316.835 445.452 316.965 444.911 316.965 444.3C316.965 443.679 316.835 443.139 316.575 442.678C316.325 442.218 315.979 441.862 315.539 441.612C315.098 441.352 314.598 441.221 314.037 441.221C313.476 441.221 312.976 441.352 312.535 441.612C312.094 441.862 311.744 442.218 311.484 442.678C311.223 443.139 311.093 443.679 311.093 444.3C311.093 444.911 311.223 445.452 311.484 445.922C311.744 446.383 312.094 446.743 312.535 447.003C312.976 447.254 313.471 447.379 314.022 447.379ZM320.224 448.25V440.365H321.245V442.513L321.14 442.138C321.36 441.537 321.731 441.081 322.251 440.771C322.772 440.45 323.418 440.29 324.189 440.29V441.327C324.149 441.327 324.108 441.327 324.068 441.327C324.028 441.317 323.988 441.311 323.948 441.311C323.117 441.311 322.466 441.567 321.996 442.077C321.525 442.578 321.29 443.294 321.29 444.225V448.25H320.224ZM329.275 448.325C328.514 448.325 327.828 448.155 327.217 447.814C326.617 447.464 326.141 446.988 325.791 446.388C325.44 445.777 325.265 445.081 325.265 444.3C325.265 443.509 325.44 442.813 325.791 442.213C326.141 441.612 326.617 441.141 327.217 440.801C327.818 440.46 328.504 440.29 329.275 440.29C330.056 440.29 330.747 440.46 331.347 440.801C331.958 441.141 332.434 441.612 332.774 442.213C333.125 442.813 333.3 443.509 333.3 444.3C333.3 445.081 333.125 445.777 332.774 446.388C332.434 446.988 331.958 447.464 331.347 447.814C330.737 448.155 330.046 448.325 329.275 448.325ZM329.275 447.379C329.846 447.379 330.351 447.254 330.792 447.003C331.232 446.743 331.578 446.383 331.828 445.922C332.088 445.452 332.218 444.911 332.218 444.3C332.218 443.679 332.088 443.139 331.828 442.678C331.578 442.218 331.232 441.862 330.792 441.612C330.351 441.352 329.851 441.221 329.29 441.221C328.729 441.221 328.229 441.352 327.788 441.612C327.348 441.862 326.997 442.218 326.737 442.678C326.476 443.139 326.346 443.679 326.346 444.3C326.346 444.911 326.476 445.452 326.737 445.922C326.997 446.383 327.348 446.743 327.788 447.003C328.229 447.254 328.724 447.379 329.275 447.379ZM338.616 448.325C337.865 448.325 337.189 448.155 336.588 447.814C335.997 447.474 335.532 447.003 335.191 446.403C334.851 445.792 334.681 445.091 334.681 444.3C334.681 443.499 334.851 442.798 335.191 442.198C335.532 441.597 335.997 441.131 336.588 440.801C337.189 440.46 337.865 440.29 338.616 440.29C339.306 440.29 339.922 440.445 340.463 440.756C341.014 441.066 341.449 441.522 341.769 442.122C342.1 442.713 342.265 443.439 342.265 444.3C342.265 445.151 342.105 445.877 341.784 446.478C341.464 447.079 341.029 447.539 340.478 447.86C339.937 448.17 339.316 448.325 338.616 448.325ZM338.691 447.379C339.251 447.379 339.752 447.254 340.193 447.003C340.643 446.743 340.994 446.383 341.244 445.922C341.504 445.452 341.634 444.911 341.634 444.3C341.634 443.679 341.504 443.139 341.244 442.678C340.994 442.218 340.643 441.862 340.193 441.612C339.752 441.352 339.251 441.221 338.691 441.221C338.14 441.221 337.644 441.352 337.204 441.612C336.763 441.862 336.413 442.218 336.153 442.678C335.892 443.139 335.762 443.679 335.762 444.3C335.762 444.911 335.892 445.452 336.153 445.922C336.413 446.383 336.763 446.743 337.204 447.003C337.644 447.254 338.14 447.379 338.691 447.379ZM341.664 448.25V445.877L341.769 444.285L341.619 442.693V437.106H342.686V448.25H341.664ZM348.929 448.325C348.148 448.325 347.447 448.155 346.827 447.814C346.216 447.464 345.735 446.988 345.385 446.388C345.034 445.777 344.859 445.081 344.859 444.3C344.859 443.509 345.034 442.813 345.385 442.213C345.735 441.612 346.216 441.141 346.827 440.801C347.447 440.46 348.148 440.29 348.929 440.29C349.6 440.29 350.206 440.42 350.746 440.681C351.287 440.941 351.713 441.332 352.023 441.852L351.227 442.393C350.957 441.992 350.621 441.697 350.221 441.507C349.82 441.317 349.385 441.221 348.914 441.221C348.354 441.221 347.848 441.352 347.397 441.612C346.947 441.862 346.591 442.218 346.331 442.678C346.071 443.139 345.941 443.679 345.941 444.3C345.941 444.921 346.071 445.462 346.331 445.922C346.591 446.383 346.947 446.743 347.397 447.003C347.848 447.254 348.354 447.379 348.914 447.379C349.385 447.379 349.82 447.284 350.221 447.094C350.621 446.903 350.957 446.613 351.227 446.223L352.023 446.763C351.713 447.274 351.287 447.664 350.746 447.935C350.206 448.195 349.6 448.325 348.929 448.325ZM353.144 448.25V447.544L358.401 440.891L358.626 441.251H353.234V440.365H359.467V441.056L354.226 447.724L353.955 447.364H359.572V448.25H353.144ZM366.612 448.25V446.508L366.567 446.223V443.309C366.567 442.638 366.377 442.122 365.996 441.762C365.626 441.402 365.07 441.221 364.329 441.221C363.819 441.221 363.333 441.306 362.872 441.477C362.412 441.647 362.021 441.872 361.701 442.153L361.22 441.357C361.621 441.016 362.101 440.756 362.662 440.576C363.223 440.385 363.814 440.29 364.434 440.29C365.456 440.29 366.242 440.546 366.792 441.056C367.353 441.557 367.633 442.323 367.633 443.354V448.25H366.612ZM363.894 448.325C363.303 448.325 362.787 448.23 362.347 448.04C361.916 447.839 361.586 447.569 361.356 447.229C361.125 446.878 361.01 446.478 361.01 446.027C361.01 445.617 361.105 445.246 361.296 444.916C361.496 444.575 361.816 444.305 362.257 444.105C362.707 443.895 363.308 443.79 364.059 443.79H366.777V444.586H364.089C363.328 444.586 362.797 444.721 362.497 444.991C362.207 445.261 362.061 445.597 362.061 445.997C362.061 446.448 362.237 446.808 362.587 447.079C362.938 447.349 363.428 447.484 364.059 447.484C364.66 447.484 365.175 447.349 365.606 447.079C366.046 446.798 366.367 446.398 366.567 445.877L366.807 446.613C366.607 447.134 366.257 447.549 365.756 447.86C365.265 448.17 364.645 448.325 363.894 448.325ZM374.554 440.29C375.195 440.29 375.756 440.415 376.236 440.666C376.727 440.906 377.108 441.276 377.378 441.777C377.658 442.278 377.798 442.908 377.798 443.669V448.25H376.732V443.775C376.732 442.943 376.522 442.318 376.101 441.897C375.691 441.467 375.11 441.251 374.359 441.251C373.798 441.251 373.308 441.367 372.887 441.597C372.477 441.817 372.156 442.143 371.926 442.573C371.706 442.994 371.596 443.504 371.596 444.105V448.25H370.529V440.365H371.551V442.528L371.386 442.122C371.636 441.552 372.036 441.106 372.587 440.786C373.138 440.455 373.793 440.29 374.554 440.29ZM380.592 451.239C380.222 451.239 379.866 451.179 379.526 451.058C379.195 450.938 378.91 450.758 378.67 450.518L379.165 449.722C379.366 449.912 379.581 450.057 379.811 450.157C380.051 450.267 380.317 450.323 380.607 450.323C380.957 450.323 381.258 450.222 381.508 450.022C381.768 449.832 382.014 449.492 382.244 449.001L382.755 447.845L382.875 447.679L386.119 440.365H387.17L383.22 449.196C383 449.707 382.755 450.112 382.484 450.413C382.224 450.713 381.939 450.923 381.628 451.043C381.318 451.174 380.973 451.239 380.592 451.239ZM382.695 448.475L379.06 440.365H380.172L383.385 447.604L382.695 448.475Z" fill="white"/>
<path d="M215.012 100.584V99.818L222.311 90.6118L222.431 91.0323H215.117V90.0711H223.452V90.837L216.168 100.043L216.033 99.6228H223.632V100.584H215.012ZM219.322 88.8696C219.122 88.8696 218.952 88.7995 218.811 88.6594C218.671 88.5192 218.601 88.349 218.601 88.1487C218.601 87.9385 218.671 87.7683 218.811 87.6381C218.952 87.498 219.122 87.4279 219.322 87.4279C219.522 87.4279 219.693 87.498 219.833 87.6381C219.973 87.7683 220.043 87.9385 220.043 88.1487C220.043 88.349 219.973 88.5192 219.833 88.6594C219.693 88.7995 219.522 88.8696 219.322 88.8696ZM228.599 100.659C227.838 100.659 227.152 100.489 226.542 100.148C225.941 99.798 225.465 99.3224 225.115 98.7217C224.764 98.111 224.589 97.4151 224.589 96.6341C224.589 95.8432 224.764 95.1473 225.115 94.5466C225.465 93.9459 225.941 93.4753 226.542 93.1349C227.142 92.7944 227.828 92.6242 228.599 92.6242C229.38 92.6242 230.071 92.7944 230.672 93.1349C231.282 93.4753 231.758 93.9459 232.098 94.5466C232.449 95.1473 232.624 95.8432 232.624 96.6341C232.624 97.4151 232.449 98.111 232.098 98.7217C231.758 99.3224 231.282 99.798 230.672 100.148C230.061 100.489 229.37 100.659 228.599 100.659ZM228.599 99.7129C229.17 99.7129 229.676 99.5878 230.116 99.3375C230.557 99.0771 230.902 98.7167 231.152 98.2561C231.413 97.7856 231.543 97.2449 231.543 96.6341C231.543 96.0134 231.413 95.4727 231.152 95.0122C230.902 94.5516 230.557 94.1962 230.116 93.9459C229.676 93.6855 229.175 93.5554 228.614 93.5554C228.054 93.5554 227.553 93.6855 227.112 93.9459C226.672 94.1962 226.321 94.5516 226.061 95.0122C225.801 95.4727 225.671 96.0134 225.671 96.6341C225.671 97.2449 225.801 97.7856 226.061 98.2561C226.321 98.7167 226.672 99.0771 227.112 99.3375C227.553 99.5878 228.049 99.7129 228.599 99.7129ZM227.623 91.4678L229.681 89.6055H231.107L228.674 91.4678H227.623ZM234.876 100.584V89.4403H235.942V100.584H234.876ZM233.84 96.9345L233.344 96.2887L236.979 93.5554L237.459 94.2162L233.84 96.9345ZM239.837 98.5415L239.867 97.1748L244.778 92.6993H246.084L242.615 96.0184L242.014 96.529L239.837 98.5415ZM238.996 100.584V89.4403H240.062V100.584H238.996ZM245.108 100.584L241.819 96.484L242.51 95.6579L246.415 100.584H245.108ZM248.016 100.584V92.6993H249.082V100.584H248.016ZM248.556 90.9572C248.336 90.9572 248.151 90.8821 248.001 90.7319C247.85 90.5817 247.775 90.4015 247.775 90.1913C247.775 89.981 247.85 89.8058 248.001 89.6656C248.151 89.5154 248.336 89.4403 248.556 89.4403C248.776 89.4403 248.962 89.5104 249.112 89.6506C249.262 89.7908 249.337 89.966 249.337 90.1762C249.337 90.3965 249.262 90.5817 249.112 90.7319C248.972 90.8821 248.786 90.9572 248.556 90.9572ZM255.398 100.659C254.577 100.659 253.856 100.489 253.235 100.148C252.614 99.798 252.129 99.3224 251.778 98.7217C251.428 98.111 251.253 97.4151 251.253 96.6341C251.253 95.8532 251.418 95.1623 251.748 94.5616C252.089 93.9609 252.549 93.4903 253.13 93.1499C253.721 92.7994 254.382 92.6242 255.113 92.6242C255.853 92.6242 256.509 92.7944 257.08 93.1349C257.661 93.4653 258.116 93.9358 258.447 94.5466C258.777 95.1473 258.942 95.8432 258.942 96.6341C258.942 96.6842 258.937 96.7393 258.927 96.7993C258.927 96.8494 258.927 96.9045 258.927 96.9645H252.064V96.1686H258.357L257.936 96.484C257.936 95.9133 257.811 95.4076 257.561 94.9671C257.32 94.5166 256.99 94.1661 256.569 93.9158C256.149 93.6655 255.663 93.5404 255.113 93.5404C254.572 93.5404 254.086 93.6655 253.656 93.9158C253.225 94.1661 252.89 94.5166 252.65 94.9671C252.409 95.4177 252.289 95.9333 252.289 96.514V96.6792C252.289 97.2799 252.419 97.8106 252.68 98.2712C252.95 98.7217 253.32 99.0771 253.791 99.3375C254.272 99.5878 254.817 99.7129 255.428 99.7129C255.909 99.7129 256.354 99.6278 256.765 99.4576C257.185 99.2874 257.546 99.0271 257.846 98.6766L258.447 99.3675C258.096 99.788 257.656 100.108 257.125 100.329C256.604 100.549 256.029 100.659 255.398 100.659ZM262.573 100.584L259.599 92.6993H260.621L263.324 100.013H262.858L265.637 92.6993H266.553L269.301 100.013H268.836L271.584 92.6993H272.56L269.572 100.584H268.565L265.922 93.7056H266.237L263.579 100.584H262.573Z" fill="white"/>
<path d="M298.401 337.999L293.401 317.299L274.001 309.599L262.101 282.399L248.101 274.799L217.301 223.099L218.301 178.199L231.501 153.599L228.501 138.199L219.901 135.299" stroke="#F3BD48" stroke-miterlimit="10" stroke-dasharray="3 3"/>
<path d="M270.4 393.6L267.4 379.6L290.3 360.9" stroke="#F3BD48" stroke-miterlimit="10" stroke-dasharray="3 3"/>
<path d="M219.9 178.499L248.8 175.499L286 182.399L295.1 167.799L324.1 166.899L366.6 126.899L358.1 114.199" stroke="#F3BD48" stroke-miterlimit="10" stroke-dasharray="3 3"/>
<path d="M339.4 252.499L341.5 241.399L331 231.699L304.6 216.899L286.7 212.699L278.9 193.299L271.6 189.299L260 179.699" stroke="#F3BD48" stroke-miterlimit="10" stroke-dasharray="3 3"/>
<path d="M348.199 62.9004L352.799 50.6004L384.499 51.6004L418.299 37.0004L446.399 34.4004L497.299 66.1004L550.699 69.8004L574.799 85.8004L576.399 107.1" stroke="#F3BD48" stroke-miterlimit="10" stroke-dasharray="3 3"/>
<path d="M299.099 64.5996L307.799 68.3996L316.999 65.9996L316.499 74.0996L318.299 74.9996L317.099 76.8996L321.499 83.6996L315.799 85.3996L314.899 90.1996L309.999 88.5996L306.399 93.3996L301.099 84.9996L292.199 81.5996L298.399 74.1996L299.099 64.5996Z" stroke="white" stroke-miterlimit="10"/>
<path d="M296.5 80.5004L299.1 77.5004L301.2 77.9004L302.8 73.3004L301.2 72.1004L301.6 68.4004L304.8 69.6004L305.3 71.7004L309.8 72.2004L310.5 70.3004L314.4 69.3004L313.7 73.3004L312 74.1004L313.3 78.6004L315.3 78.9004L317.4 82.0004L313.4 82.3004L312.1 81.1004L307.9 83.8004L308.9 85.4004L306.4 88.5004L304.5 85.4004L305.5 83.8004L302.1 80.8004L300 81.8004L296.5 80.5004Z" fill="white"/>
<path d="M306.4 93.3996L305.9 98.0996L311 99.4996L313.3 97.5996L319.1 104L317 105.9L317.1 110.9L322.3 110.6L323.9 108.3L331.9 113.4L330.7 115.9L333 119.9L337.1 118.1L337.9 115.4L347.3 117L347.4 119.5L351.6 121.8L354.5 117.9L353 115.5L362 110.4L363.9 112.7L368.7 111.8L368.2 107.3L366.1 105.6L369.5 97.2996L372.4 97.4996L376 94.6996L372.8 90.1996L370.3 90.2996L368.4 80.7996L370.7 80.2996L372.2 75.0996L366.4 73.3996L364.6 75.3996L357.5 70.0996L359 67.2996L357.2 62.7996L352.7 63.9996L351.7 66.9996L341.6 64.4996L342 61.8996L338.5 58.5996L335 61.8996L335.2 64.8996L326.3 66.2996L325.5 63.5996L320.1 61.4996L317.1 66.0996L316.7 73.9996L318.6 74.9996L317.4 76.7996L321.8 83.7996L316 85.5996L314.9 90.1996L310.1 88.7996L306.4 93.3996Z" stroke="white" stroke-miterlimit="10" stroke-linecap="square"/>
<path d="M564.999 116.2L561.699 113.7L561.299 105.5L569.899 107.7L570.999 111.3H582.199L583.399 107.6L592.299 105.8L591.399 114.4L587.599 116.6L591.399 127.4L594.899 127.6L599.999 134.5L591.499 136.9L588.999 134.3L578.799 140.9L580.499 144.3L576.399 152.3L569.799 145.2L571.599 141.2L563.699 139.3L558.999 134.8L552.799 133.3L556.099 126.7L560.399 127.5L564.999 116.2Z" stroke="white" stroke-miterlimit="10"/>
<path d="M316.4 329.8L318 333.6L316.8 335.1L321 340.3L322.7 339.4L326.1 342.2L322.4 344.2L320.7 343.8L315.4 348.6L316.6 350L314.3 354L312.6 353.9L311.3 360.1L313.2 360.8V366.3L307.3 365.3L306.9 363.5L299.7 364.1L299.6 366.7L294.9 369L293.6 363.7L295.1 362.3L290.5 356.4L288.8 357.4L284.9 354.6L287.9 350.6L289.9 351.1L291.8 344.8L289.5 343.9L289.4 338.3L295.2 339.6L295.3 341.4L302 341.3L302.1 339.3L306.3 338L307.4 339.5L314 334.9L313.1 333.1L316.4 329.8ZM316.7 328L315.6 329L312.4 332.1L311.9 332.6L312.2 333.3L312.7 334.3L307.6 337.9L307.1 337.2L306.7 336.6L306 336.8L301.8 338.1L301.1 338.3V339L301 340.1L296.2 340.2L296.1 339.3L296 338.6L295.3 338.4L289.5 337.1L288.3 336.8V338.1L288.4 343.7V344.4L289 344.6L290.4 345.1L289.1 349.6L288 349.4L287.4 349.3L287 349.8L284 353.8L283.4 354.6L284.2 355.2L288.1 358L288.6 358.4L289.2 358.1L290.1 357.6L293.6 362.1L293 363L292.6 363.4L292.7 364L294 369.3L294.3 370.5L295.4 369.9L300.1 367.6L300.6 367.3V366.7L300.7 364.9L306.1 364.4L306.3 365.4L306.4 366.1L307.1 366.2L313 367.2L314.2 367.4V366.2V360.7V360L313.6 359.8L312.5 359.4L313.4 354.9H314.3H314.9L315.2 354.4L317.5 350.4L317.8 349.8L317.3 349.3L316.8 348.7L321 344.9L322.1 345.2L322.5 345.3L322.8 345.1L326.5 343.1L327.8 342.4L326.7 341.4L323.3 338.6L322.8 338.2L322.2 338.5L321.3 339L318.1 335.1L318.8 334.3L319.2 333.8L319 333.3L317.4 329.5L316.7 328Z" fill="white"/>
<path d="M279.2 391.3L279.9 396.4L278.5 398L281.6 404.8L283.9 404.4L287.1 407.9L283.1 410.3L281.5 409.4L275.8 414.9L276.9 416.7L274.5 420.9L271 417.7L271.3 415.6L264.6 411.9L263.1 413.4L257.8 412.5L260.2 408.1L262.1 407.8L263.5 400.4L261.7 399.5L260.9 394.7L265.8 395.1L266.9 396.9L274.1 395.8L274.2 393.6L279.2 391.3ZM280 389.9L278.8 390.5L274 392.8L273.5 393.1V393.7L273.4 395L267.6 395.9L266.8 394.6L266.5 394.2H266L261.1 393.8L259.8 393.7L260 395L260.8 399.8L260.9 400.3L261.4 400.5L262.5 401.1L261.4 407.1L260.2 407.3L259.7 407.4L259.5 407.8L257.1 412.2L256.4 413.4L257.8 413.6L263.1 414.5L263.6 414.6L264 414.2L264.9 413.3L270.4 416.3L270.2 417.7L270.1 418.2L270.5 418.6L274 421.8L274.9 422.6L275.5 421.5L277.9 417.3L278.2 416.8L277.9 416.3L277 415L281.6 410.6L282.5 411.1L283 411.4L283.5 411.1L287.5 408.7L288.5 408.1L287.7 407.2L284.5 403.7L284.1 403.3L283.6 403.4L282.1 403.7L279.6 398.3L280.6 397.2L280.9 396.9L280.8 396.4L280.1 391.3L280 389.9Z" fill="white"/>
<path d="M330.199 246.199L335.999 250.699L335.799 253.899L343.699 256.199L345.199 253.699L350.699 253.299L353.299 257.799L352.699 260.899L359.399 264.999L361.599 263.099L369.599 263.599" stroke="white" stroke-miterlimit="10"/>
<path d="M323 280.299L328.1 283.299L327.6 285.099L334.2 286.799L334.9 285.099L340.6 285.299L337.7 290.099H336.2L335.4 293.399L336.9 294.099L336 297.799" stroke="white" stroke-miterlimit="10"/>
<path d="M325 293.599L328.5 294.499V295.399L330.3 296.199V294.399L329.8 293.899L330.6 291.399L331.6 291.599L332.7 289.799L330.8 289.399L330.4 289.999L328.8 289.499L326.3 288.699V287.999L324.5 287.199L324.3 289.299L325.1 289.699L324.3 292.199L323.4 292.399L322.6 293.999L324.5 294.099L325 293.599Z" fill="white"/>
<path d="M188.099 152.5L190.299 154.9L191.599 152.2L190.999 151.5L193.599 147.9L195.799 148.6L195.999 146.7L202.899 144.8L203.099 145.7L204.799 145.8L206.199 144.9L205.899 144L213.499 141.8L213.799 142.9H216.599L216.499 140.1L215.399 139.8L217.599 129.8L218.599 130L219.899 127.3L216.899 126.7L216.499 127.5L209.999 124.1L210.399 123.3L209.199 122.1L207.499 122.2L207.299 123.2L199.899 121.4L200.099 120.5L198.699 119.7L196.999 120.1V121.1L189.299 121.2V120.1L186.499 119.5L186.399 122.4L187.199 122.7L185.199 128.6L184.299 128.4L183.099 130L184.099 131.6L185.099 131.5L187.099 141L185.999 141.6L187.099 143.4L184.499 146.9L183.799 146.5L181.699 148.6L184.499 149.9L185.099 149.4L188.499 152L188.099 152.5Z" stroke="white" stroke-miterlimit="10"/>
<path d="M329.9 250.699C328.4 253.499 324.3 264.299 323.3 267.299C321.3 273.199 319.4 279.199 318.4 285.399C317.8 289.299 317.6 293.699 320.2 296.799C322.1 299.099 325.1 300.199 328 300.699C331 301.099 334 300.999 336.9 301.199C340.3 301.399 343.9 302.099 347 300.799C350.5 299.399 351.9 294.899 353.3 291.499C353.7 290.499 355.9 283.899 357.6 282.999C364.5 278.299 367.4 269.799 367.7 265.099" stroke="white" stroke-width="3" stroke-miterlimit="10" stroke-dasharray="1 1"/>
<path d="M137.5 212.8C120.7 209.7 111.6 192.7 111.2 175.5C111.1 169.8 112.7 164 111.4 158.5C110 152.5 105.5 147.9 102.3 142.7C90.1996 122.8 96.1996 92.1996 76.6996 79.5996C71.5996 76.2996 108 91.3996 104.5 86.4996C99.4996 79.3996 103.3 69.6996 103.5 60.9996C104 37.8996 79.5997 23.6996 61.8997 8.89961C32.7997 -15.5004 16.6996 -51.6004 1.59961 -86.4004" stroke="#F3BD48" stroke-width="3" stroke-miterlimit="10"/>
<path d="M661.301 372.299C663.801 373.199 670.101 379.599 671.301 381.999C673.401 385.999 676.001 389.599 679.101 392.799C680.601 394.299 682.201 395.799 684.301 396.399C686.101 396.999 688.101 396.799 690.001 396.699C698.301 396.299 706.701 397.699 714.901 396.399C718.401 395.899 722.101 394.799 725.501 395.699C727.401 396.199 729.101 397.099 730.901 397.799C733.201 398.599 752.001 400.799 767.601 397.599C789.501 392.999 791.901 420.099 803.501 421.899C834.601 426.799 866.501 432.599 866.201 434.199" stroke="#F3BD48" stroke-width="3" stroke-miterlimit="10"/>
</svg>
