<svg width="208" height="145" viewBox="0 0 208 145" fill="none" xmlns="http://www.w3.org/2000/svg">
<g clip-path="url(#clip0_1753_15672)">
<path d="M8 -3.49691e-07L0 0L3.93402e-07 9L56 144.5L67.5 144.5L8 -3.49691e-07Z" fill="#F1BE48"/>
<path d="M4.93939e-06 113L3.54062e-06 81L26.5 144.5L14 144.5L4.93939e-06 113Z" fill="#F1BE48"/>
<path d="M109.5 144.5L98.5 144.5L39 -1.70474e-06L49 -2.14186e-06L109.5 144.5Z" fill="#F1BE48"/>
<path d="M150 144.5L141 144.5L81.5 -3.56248e-06L90.5 -3.95588e-06L150 144.5Z" fill="#F1BE48"/>
<path d="M191 144.5L183.5 144.5L123.5 -5.39836e-06L132 -5.7699e-06L191 144.5Z" fill="#F1BE48"/>
<path d="M208 101L208 86L173 -7.56207e-06L166 -7.25609e-06L208 101Z" fill="#F1BE48"/>
</g>
<defs>
<clipPath id="clip0_1753_15672">
<rect width="208" height="144.5" fill="white"/>
</clipPath>
</defs>
</svg>
