<svg version="1.2" xmlns="http://www.w3.org/2000/svg" viewBox="0 0 241 26" width="278" height="30">
	<title>Vector-pdf</title>
	<defs>
		<clipPath clipPathUnits="userSpaceOnUse" id="cp1">
			<path d="m0 0h241v26h-241z"/>
		</clipPath>
	</defs>
	<style>
		.s0 { fill: #000000 } 
	</style>
	<g id="Page 1" clip-path="url(#cp1)">
		<path id="Path 1" fill-rule="evenodd" class="s0" d="m174.8 4.9h-7.7v20.9h-5.1v-20.9h-7.7v-4.7h20.4c0.1 0 0.1 4.7 0.1 4.7zm-50.1-4.7h2.5v25.6h-5.1v-15.5l-6.6 8.4h-1.3l-6.6-8.4v15.5h-5.1v-25.6h2.6l9.8 11.9zm55.6 0h5.1v25.6h-5.1zm61.1 25.6h-5.3l-7.5-17.5-7.5 17.5h-5.3l11.3-25.6h3zm-85 0h-5.3l-7.5-17.5-7.4 17.5h-5.3l11.3-25.6h2.9zm-84.5 0h-5.4l-7.4-17.4-7.5 17.4h-5.3l11.3-25.5h3z"/>
		<path id="Path 2" fill-rule="evenodd" class="s0" d="m19.2 8.9c0-4.4-3.4-8.1-7.9-8.6q-0.1 0-0.2-0.1-0.4 0-0.9 0h-10.2v8.9h5.1v-4.2h4.9c2.3 0 4.1 2 4.1 4.2 0 2.3-1.8 4.3-4.1 4.3h-10v12.4h5.1v-7.7h4.5q0.4 0 0.7 0 0.9 0 1.8-0.2 0.8-0.2 1.6-0.5 0.8-0.4 1.6-0.9 0.7-0.4 1.3-1.1 0.6-0.6 1.1-1.3 0.5-0.8 0.8-1.6 0.4-0.8 0.5-1.6 0.2-0.9 0.2-1.8v-0.2m18.9 7.9q2-1.3 3.1-3.3 1.1-2 1.1-4.4c0-0.1 0-0.5 0-0.6q0-0.1 0-0.2 0-0.1 0-0.2v-0.2c0 0 0-0.2 0-0.3v-0.1q-0.1-0.3-0.2-0.5-0.1-0.6-0.3-1.2l-0.1-0.2c0 0-0.1-0.1-0.1-0.2l-0.1-0.1c0 0 0-0.2-0.1-0.2l-0.1-0.4-0.1-0.1-0.1-0.3h-0.1q-0.3-0.5-0.6-0.9-0.1-0.2-0.2-0.3h-0.1c0 0-0.1-0.2-0.2-0.2l-0.1-0.1c0 0-0.1-0.1-0.2-0.2l-0.1-0.1c0 0-0.1-0.1-0.2-0.2h-0.1c0 0-0.1-0.2-0.2-0.2l-0.1-0.1q-0.3-0.2-0.6-0.4-1.8-1.2-4-1.4-0.4 0-0.9 0h-10.2v4.7h10q0.6 0 1.2 0.2c1.7 0.5 2.9 2.2 2.9 4 0 1.7-1.1 3.3-2.5 3.9-0.5 0.3-1 0.4-1.6 0.4h-10v12.4h5.1v-7.7h4.5l4.9 7.7h6.4l-6-9zm47.6-6.6v4.7h7.8c-0.8 3.4-3.8 6.1-7.4 6.3q0 0-0.1 0-0.1 0-0.2 0c-0.1 0-0.3 0-0.4 0-4.2-0.3-7.5-3.9-7.5-8.2 0-4.4 3.5-8.2 7.8-8.2v-4.8c-7.1 0.1-12.9 5.8-12.9 13 0 5.3 3.2 9.7 7.6 11.8 1.6 0.8 3.4 1.2 5.2 1.2 0 0 0.3 0 0.4 0q2.7 0 5.2-1.2c3.9-1.8 6.8-5.5 7.4-9.9q0.2-0.9 0.2-1.9c0-1-0.1-1.9-0.3-2.8zm127.8 15.6l-8.7-13.1 8.3-12.5h-5.9l-6.6 10.5h-3.7v-10.5h-5.1v25.6h5.1v-10.4h3.7l6.6 10.4h6.4z"/>
	</g>
</svg>