<svg width="375" height="280" viewBox="0 0 375 280" fill="none" xmlns="http://www.w3.org/2000/svg">
<path d="M296.061 235.148C294.016 235.148 291.971 234.409 290.324 232.989C290.153 232.876 290.04 232.705 289.869 232.592C288.79 231.626 287.426 230.433 285.438 230.035C279.416 228.785 272.997 230.319 269.134 231.285C266.066 232.023 264.703 232.364 263.964 231.058C263.51 230.262 263.226 229.41 262.942 228.615C262.374 226.911 262.033 226.172 261.522 225.945C261.692 226.456 261.919 227.081 262.09 227.536C262.885 229.751 263.624 231.853 262.26 233.103C260.726 234.466 256.011 232.705 255.045 231.683C254.477 231.058 254.534 230.262 254.648 228.16C254.761 226.854 254.989 223.332 254.421 222.65C253.568 222.082 250.898 225.263 249.762 226.57C248.172 228.445 247.206 229.524 246.127 229.808C243.797 230.376 241.355 227.82 238.741 225.093C237.946 224.297 236.867 223.161 236.185 222.593C236.128 222.82 236.071 223.048 236.015 223.218C235.787 224.184 235.447 225.377 234.594 226.399C233.629 227.592 232.492 227.763 231.697 227.649C229.198 227.422 226.471 224.354 222.892 217.821C222.835 217.765 218.006 209.868 212.269 208.732C210.337 208.334 208.633 208.789 206.929 210.039L206.758 210.152C203.009 213.22 200.907 214.129 199.373 213.277C198.691 212.879 198.01 212.027 198.294 210.039C198.351 209.868 198.351 209.754 198.351 209.641C198.066 209.584 197.612 209.527 197.214 209.527C195.226 209.357 191.931 209.13 189.602 205.21C185.909 199.018 182.955 195.666 177.729 195.666C172.162 195.666 167.447 193.962 165.288 192.314C163.3 190.78 162.561 188.792 161.823 186.861C161.141 185.156 160.516 183.509 158.982 182.145C157.278 180.668 153.472 179.816 149.438 178.907C145.518 177.998 141.031 176.976 137.508 175.158C134.611 173.624 132.168 170.386 129.555 166.978C126.431 162.887 122.909 158.172 118.023 155.957C117.625 155.843 116.148 156.354 115.353 156.638C113.762 157.207 112.285 157.718 111.036 157.32C109.445 156.866 108.309 155.161 107.002 153.173C105.525 150.901 103.764 148.288 101.776 148.401C100.128 148.458 99.9012 148.856 99.3899 149.821C98.9922 150.56 98.4242 151.639 97.1176 152.378C94.902 153.684 93.0842 152.207 91.1527 150.674C89.7893 149.594 88.1418 148.288 85.8695 147.265C84.4492 146.64 83.3131 146.413 81.9497 146.186C80.4158 145.902 78.598 145.561 75.928 144.595C72.8035 143.459 64.1117 140.334 61.669 139.937C60.8737 139.823 61.5554 137.494 62.3507 137.608C64.9639 138.005 73.5988 140.675 76.9505 141.925C79.4501 142.834 81.0407 143.118 82.5177 143.402C83.938 143.686 85.3582 143.913 87.0624 144.709C89.6756 145.902 91.6071 147.379 92.9705 148.458C94.7316 149.821 95.2997 150.219 95.7541 149.935C96.379 149.594 96.6063 149.14 96.9471 148.515C97.572 147.322 98.481 145.731 101.719 145.561C101.776 145.561 101.833 145.561 101.946 145.561C105.412 145.561 107.627 148.912 109.445 151.582C110.24 152.775 111.32 154.423 111.888 154.593C112.285 154.707 113.649 154.252 114.444 153.912C116.092 153.344 117.853 152.719 119.216 153.344C124.727 155.843 128.476 160.842 131.828 165.217C134.214 168.341 136.486 171.352 138.815 172.602C141.996 174.306 146.087 175.215 150.063 176.124C154.665 177.146 158.584 178.055 160.857 180.044C162.959 181.861 163.754 184.02 164.493 185.895C165.117 187.599 165.686 189.019 167.049 190.099C168.299 191.064 172.105 192.882 177.729 192.882C184.944 192.882 188.75 198.279 192.045 203.846C193.635 206.516 195.624 206.687 197.442 206.8C198.635 206.914 199.884 206.971 200.68 207.993C201.191 208.618 201.361 209.527 201.134 210.607V210.663C201.759 210.379 202.895 209.754 204.94 208.05C205.054 207.937 205.111 207.88 205.168 207.88C207.497 206.119 210.11 205.494 212.837 206.062C219.881 207.596 225.278 216.515 225.278 216.572C229.538 224.354 231.47 224.922 231.868 224.979C231.924 224.979 232.038 224.979 232.322 224.695C232.777 224.127 233.004 223.332 233.174 222.593C233.458 221.514 233.799 220.264 235.049 219.753C236.696 219.071 238.287 220.719 240.673 223.218C241.866 224.468 244.365 227.081 245.274 227.138C245.729 226.854 246.695 225.718 247.433 224.866C249.762 222.139 252.887 218.446 255.898 220.435C257.659 221.627 257.602 224.638 257.318 228.445C257.261 228.956 257.261 229.638 257.204 230.035C257.829 230.376 259.079 230.774 259.874 230.887C259.761 230.262 259.363 229.297 259.136 228.672C258.454 226.797 257.943 225.32 258.568 224.184C258.852 223.673 259.306 223.389 259.874 223.275C263.567 222.536 264.646 225.718 265.385 227.82C265.555 228.331 265.726 228.785 265.896 229.24C266.464 229.126 267.373 228.899 268.168 228.729C272.259 227.763 279.076 226.115 285.722 227.479C288.449 228.047 290.267 229.637 291.46 230.717C291.63 230.83 291.744 231.001 291.914 231.115C293.789 232.705 295.891 232.819 297.311 232.364C298.277 232.08 298.959 231.455 299.129 230.774C299.243 230.433 299.299 230.149 297.652 229.638C297.482 229.581 297.368 229.581 297.254 229.524C295.209 228.842 294.527 227.081 294.755 225.661C295.039 223.957 296.459 222.707 298.05 222.707C298.845 222.707 299.924 223.218 302.708 224.582C303.446 224.922 304.469 225.434 305.208 225.775C305.208 225.434 305.151 225.036 305.094 224.752C304.867 223.275 304.526 221.003 306.571 219.526C309.695 217.253 311.854 219.412 312.99 220.605C313.558 221.173 314.126 221.798 314.524 221.741C314.695 221.741 315.433 221.571 316.797 219.81C317.137 219.355 317.933 218.389 319.069 218.56C320.148 218.73 320.546 219.753 320.773 220.435C320.887 220.662 321 221.116 321.171 221.23C322.136 221.855 324.182 221.116 326.056 220.435C327.533 219.923 329.067 219.355 330.487 219.298C335.714 219.071 351.677 219.526 356.847 224.468C358.04 225.604 365.879 231.342 365.879 232.762C365.879 233.557 367.299 235.034 366.504 235.034C365.709 235.034 365.538 237.023 364.289 234.693C364.004 234.125 355.483 227.081 354.915 226.456C350.825 222.536 336.509 221.798 330.601 222.082C329.635 222.139 328.272 222.593 327.022 223.048C324.579 223.9 321.796 224.922 319.637 223.502C319.126 223.161 318.785 222.65 318.558 222.196C317.251 223.729 316.058 224.468 314.808 224.525C313.104 224.638 312.025 223.502 311.116 222.536C309.809 221.173 309.411 221.003 308.332 221.741C307.764 222.139 307.764 222.707 307.991 224.241C308.218 225.604 308.502 227.422 306.912 228.558C306.003 229.24 305.037 228.785 301.572 227.081C300.379 226.513 298.618 225.661 298.05 225.49C297.822 225.547 297.652 225.831 297.595 226.059C297.538 226.286 297.595 226.57 298.163 226.797C298.22 226.797 298.334 226.854 298.447 226.854C301.288 227.706 302.481 229.183 301.913 231.399C301.515 233.046 300.152 234.409 298.163 234.978C297.652 235.034 296.857 235.148 296.061 235.148Z" fill="#F3BD48"/>
<path d="M207.596 73V63.2H211.824C212.916 63.2 213.761 63.4193 214.358 63.858C214.965 64.2967 215.268 64.9173 215.268 65.72C215.268 66.252 215.142 66.7 214.89 67.064C214.647 67.428 214.311 67.7033 213.882 67.89C213.462 68.0767 213 68.17 212.496 68.17L212.734 67.834C213.359 67.834 213.896 67.932 214.344 68.128C214.801 68.3147 215.156 68.5993 215.408 68.982C215.66 69.3553 215.786 69.822 215.786 70.382C215.786 71.2127 215.478 71.8567 214.862 72.314C214.255 72.7713 213.336 73 212.104 73H207.596ZM208.632 72.146H212.09C212.949 72.146 213.607 72.0013 214.064 71.712C214.521 71.4133 214.75 70.942 214.75 70.298C214.75 69.6633 214.521 69.2013 214.064 68.912C213.607 68.6133 212.949 68.464 212.09 68.464H208.52V67.61H211.754C212.538 67.61 213.145 67.4607 213.574 67.162C214.013 66.8633 214.232 66.42 214.232 65.832C214.232 65.2347 214.013 64.7913 213.574 64.502C213.145 64.2033 212.538 64.054 211.754 64.054H208.632V72.146ZM217.941 73V65.65H218.893V67.652L218.795 67.302C219 66.742 219.345 66.3173 219.831 66.028C220.316 65.7293 220.918 65.58 221.637 65.58V66.546C221.599 66.546 221.562 66.546 221.525 66.546C221.487 66.5367 221.45 66.532 221.413 66.532C220.638 66.532 220.031 66.77 219.593 67.246C219.154 67.7127 218.935 68.38 218.935 69.248V73H217.941ZM226.378 73.07C225.669 73.07 225.029 72.9113 224.46 72.594C223.9 72.2673 223.457 71.824 223.13 71.264C222.803 70.6947 222.64 70.046 222.64 69.318C222.64 68.5807 222.803 67.932 223.13 67.372C223.457 66.812 223.9 66.3733 224.46 66.056C225.02 65.7387 225.659 65.58 226.378 65.58C227.106 65.58 227.75 65.7387 228.31 66.056C228.879 66.3733 229.323 66.812 229.64 67.372C229.967 67.932 230.13 68.5807 230.13 69.318C230.13 70.046 229.967 70.6947 229.64 71.264C229.323 71.824 228.879 72.2673 228.31 72.594C227.741 72.9113 227.097 73.07 226.378 73.07ZM226.378 72.188C226.91 72.188 227.381 72.0713 227.792 71.838C228.203 71.5953 228.525 71.2593 228.758 70.83C229.001 70.3913 229.122 69.8873 229.122 69.318C229.122 68.7393 229.001 68.2353 228.758 67.806C228.525 67.3767 228.203 67.0453 227.792 66.812C227.381 66.5693 226.915 66.448 226.392 66.448C225.869 66.448 225.403 66.5693 224.992 66.812C224.581 67.0453 224.255 67.3767 224.012 67.806C223.769 68.2353 223.648 68.7393 223.648 69.318C223.648 69.8873 223.769 70.3913 224.012 70.83C224.255 71.2593 224.581 71.5953 224.992 71.838C225.403 72.0713 225.865 72.188 226.378 72.188ZM235.085 73.07C234.385 73.07 233.755 72.9113 233.195 72.594C232.645 72.2767 232.211 71.838 231.893 71.278C231.576 70.7087 231.417 70.0553 231.417 69.318C231.417 68.5713 231.576 67.918 231.893 67.358C232.211 66.798 232.645 66.364 233.195 66.056C233.755 65.7387 234.385 65.58 235.085 65.58C235.729 65.58 236.303 65.7247 236.807 66.014C237.321 66.3033 237.727 66.728 238.025 67.288C238.333 67.8387 238.487 68.5153 238.487 69.318C238.487 70.1113 238.338 70.788 238.039 71.348C237.741 71.908 237.335 72.3373 236.821 72.636C236.317 72.9253 235.739 73.07 235.085 73.07ZM235.155 72.188C235.678 72.188 236.145 72.0713 236.555 71.838C236.975 71.5953 237.302 71.2593 237.535 70.83C237.778 70.3913 237.899 69.8873 237.899 69.318C237.899 68.7393 237.778 68.2353 237.535 67.806C237.302 67.3767 236.975 67.0453 236.555 66.812C236.145 66.5693 235.678 66.448 235.155 66.448C234.642 66.448 234.18 66.5693 233.769 66.812C233.359 67.0453 233.032 67.3767 232.789 67.806C232.547 68.2353 232.425 68.7393 232.425 69.318C232.425 69.8873 232.547 70.3913 232.789 70.83C233.032 71.2593 233.359 71.5953 233.769 71.838C234.18 72.0713 234.642 72.188 235.155 72.188ZM237.927 73V70.788L238.025 69.304L237.885 67.82V62.612H238.879V73H237.927ZM241.704 75.786C241.358 75.786 241.027 75.73 240.71 75.618C240.402 75.506 240.136 75.338 239.912 75.114L240.374 74.372C240.56 74.5493 240.761 74.6847 240.976 74.778C241.2 74.8807 241.447 74.932 241.718 74.932C242.044 74.932 242.324 74.8387 242.558 74.652C242.8 74.4747 243.029 74.1573 243.244 73.7L243.72 72.622L243.832 72.468L246.856 65.65H247.836L244.154 73.882C243.948 74.358 243.72 74.736 243.468 75.016C243.225 75.296 242.959 75.492 242.67 75.604C242.38 75.7253 242.058 75.786 241.704 75.786ZM243.664 73.21L240.276 65.65H241.312L244.308 72.398L243.664 73.21Z" fill="white"/>
<path d="M288.596 125V115.2H292.264C293.095 115.2 293.809 115.335 294.406 115.606C295.003 115.867 295.461 116.25 295.778 116.754C296.105 117.249 296.268 117.851 296.268 118.56C296.268 119.251 296.105 119.848 295.778 120.352C295.461 120.847 295.003 121.229 294.406 121.5C293.809 121.771 293.095 121.906 292.264 121.906H289.17L289.632 121.416V125H288.596ZM289.632 121.5L289.17 120.996H292.236C293.216 120.996 293.958 120.786 294.462 120.366C294.975 119.937 295.232 119.335 295.232 118.56C295.232 117.776 294.975 117.169 294.462 116.74C293.958 116.311 293.216 116.096 292.236 116.096H289.17L289.632 115.606V121.5ZM301.253 125.07C300.544 125.07 299.904 124.911 299.335 124.594C298.775 124.267 298.332 123.824 298.005 123.264C297.678 122.695 297.515 122.046 297.515 121.318C297.515 120.581 297.678 119.932 298.005 119.372C298.332 118.812 298.775 118.373 299.335 118.056C299.895 117.739 300.534 117.58 301.253 117.58C301.981 117.58 302.625 117.739 303.185 118.056C303.754 118.373 304.198 118.812 304.515 119.372C304.842 119.932 305.005 120.581 305.005 121.318C305.005 122.046 304.842 122.695 304.515 123.264C304.198 123.824 303.754 124.267 303.185 124.594C302.616 124.911 301.972 125.07 301.253 125.07ZM301.253 124.188C301.785 124.188 302.256 124.071 302.667 123.838C303.078 123.595 303.4 123.259 303.633 122.83C303.876 122.391 303.997 121.887 303.997 121.318C303.997 120.739 303.876 120.235 303.633 119.806C303.4 119.377 303.078 119.045 302.667 118.812C302.256 118.569 301.79 118.448 301.267 118.448C300.744 118.448 300.278 118.569 299.867 118.812C299.456 119.045 299.13 119.377 298.887 119.806C298.644 120.235 298.523 120.739 298.523 121.318C298.523 121.887 298.644 122.391 298.887 122.83C299.13 123.259 299.456 123.595 299.867 123.838C300.278 124.071 300.74 124.188 301.253 124.188ZM307.104 125V114.612H308.098V125H307.104ZM306.138 121.598L305.676 120.996L309.064 118.448L309.512 119.064L306.138 121.598ZM313.941 125.07C313.231 125.07 312.592 124.911 312.023 124.594C311.463 124.267 311.019 123.824 310.693 123.264C310.366 122.695 310.203 122.046 310.203 121.318C310.203 120.581 310.366 119.932 310.693 119.372C311.019 118.812 311.463 118.373 312.023 118.056C312.583 117.739 313.222 117.58 313.941 117.58C314.669 117.58 315.313 117.739 315.873 118.056C316.442 118.373 316.885 118.812 317.203 119.372C317.529 119.932 317.693 120.581 317.693 121.318C317.693 122.046 317.529 122.695 317.203 123.264C316.885 123.824 316.442 124.267 315.873 124.594C315.303 124.911 314.659 125.07 313.941 125.07ZM313.941 124.188C314.473 124.188 314.944 124.071 315.355 123.838C315.765 123.595 316.087 123.259 316.321 122.83C316.563 122.391 316.685 121.887 316.685 121.318C316.685 120.739 316.563 120.235 316.321 119.806C316.087 119.377 315.765 119.045 315.355 118.812C314.944 118.569 314.477 118.448 313.955 118.448C313.432 118.448 312.965 118.569 312.555 118.812C312.144 119.045 311.817 119.377 311.575 119.806C311.332 120.235 311.211 120.739 311.211 121.318C311.211 121.887 311.332 122.391 311.575 122.83C311.817 123.259 312.144 123.595 312.555 123.838C312.965 124.071 313.427 124.188 313.941 124.188ZM323.474 117.58C324.071 117.58 324.594 117.697 325.042 117.93C325.499 118.154 325.854 118.499 326.106 118.966C326.367 119.433 326.498 120.021 326.498 120.73V125H325.504V120.828C325.504 120.053 325.308 119.47 324.916 119.078C324.533 118.677 323.992 118.476 323.292 118.476C322.769 118.476 322.312 118.583 321.92 118.798C321.537 119.003 321.239 119.307 321.024 119.708C320.819 120.1 320.716 120.576 320.716 121.136V125H319.722V117.65H320.674V119.666L320.52 119.288C320.753 118.756 321.127 118.341 321.64 118.042C322.153 117.734 322.765 117.58 323.474 117.58ZM332.935 117.58C333.532 117.58 334.055 117.697 334.503 117.93C334.96 118.154 335.315 118.499 335.567 118.966C335.828 119.433 335.959 120.021 335.959 120.73V125H334.965V120.828C334.965 120.053 334.769 119.47 334.377 119.078C333.994 118.677 333.453 118.476 332.753 118.476C332.23 118.476 331.773 118.583 331.381 118.798C330.998 119.003 330.7 119.307 330.485 119.708C330.28 120.1 330.177 120.576 330.177 121.136V125H329.183V117.65H330.135V119.666L329.981 119.288C330.214 118.756 330.588 118.341 331.101 118.042C331.614 117.734 332.226 117.58 332.935 117.58ZM341.766 125.07C341 125.07 340.328 124.911 339.75 124.594C339.171 124.267 338.718 123.824 338.392 123.264C338.065 122.695 337.902 122.046 337.902 121.318C337.902 120.59 338.056 119.946 338.364 119.386C338.681 118.826 339.11 118.387 339.652 118.07C340.202 117.743 340.818 117.58 341.5 117.58C342.19 117.58 342.802 117.739 343.334 118.056C343.875 118.364 344.3 118.803 344.608 119.372C344.916 119.932 345.07 120.581 345.07 121.318C345.07 121.365 345.065 121.416 345.056 121.472C345.056 121.519 345.056 121.57 345.056 121.626H338.658V120.884H344.524L344.132 121.178C344.132 120.646 344.015 120.175 343.782 119.764C343.558 119.344 343.25 119.017 342.858 118.784C342.466 118.551 342.013 118.434 341.5 118.434C340.996 118.434 340.543 118.551 340.142 118.784C339.74 119.017 339.428 119.344 339.204 119.764C338.98 120.184 338.868 120.665 338.868 121.206V121.36C338.868 121.92 338.989 122.415 339.232 122.844C339.484 123.264 339.829 123.595 340.268 123.838C340.716 124.071 341.224 124.188 341.794 124.188C342.242 124.188 342.657 124.109 343.04 123.95C343.432 123.791 343.768 123.549 344.048 123.222L344.608 123.866C344.281 124.258 343.87 124.557 343.376 124.762C342.89 124.967 342.354 125.07 341.766 125.07Z" fill="white"/>
<path d="M201.596 178V168.2H202.45L206.93 175.844H206.482L210.92 168.2H211.774V178H210.78V169.754H211.018L206.93 176.754H206.44L202.324 169.754H202.59V178H201.596ZM219.363 178V176.376L219.321 176.11V173.394C219.321 172.769 219.144 172.288 218.789 171.952C218.444 171.616 217.926 171.448 217.235 171.448C216.759 171.448 216.306 171.527 215.877 171.686C215.448 171.845 215.084 172.055 214.785 172.316L214.337 171.574C214.71 171.257 215.158 171.014 215.681 170.846C216.204 170.669 216.754 170.58 217.333 170.58C218.285 170.58 219.018 170.818 219.531 171.294C220.054 171.761 220.315 172.475 220.315 173.436V178H219.363ZM216.829 178.07C216.278 178.07 215.798 177.981 215.387 177.804C214.986 177.617 214.678 177.365 214.463 177.048C214.248 176.721 214.141 176.348 214.141 175.928C214.141 175.545 214.23 175.2 214.407 174.892C214.594 174.575 214.892 174.323 215.303 174.136C215.723 173.94 216.283 173.842 216.983 173.842H219.517V174.584H217.011C216.302 174.584 215.807 174.71 215.527 174.962C215.256 175.214 215.121 175.527 215.121 175.9C215.121 176.32 215.284 176.656 215.611 176.908C215.938 177.16 216.395 177.286 216.983 177.286C217.543 177.286 218.024 177.16 218.425 176.908C218.836 176.647 219.134 176.273 219.321 175.788L219.545 176.474C219.358 176.959 219.032 177.347 218.565 177.636C218.108 177.925 217.529 178.07 216.829 178.07ZM223.015 178V170.65H223.967V172.652L223.869 172.302C224.074 171.742 224.42 171.317 224.905 171.028C225.39 170.729 225.992 170.58 226.711 170.58V171.546C226.674 171.546 226.636 171.546 226.599 171.546C226.562 171.537 226.524 171.532 226.487 171.532C225.712 171.532 225.106 171.77 224.667 172.246C224.228 172.713 224.009 173.38 224.009 174.248V178H223.015ZM228.525 178V170.65H229.519V178H228.525ZM229.029 169.026C228.823 169.026 228.651 168.956 228.511 168.816C228.371 168.676 228.301 168.508 228.301 168.312C228.301 168.116 228.371 167.953 228.511 167.822C228.651 167.682 228.823 167.612 229.029 167.612C229.234 167.612 229.407 167.677 229.547 167.808C229.687 167.939 229.757 168.102 229.757 168.298C229.757 168.503 229.687 168.676 229.547 168.816C229.416 168.956 229.243 169.026 229.029 169.026ZM236.89 178V176.376L236.848 176.11V173.394C236.848 172.769 236.671 172.288 236.316 171.952C235.971 171.616 235.453 171.448 234.762 171.448C234.286 171.448 233.834 171.527 233.404 171.686C232.975 171.845 232.611 172.055 232.312 172.316L231.864 171.574C232.238 171.257 232.686 171.014 233.208 170.846C233.731 170.669 234.282 170.58 234.86 170.58C235.812 170.58 236.545 170.818 237.058 171.294C237.581 171.761 237.842 172.475 237.842 173.436V178H236.89ZM234.356 178.07C233.806 178.07 233.325 177.981 232.914 177.804C232.513 177.617 232.205 177.365 231.99 177.048C231.776 176.721 231.668 176.348 231.668 175.928C231.668 175.545 231.757 175.2 231.934 174.892C232.121 174.575 232.42 174.323 232.83 174.136C233.25 173.94 233.81 173.842 234.51 173.842H237.044V174.584H234.538C233.829 174.584 233.334 174.71 233.054 174.962C232.784 175.214 232.648 175.527 232.648 175.9C232.648 176.32 232.812 176.656 233.138 176.908C233.465 177.16 233.922 177.286 234.51 177.286C235.07 177.286 235.551 177.16 235.952 176.908C236.363 176.647 236.662 176.273 236.848 175.788L237.072 176.474C236.886 176.959 236.559 177.347 236.092 177.636C235.635 177.925 235.056 178.07 234.356 178.07ZM249.726 170.58C250.324 170.58 250.842 170.697 251.28 170.93C251.728 171.154 252.074 171.499 252.316 171.966C252.568 172.433 252.694 173.021 252.694 173.73V178H251.7V173.828C251.7 173.053 251.514 172.47 251.14 172.078C250.776 171.677 250.258 171.476 249.586 171.476C249.082 171.476 248.644 171.583 248.27 171.798C247.906 172.003 247.622 172.307 247.416 172.708C247.22 173.1 247.122 173.576 247.122 174.136V178H246.128V173.828C246.128 173.053 245.942 172.47 245.568 172.078C245.195 171.677 244.672 171.476 244 171.476C243.506 171.476 243.072 171.583 242.698 171.798C242.325 172.003 242.036 172.307 241.83 172.708C241.634 173.1 241.536 173.576 241.536 174.136V178H240.542V170.65H241.494V172.638L241.34 172.288C241.564 171.756 241.924 171.341 242.418 171.042C242.922 170.734 243.515 170.58 244.196 170.58C244.915 170.58 245.526 170.762 246.03 171.126C246.534 171.481 246.861 172.017 247.01 172.736L246.618 172.582C246.833 171.985 247.211 171.504 247.752 171.14C248.303 170.767 248.961 170.58 249.726 170.58ZM259.184 178.07C258.549 178.07 257.975 177.925 257.462 177.636C256.949 177.337 256.538 176.913 256.23 176.362C255.931 175.802 255.782 175.121 255.782 174.318C255.782 173.515 255.931 172.839 256.23 172.288C256.529 171.728 256.935 171.303 257.448 171.014C257.961 170.725 258.54 170.58 259.184 170.58C259.884 170.58 260.509 170.739 261.06 171.056C261.62 171.364 262.059 171.803 262.376 172.372C262.693 172.932 262.852 173.581 262.852 174.318C262.852 175.065 262.693 175.718 262.376 176.278C262.059 176.838 261.62 177.277 261.06 177.594C260.509 177.911 259.884 178.07 259.184 178.07ZM255.39 180.716V170.65H256.342V172.862L256.244 174.332L256.384 175.816V180.716H255.39ZM259.114 177.188C259.637 177.188 260.103 177.071 260.514 176.838C260.925 176.595 261.251 176.259 261.494 175.83C261.737 175.391 261.858 174.887 261.858 174.318C261.858 173.749 261.737 173.249 261.494 172.82C261.251 172.391 260.925 172.055 260.514 171.812C260.103 171.569 259.637 171.448 259.114 171.448C258.591 171.448 258.12 171.569 257.7 171.812C257.289 172.055 256.963 172.391 256.72 172.82C256.487 173.249 256.37 173.749 256.37 174.318C256.37 174.887 256.487 175.391 256.72 175.83C256.963 176.259 257.289 176.595 257.7 176.838C258.12 177.071 258.591 177.188 259.114 177.188ZM267.874 178.07C267.165 178.07 266.526 177.911 265.956 177.594C265.396 177.267 264.953 176.824 264.626 176.264C264.3 175.695 264.136 175.046 264.136 174.318C264.136 173.581 264.3 172.932 264.626 172.372C264.953 171.812 265.396 171.373 265.956 171.056C266.516 170.739 267.156 170.58 267.874 170.58C268.602 170.58 269.246 170.739 269.806 171.056C270.376 171.373 270.819 171.812 271.136 172.372C271.463 172.932 271.626 173.581 271.626 174.318C271.626 175.046 271.463 175.695 271.136 176.264C270.819 176.824 270.376 177.267 269.806 177.594C269.237 177.911 268.593 178.07 267.874 178.07ZM267.874 177.188C268.406 177.188 268.878 177.071 269.288 176.838C269.699 176.595 270.021 176.259 270.254 175.83C270.497 175.391 270.618 174.887 270.618 174.318C270.618 173.739 270.497 173.235 270.254 172.806C270.021 172.377 269.699 172.045 269.288 171.812C268.878 171.569 268.411 171.448 267.888 171.448C267.366 171.448 266.899 171.569 266.488 171.812C266.078 172.045 265.751 172.377 265.508 172.806C265.266 173.235 265.144 173.739 265.144 174.318C265.144 174.887 265.266 175.391 265.508 175.83C265.751 176.259 266.078 176.595 266.488 176.838C266.899 177.071 267.361 177.188 267.874 177.188ZM273.656 178V167.612H274.65V178H273.656Z" fill="white"/>
<path d="M165.298 243.084C164.57 243.084 163.87 242.967 163.198 242.734C162.535 242.491 162.022 242.183 161.658 241.81L162.064 241.012C162.409 241.348 162.871 241.633 163.45 241.866C164.038 242.09 164.654 242.202 165.298 242.202C165.914 242.202 166.413 242.127 166.796 241.978C167.188 241.819 167.473 241.609 167.65 241.348C167.837 241.087 167.93 240.797 167.93 240.48C167.93 240.097 167.818 239.789 167.594 239.556C167.379 239.323 167.095 239.141 166.74 239.01C166.385 238.87 165.993 238.749 165.564 238.646C165.135 238.543 164.705 238.436 164.276 238.324C163.847 238.203 163.45 238.044 163.086 237.848C162.731 237.652 162.442 237.395 162.218 237.078C162.003 236.751 161.896 236.327 161.896 235.804C161.896 235.319 162.022 234.875 162.274 234.474C162.535 234.063 162.932 233.737 163.464 233.494C163.996 233.242 164.677 233.116 165.508 233.116C166.059 233.116 166.605 233.195 167.146 233.354C167.687 233.503 168.154 233.713 168.546 233.984L168.196 234.81C167.776 234.53 167.328 234.325 166.852 234.194C166.385 234.063 165.933 233.998 165.494 233.998C164.906 233.998 164.421 234.077 164.038 234.236C163.655 234.395 163.371 234.609 163.184 234.88C163.007 235.141 162.918 235.44 162.918 235.776C162.918 236.159 163.025 236.467 163.24 236.7C163.464 236.933 163.753 237.115 164.108 237.246C164.472 237.377 164.869 237.493 165.298 237.596C165.727 237.699 166.152 237.811 166.572 237.932C167.001 238.053 167.393 238.212 167.748 238.408C168.112 238.595 168.401 238.847 168.616 239.164C168.84 239.481 168.952 239.897 168.952 240.41C168.952 240.886 168.821 241.329 168.56 241.74C168.299 242.141 167.897 242.468 167.356 242.72C166.824 242.963 166.138 243.084 165.298 243.084ZM173.323 243.07C172.633 243.07 172.101 242.883 171.727 242.51C171.354 242.137 171.167 241.609 171.167 240.928V234.026H172.161V240.872C172.161 241.301 172.269 241.633 172.483 241.866C172.707 242.099 173.025 242.216 173.435 242.216C173.874 242.216 174.238 242.09 174.527 241.838L174.877 242.552C174.681 242.729 174.443 242.86 174.163 242.944C173.893 243.028 173.613 243.07 173.323 243.07ZM169.851 236.476V235.65H174.401V236.476H169.851ZM181.293 243V241.376L181.251 241.11V238.394C181.251 237.769 181.073 237.288 180.719 236.952C180.373 236.616 179.855 236.448 179.165 236.448C178.689 236.448 178.236 236.527 177.807 236.686C177.377 236.845 177.013 237.055 176.715 237.316L176.267 236.574C176.64 236.257 177.088 236.014 177.611 235.846C178.133 235.669 178.684 235.58 179.263 235.58C180.215 235.58 180.947 235.818 181.461 236.294C181.983 236.761 182.245 237.475 182.245 238.436V243H181.293ZM178.759 243.07C178.208 243.07 177.727 242.981 177.317 242.804C176.915 242.617 176.607 242.365 176.393 242.048C176.178 241.721 176.071 241.348 176.071 240.928C176.071 240.545 176.159 240.2 176.337 239.892C176.523 239.575 176.822 239.323 177.233 239.136C177.653 238.94 178.213 238.842 178.913 238.842H181.447V239.584H178.941C178.231 239.584 177.737 239.71 177.457 239.962C177.186 240.214 177.051 240.527 177.051 240.9C177.051 241.32 177.214 241.656 177.541 241.908C177.867 242.16 178.325 242.286 178.913 242.286C179.473 242.286 179.953 242.16 180.355 241.908C180.765 241.647 181.064 241.273 181.251 240.788L181.475 241.474C181.288 241.959 180.961 242.347 180.495 242.636C180.037 242.925 179.459 243.07 178.759 243.07ZM188.697 235.58C189.294 235.58 189.817 235.697 190.265 235.93C190.722 236.154 191.077 236.499 191.329 236.966C191.59 237.433 191.721 238.021 191.721 238.73V243H190.727V238.828C190.727 238.053 190.531 237.47 190.139 237.078C189.756 236.677 189.215 236.476 188.515 236.476C187.992 236.476 187.535 236.583 187.143 236.798C186.76 237.003 186.461 237.307 186.247 237.708C186.041 238.1 185.939 238.576 185.939 239.136V243H184.945V235.65H185.897V237.666L185.743 237.288C185.976 236.756 186.349 236.341 186.863 236.042C187.376 235.734 187.987 235.58 188.697 235.58ZM194.406 243V235.65H195.4V243H194.406ZM194.91 234.026C194.704 234.026 194.532 233.956 194.392 233.816C194.252 233.676 194.182 233.508 194.182 233.312C194.182 233.116 194.252 232.953 194.392 232.822C194.532 232.682 194.704 232.612 194.91 232.612C195.115 232.612 195.288 232.677 195.428 232.808C195.568 232.939 195.638 233.102 195.638 233.298C195.638 233.503 195.568 233.676 195.428 233.816C195.297 233.956 195.124 234.026 194.91 234.026ZM200.139 243.07C199.533 243.07 198.959 242.986 198.417 242.818C197.876 242.641 197.451 242.421 197.143 242.16L197.591 241.376C197.89 241.6 198.273 241.796 198.739 241.964C199.206 242.123 199.696 242.202 200.209 242.202C200.909 242.202 201.413 242.095 201.721 241.88C202.029 241.656 202.183 241.362 202.183 240.998C202.183 240.727 202.095 240.517 201.917 240.368C201.749 240.209 201.525 240.093 201.245 240.018C200.965 239.934 200.653 239.864 200.307 239.808C199.962 239.752 199.617 239.687 199.271 239.612C198.935 239.537 198.627 239.43 198.347 239.29C198.067 239.141 197.839 238.94 197.661 238.688C197.493 238.436 197.409 238.1 197.409 237.68C197.409 237.279 197.521 236.919 197.745 236.602C197.969 236.285 198.296 236.037 198.725 235.86C199.164 235.673 199.696 235.58 200.321 235.58C200.797 235.58 201.273 235.645 201.749 235.776C202.225 235.897 202.617 236.061 202.925 236.266L202.491 237.064C202.165 236.84 201.815 236.681 201.441 236.588C201.068 236.485 200.695 236.434 200.321 236.434C199.659 236.434 199.169 236.551 198.851 236.784C198.543 237.008 198.389 237.297 198.389 237.652C198.389 237.932 198.473 238.151 198.641 238.31C198.819 238.469 199.047 238.595 199.327 238.688C199.617 238.772 199.929 238.842 200.265 238.898C200.611 238.954 200.951 239.024 201.287 239.108C201.633 239.183 201.945 239.29 202.225 239.43C202.515 239.561 202.743 239.752 202.911 240.004C203.089 240.247 203.177 240.569 203.177 240.97C203.177 241.399 203.056 241.773 202.813 242.09C202.58 242.398 202.235 242.641 201.777 242.818C201.329 242.986 200.783 243.07 200.139 243.07ZM205.071 243V232.612H206.065V243H205.071ZM204.105 239.598L203.643 238.996L207.031 236.448L207.479 237.064L204.105 239.598ZM213.517 243V241.376L213.475 241.11V238.394C213.475 237.769 213.298 237.288 212.943 236.952C212.598 236.616 212.08 236.448 211.389 236.448C210.913 236.448 210.461 236.527 210.031 236.686C209.602 236.845 209.238 237.055 208.939 237.316L208.491 236.574C208.865 236.257 209.313 236.014 209.835 235.846C210.358 235.669 210.909 235.58 211.487 235.58C212.439 235.58 213.172 235.818 213.685 236.294C214.208 236.761 214.469 237.475 214.469 238.436V243H213.517ZM210.983 243.07C210.433 243.07 209.952 242.981 209.541 242.804C209.14 242.617 208.832 242.365 208.617 242.048C208.403 241.721 208.295 241.348 208.295 240.928C208.295 240.545 208.384 240.2 208.561 239.892C208.748 239.575 209.047 239.323 209.457 239.136C209.877 238.94 210.437 238.842 211.137 238.842H213.671V239.584H211.165C210.456 239.584 209.961 239.71 209.681 239.962C209.411 240.214 209.275 240.527 209.275 240.9C209.275 241.32 209.439 241.656 209.765 241.908C210.092 242.16 210.549 242.286 211.137 242.286C211.697 242.286 212.178 242.16 212.579 241.908C212.99 241.647 213.289 241.273 213.475 240.788L213.699 241.474C213.513 241.959 213.186 242.347 212.719 242.636C212.262 242.925 211.683 243.07 210.983 243.07ZM218.53 243L215.758 235.65H216.71L219.23 242.468H218.796L221.386 235.65H222.24L224.802 242.468H224.368L226.93 235.65H227.84L225.054 243H224.116L221.652 236.588H221.946L219.468 243H218.53ZM232.128 243.07C231.419 243.07 230.779 242.911 230.21 242.594C229.65 242.267 229.207 241.824 228.88 241.264C228.553 240.695 228.39 240.046 228.39 239.318C228.39 238.581 228.553 237.932 228.88 237.372C229.207 236.812 229.65 236.373 230.21 236.056C230.77 235.739 231.409 235.58 232.128 235.58C232.856 235.58 233.5 235.739 234.06 236.056C234.629 236.373 235.073 236.812 235.39 237.372C235.717 237.932 235.88 238.581 235.88 239.318C235.88 240.046 235.717 240.695 235.39 241.264C235.073 241.824 234.629 242.267 234.06 242.594C233.491 242.911 232.847 243.07 232.128 243.07ZM232.128 242.188C232.66 242.188 233.131 242.071 233.542 241.838C233.953 241.595 234.275 241.259 234.508 240.83C234.751 240.391 234.872 239.887 234.872 239.318C234.872 238.739 234.751 238.235 234.508 237.806C234.275 237.377 233.953 237.045 233.542 236.812C233.131 236.569 232.665 236.448 232.142 236.448C231.619 236.448 231.153 236.569 230.742 236.812C230.331 237.045 230.005 237.377 229.762 237.806C229.519 238.235 229.398 238.739 229.398 239.318C229.398 239.887 229.519 240.391 229.762 240.83C230.005 241.259 230.331 241.595 230.742 241.838C231.153 242.071 231.615 242.188 232.128 242.188ZM231.218 234.502L233.136 232.766H234.466L232.198 234.502H231.218ZM239.202 243L236.43 235.65H237.382L239.902 242.468H239.468L242.058 235.65H242.912L245.474 242.468H245.04L247.602 235.65H248.512L245.726 243H244.788L242.324 236.588H242.618L240.14 243H239.202Z" fill="white"/>
<path d="M116.596 277V267.2H120.824C121.916 267.2 122.761 267.419 123.358 267.858C123.965 268.297 124.268 268.917 124.268 269.72C124.268 270.252 124.142 270.7 123.89 271.064C123.647 271.428 123.311 271.703 122.882 271.89C122.462 272.077 122 272.17 121.496 272.17L121.734 271.834C122.359 271.834 122.896 271.932 123.344 272.128C123.801 272.315 124.156 272.599 124.408 272.982C124.66 273.355 124.786 273.822 124.786 274.382C124.786 275.213 124.478 275.857 123.862 276.314C123.255 276.771 122.336 277 121.104 277H116.596ZM117.632 276.146H121.09C121.949 276.146 122.607 276.001 123.064 275.712C123.521 275.413 123.75 274.942 123.75 274.298C123.75 273.663 123.521 273.201 123.064 272.912C122.607 272.613 121.949 272.464 121.09 272.464H117.52V271.61H120.754C121.538 271.61 122.145 271.461 122.574 271.162C123.013 270.863 123.232 270.42 123.232 269.832C123.232 269.235 123.013 268.791 122.574 268.502C122.145 268.203 121.538 268.054 120.754 268.054H117.632V276.146ZM129.937 277.07C129.227 277.07 128.588 276.911 128.019 276.594C127.459 276.267 127.015 275.824 126.689 275.264C126.362 274.695 126.199 274.046 126.199 273.318C126.199 272.581 126.362 271.932 126.689 271.372C127.015 270.812 127.459 270.373 128.019 270.056C128.579 269.739 129.218 269.58 129.937 269.58C130.665 269.58 131.309 269.739 131.869 270.056C132.438 270.373 132.881 270.812 133.199 271.372C133.525 271.932 133.689 272.581 133.689 273.318C133.689 274.046 133.525 274.695 133.199 275.264C132.881 275.824 132.438 276.267 131.869 276.594C131.299 276.911 130.655 277.07 129.937 277.07ZM129.937 276.188C130.469 276.188 130.94 276.071 131.351 275.838C131.761 275.595 132.083 275.259 132.317 274.83C132.559 274.391 132.681 273.887 132.681 273.318C132.681 272.739 132.559 272.235 132.317 271.806C132.083 271.377 131.761 271.045 131.351 270.812C130.94 270.569 130.473 270.448 129.951 270.448C129.428 270.448 128.961 270.569 128.551 270.812C128.14 271.045 127.813 271.377 127.571 271.806C127.328 272.235 127.207 272.739 127.207 273.318C127.207 273.887 127.328 274.391 127.571 274.83C127.813 275.259 128.14 275.595 128.551 275.838C128.961 276.071 129.423 276.188 129.937 276.188ZM139.47 269.58C140.067 269.58 140.59 269.697 141.038 269.93C141.495 270.154 141.85 270.499 142.102 270.966C142.363 271.433 142.494 272.021 142.494 272.73V277H141.5V272.828C141.5 272.053 141.304 271.47 140.912 271.078C140.529 270.677 139.988 270.476 139.288 270.476C138.765 270.476 138.308 270.583 137.916 270.798C137.533 271.003 137.235 271.307 137.02 271.708C136.815 272.1 136.712 272.576 136.712 273.136V277H135.718V266.612H136.712V271.666L136.516 271.288C136.749 270.756 137.123 270.341 137.636 270.042C138.149 269.734 138.761 269.58 139.47 269.58ZM148.175 277.07C147.466 277.07 146.826 276.911 146.257 276.594C145.697 276.267 145.254 275.824 144.927 275.264C144.6 274.695 144.437 274.046 144.437 273.318C144.437 272.581 144.6 271.932 144.927 271.372C145.254 270.812 145.697 270.373 146.257 270.056C146.817 269.739 147.456 269.58 148.175 269.58C148.903 269.58 149.547 269.739 150.107 270.056C150.676 270.373 151.12 270.812 151.437 271.372C151.764 271.932 151.927 272.581 151.927 273.318C151.927 274.046 151.764 274.695 151.437 275.264C151.12 275.824 150.676 276.267 150.107 276.594C149.538 276.911 148.894 277.07 148.175 277.07ZM148.175 276.188C148.707 276.188 149.178 276.071 149.589 275.838C150 275.595 150.322 275.259 150.555 274.83C150.798 274.391 150.919 273.887 150.919 273.318C150.919 272.739 150.798 272.235 150.555 271.806C150.322 271.377 150 271.045 149.589 270.812C149.178 270.569 148.712 270.448 148.189 270.448C147.666 270.448 147.2 270.569 146.789 270.812C146.378 271.045 146.052 271.377 145.809 271.806C145.566 272.235 145.445 272.739 145.445 273.318C145.445 273.887 145.566 274.391 145.809 274.83C146.052 275.259 146.378 275.595 146.789 275.838C147.2 276.071 147.662 276.188 148.175 276.188ZM153.956 277V269.65H154.908V271.652L154.81 271.302C155.016 270.742 155.361 270.317 155.846 270.028C156.332 269.729 156.934 269.58 157.652 269.58V270.546C157.615 270.546 157.578 270.546 157.54 270.546C157.503 270.537 157.466 270.532 157.428 270.532C156.654 270.532 156.047 270.77 155.608 271.246C155.17 271.713 154.95 272.38 154.95 273.248V277H153.956ZM162.394 277.07C161.684 277.07 161.045 276.911 160.476 276.594C159.916 276.267 159.472 275.824 159.146 275.264C158.819 274.695 158.656 274.046 158.656 273.318C158.656 272.581 158.819 271.932 159.146 271.372C159.472 270.812 159.916 270.373 160.476 270.056C161.036 269.739 161.675 269.58 162.394 269.58C163.122 269.58 163.766 269.739 164.326 270.056C164.895 270.373 165.338 270.812 165.656 271.372C165.982 271.932 166.146 272.581 166.146 273.318C166.146 274.046 165.982 274.695 165.656 275.264C165.338 275.824 164.895 276.267 164.326 276.594C163.756 276.911 163.112 277.07 162.394 277.07ZM162.394 276.188C162.926 276.188 163.397 276.071 163.808 275.838C164.218 275.595 164.54 275.259 164.774 274.83C165.016 274.391 165.138 273.887 165.138 273.318C165.138 272.739 165.016 272.235 164.774 271.806C164.54 271.377 164.218 271.045 163.808 270.812C163.397 270.569 162.93 270.448 162.408 270.448C161.885 270.448 161.418 270.569 161.008 270.812C160.597 271.045 160.27 271.377 160.028 271.806C159.785 272.235 159.664 272.739 159.664 273.318C159.664 273.887 159.785 274.391 160.028 274.83C160.27 275.259 160.597 275.595 161.008 275.838C161.418 276.071 161.88 276.188 162.394 276.188ZM171.101 277.07C170.401 277.07 169.771 276.911 169.211 276.594C168.66 276.277 168.226 275.838 167.909 275.278C167.592 274.709 167.433 274.055 167.433 273.318C167.433 272.571 167.592 271.918 167.909 271.358C168.226 270.798 168.66 270.364 169.211 270.056C169.771 269.739 170.401 269.58 171.101 269.58C171.745 269.58 172.319 269.725 172.823 270.014C173.336 270.303 173.742 270.728 174.041 271.288C174.349 271.839 174.503 272.515 174.503 273.318C174.503 274.111 174.354 274.788 174.055 275.348C173.756 275.908 173.35 276.337 172.837 276.636C172.333 276.925 171.754 277.07 171.101 277.07ZM171.171 276.188C171.694 276.188 172.16 276.071 172.571 275.838C172.991 275.595 173.318 275.259 173.551 274.83C173.794 274.391 173.915 273.887 173.915 273.318C173.915 272.739 173.794 272.235 173.551 271.806C173.318 271.377 172.991 271.045 172.571 270.812C172.16 270.569 171.694 270.448 171.171 270.448C170.658 270.448 170.196 270.569 169.785 270.812C169.374 271.045 169.048 271.377 168.805 271.806C168.562 272.235 168.441 272.739 168.441 273.318C168.441 273.887 168.562 274.391 168.805 274.83C169.048 275.259 169.374 275.595 169.785 275.838C170.196 276.071 170.658 276.188 171.171 276.188ZM173.943 277V274.788L174.041 273.304L173.901 271.82V266.612H174.895V277H173.943ZM180.715 277.07C179.987 277.07 179.334 276.911 178.755 276.594C178.186 276.267 177.738 275.824 177.411 275.264C177.085 274.695 176.921 274.046 176.921 273.318C176.921 272.581 177.085 271.932 177.411 271.372C177.738 270.812 178.186 270.373 178.755 270.056C179.334 269.739 179.987 269.58 180.715 269.58C181.341 269.58 181.905 269.701 182.409 269.944C182.913 270.187 183.31 270.551 183.599 271.036L182.857 271.54C182.605 271.167 182.293 270.891 181.919 270.714C181.546 270.537 181.14 270.448 180.701 270.448C180.179 270.448 179.707 270.569 179.287 270.812C178.867 271.045 178.536 271.377 178.293 271.806C178.051 272.235 177.929 272.739 177.929 273.318C177.929 273.897 178.051 274.401 178.293 274.83C178.536 275.259 178.867 275.595 179.287 275.838C179.707 276.071 180.179 276.188 180.701 276.188C181.14 276.188 181.546 276.099 181.919 275.922C182.293 275.745 182.605 275.474 182.857 275.11L183.599 275.614C183.31 276.09 182.913 276.454 182.409 276.706C181.905 276.949 181.341 277.07 180.715 277.07ZM184.645 277V276.342L189.545 270.14L189.755 270.476H184.729V269.65H190.539V270.294L185.653 276.51L185.401 276.174H190.637V277H184.645ZM197.199 277V275.376L197.157 275.11V272.394C197.157 271.769 196.98 271.288 196.625 270.952C196.28 270.616 195.762 270.448 195.071 270.448C194.595 270.448 194.142 270.527 193.713 270.686C193.284 270.845 192.92 271.055 192.621 271.316L192.173 270.574C192.546 270.257 192.994 270.014 193.517 269.846C194.04 269.669 194.59 269.58 195.169 269.58C196.121 269.58 196.854 269.818 197.367 270.294C197.89 270.761 198.151 271.475 198.151 272.436V277H197.199ZM194.665 277.07C194.114 277.07 193.634 276.981 193.223 276.804C192.822 276.617 192.514 276.365 192.299 276.048C192.084 275.721 191.977 275.348 191.977 274.928C191.977 274.545 192.066 274.2 192.243 273.892C192.43 273.575 192.728 273.323 193.139 273.136C193.559 272.94 194.119 272.842 194.819 272.842H197.353V273.584H194.847C194.138 273.584 193.643 273.71 193.363 273.962C193.092 274.214 192.957 274.527 192.957 274.9C192.957 275.32 193.12 275.656 193.447 275.908C193.774 276.16 194.231 276.286 194.819 276.286C195.379 276.286 195.86 276.16 196.261 275.908C196.672 275.647 196.97 275.273 197.157 274.788L197.381 275.474C197.194 275.959 196.868 276.347 196.401 276.636C195.944 276.925 195.365 277.07 194.665 277.07ZM204.603 269.58C205.2 269.58 205.723 269.697 206.171 269.93C206.628 270.154 206.983 270.499 207.235 270.966C207.496 271.433 207.627 272.021 207.627 272.73V277H206.633V272.828C206.633 272.053 206.437 271.47 206.045 271.078C205.662 270.677 205.121 270.476 204.421 270.476C203.898 270.476 203.441 270.583 203.049 270.798C202.666 271.003 202.368 271.307 202.153 271.708C201.948 272.1 201.845 272.576 201.845 273.136V277H200.851V269.65H201.803V271.666L201.649 271.288C201.882 270.756 202.256 270.341 202.769 270.042C203.282 269.734 203.894 269.58 204.603 269.58ZM210.231 279.786C209.886 279.786 209.554 279.73 209.237 279.618C208.929 279.506 208.663 279.338 208.439 279.114L208.901 278.372C209.088 278.549 209.288 278.685 209.503 278.778C209.727 278.881 209.974 278.932 210.245 278.932C210.572 278.932 210.852 278.839 211.085 278.652C211.328 278.475 211.556 278.157 211.771 277.7L212.247 276.622L212.359 276.468L215.383 269.65H216.363L212.681 277.882C212.476 278.358 212.247 278.736 211.995 279.016C211.752 279.296 211.486 279.492 211.197 279.604C210.908 279.725 210.586 279.786 210.231 279.786ZM212.191 277.21L208.803 269.65H209.839L212.835 276.398L212.191 277.21Z" fill="white"/>
<path d="M115.63 100V99.286L122.434 90.704L122.546 91.096H115.728V90.2H123.498V90.914L116.708 99.496L116.582 99.104H123.666V100H115.63ZM119.648 89.08C119.461 89.08 119.303 89.0147 119.172 88.884C119.041 88.7533 118.976 88.5947 118.976 88.408C118.976 88.212 119.041 88.0533 119.172 87.932C119.303 87.8013 119.461 87.736 119.648 87.736C119.835 87.736 119.993 87.8013 120.124 87.932C120.255 88.0533 120.32 88.212 120.32 88.408C120.32 88.5947 120.255 88.7533 120.124 88.884C119.993 89.0147 119.835 89.08 119.648 89.08ZM128.296 100.07C127.587 100.07 126.947 99.9113 126.378 99.594C125.818 99.2673 125.375 98.824 125.048 98.264C124.721 97.6947 124.558 97.046 124.558 96.318C124.558 95.5807 124.721 94.932 125.048 94.372C125.375 93.812 125.818 93.3733 126.378 93.056C126.938 92.7387 127.577 92.58 128.296 92.58C129.024 92.58 129.668 92.7387 130.228 93.056C130.797 93.3733 131.241 93.812 131.558 94.372C131.885 94.932 132.048 95.5807 132.048 96.318C132.048 97.046 131.885 97.6947 131.558 98.264C131.241 98.824 130.797 99.2673 130.228 99.594C129.659 99.9113 129.015 100.07 128.296 100.07ZM128.296 99.188C128.828 99.188 129.299 99.0713 129.71 98.838C130.121 98.5953 130.443 98.2593 130.676 97.83C130.919 97.3913 131.04 96.8873 131.04 96.318C131.04 95.7393 130.919 95.2353 130.676 94.806C130.443 94.3767 130.121 94.0453 129.71 93.812C129.299 93.5693 128.833 93.448 128.31 93.448C127.787 93.448 127.321 93.5693 126.91 93.812C126.499 94.0453 126.173 94.3767 125.93 94.806C125.687 95.2353 125.566 95.7393 125.566 96.318C125.566 96.8873 125.687 97.3913 125.93 97.83C126.173 98.2593 126.499 98.5953 126.91 98.838C127.321 99.0713 127.783 99.188 128.296 99.188ZM127.386 91.502L129.304 89.766H130.634L128.366 91.502H127.386ZM134.147 100V89.612H135.141V100H134.147ZM133.181 96.598L132.719 95.996L136.107 93.448L136.555 94.064L133.181 96.598ZM138.772 98.096L138.8 96.822L143.378 92.65H144.596L141.362 95.744L140.802 96.22L138.772 98.096ZM137.988 100V89.612H138.982V100H137.988ZM143.686 100L140.62 96.178L141.264 95.408L144.904 100H143.686ZM146.396 100V92.65H147.39V100H146.396ZM146.9 91.026C146.694 91.026 146.522 90.956 146.382 90.816C146.242 90.676 146.172 90.508 146.172 90.312C146.172 90.116 146.242 89.9527 146.382 89.822C146.522 89.682 146.694 89.612 146.9 89.612C147.105 89.612 147.278 89.6773 147.418 89.808C147.558 89.9387 147.628 90.102 147.628 90.298C147.628 90.5033 147.558 90.676 147.418 90.816C147.287 90.956 147.114 91.026 146.9 91.026ZM153.278 100.07C152.512 100.07 151.84 99.9113 151.262 99.594C150.683 99.2673 150.23 98.824 149.904 98.264C149.577 97.6947 149.414 97.046 149.414 96.318C149.414 95.59 149.568 94.946 149.876 94.386C150.193 93.826 150.622 93.3873 151.164 93.07C151.714 92.7433 152.33 92.58 153.012 92.58C153.702 92.58 154.314 92.7387 154.846 93.056C155.387 93.364 155.812 93.8027 156.12 94.372C156.428 94.932 156.582 95.5807 156.582 96.318C156.582 96.3647 156.577 96.416 156.568 96.472C156.568 96.5187 156.568 96.57 156.568 96.626H150.17V95.884H156.036L155.644 96.178C155.644 95.646 155.527 95.1747 155.294 94.764C155.07 94.344 154.762 94.0173 154.37 93.784C153.978 93.5507 153.525 93.434 153.012 93.434C152.508 93.434 152.055 93.5507 151.654 93.784C151.252 94.0173 150.94 94.344 150.716 94.764C150.492 95.184 150.38 95.6647 150.38 96.206V96.36C150.38 96.92 150.501 97.4147 150.744 97.844C150.996 98.264 151.341 98.5953 151.78 98.838C152.228 99.0713 152.736 99.188 153.306 99.188C153.754 99.188 154.169 99.1087 154.552 98.95C154.944 98.7913 155.28 98.5487 155.56 98.222L156.12 98.866C155.793 99.258 155.382 99.5567 154.888 99.762C154.402 99.9673 153.866 100.07 153.278 100.07ZM159.966 100L157.194 92.65H158.146L160.666 99.468H160.232L162.822 92.65H163.676L166.238 99.468H165.804L168.366 92.65H169.276L166.49 100H165.552L163.088 93.588H163.382L160.904 100H159.966Z" fill="white"/>
<path d="M154.609 210.094L151.768 198.335L140.748 193.961L133.987 178.509L126.034 174.191L108.537 144.821L109.105 119.314L116.604 105.339L114.9 96.5908L110.014 94.9434" stroke="#F3BD48" stroke-miterlimit="10" stroke-dasharray="3 3"/>
<path d="M138.7 241.682L136.996 233.729L150.005 223.105" stroke="#F3BD48" stroke-miterlimit="10" stroke-dasharray="3 3"/>
<path d="M110.014 119.487L126.431 117.783L147.564 121.702L152.734 113.408L169.208 112.897L193.352 90.1737L188.523 82.959" stroke="#F3BD48" stroke-miterlimit="10" stroke-dasharray="3 3"/>
<path d="M177.899 161.523L179.092 155.217L173.127 149.706L158.13 141.299L147.961 138.913L143.53 127.892L139.383 125.62L132.793 120.166" stroke="#F3BD48" stroke-miterlimit="10" stroke-dasharray="3 3"/>
<path d="M182.898 53.8155L185.512 46.828L203.52 47.3961L222.721 39.102L238.685 37.625L267.6 55.6333L297.936 57.7353L311.627 66.8246L312.536 78.9249" stroke="#F3BD48" stroke-miterlimit="10" stroke-dasharray="3 3"/>
<path d="M155.006 54.7832L159.948 56.9419L165.174 55.5785L164.89 60.18L165.913 60.6913L165.231 61.7707L167.731 65.6336L164.493 66.5994L163.982 69.3262L161.198 68.4173L159.153 71.1441L156.142 66.3722L151.086 64.4407L154.608 60.2368L155.006 54.7832Z" stroke="white" stroke-miterlimit="10"/>
<path d="M153.527 63.8152L155.004 62.111L156.197 62.3382L157.106 59.725L156.197 59.0433L156.425 56.9414L158.242 57.6231L158.526 58.8161L161.083 59.1001L161.481 58.0208L163.696 57.4527L163.298 59.725L162.333 60.1795L163.071 62.7359L164.207 62.9063L165.4 64.6674L163.128 64.8378L162.389 64.1561L160.004 65.6899L160.572 66.5989L159.151 68.3599L158.072 66.5989L158.64 65.6899L156.709 63.9857L155.516 64.5538L153.527 63.8152Z" fill="white"/>
<path d="M159.153 71.1424L158.869 73.8125L161.766 74.6078L163.073 73.5284L166.368 77.1642L165.175 78.2435L165.232 81.084L168.186 80.9135L169.095 79.6069L173.639 82.5042L172.958 83.9244L174.264 86.1967L176.593 85.1742L177.048 83.6403L182.388 84.5493L182.445 85.9695L184.831 87.2761L186.478 85.0606L185.626 83.6972L190.739 80.7999L191.818 82.1065L194.545 81.5952L194.261 79.0388L193.068 78.0731L194.999 73.358L196.647 73.4716L198.692 71.881L196.874 69.3246L195.454 69.3814L194.375 63.9846L195.681 63.7005L196.533 60.7465L193.238 59.7807L192.216 60.9169L188.182 57.906L189.035 56.3154L188.012 53.759L185.456 54.4407L184.887 56.145L179.15 54.7248L179.377 53.2477L177.389 51.373L175.4 53.2477L175.514 54.952L170.458 55.7473L170.004 54.2135L166.936 53.0205L165.232 55.6337L165.004 60.1216L166.084 60.6897L165.402 61.7122L167.902 65.6888L164.607 66.7114L163.982 69.3246L161.255 68.5293L159.153 71.1424Z" stroke="white" stroke-miterlimit="10" stroke-linecap="square"/>
<path d="M306.06 84.0941L304.185 82.6739L303.958 78.0156L308.843 79.2654L309.468 81.3105H315.831L316.512 79.2086L321.568 78.1861L321.057 83.0716L318.898 84.3214L321.057 90.4567L323.045 90.5703L325.943 94.4901L321.114 95.8535L319.694 94.3765L313.899 98.1259L314.865 100.057L312.536 104.602L308.786 100.569L309.809 98.2963L305.321 97.2169L302.651 94.6606L299.129 93.8084L301.004 90.0591L303.446 90.5135L306.06 84.0941Z" stroke="white" stroke-miterlimit="10"/>
<path d="M164.833 205.437L165.742 207.595L165.06 208.447L167.446 211.402L168.412 210.89L170.343 212.481L168.241 213.617L167.276 213.39L164.265 216.117L164.946 216.912L163.64 219.184L162.674 219.127L161.936 222.65L163.015 223.047V226.172L159.663 225.604L159.436 224.581L155.346 224.922L155.289 226.399L152.619 227.706L151.88 224.695L152.733 223.899L150.119 220.548L149.154 221.116L146.938 219.525L148.642 217.253L149.778 217.537L150.858 213.958L149.551 213.447L149.494 210.265L152.789 211.004L152.846 212.026L156.652 211.97L156.709 210.833L159.095 210.095L159.72 210.947L163.469 208.334L162.958 207.311L164.833 205.437ZM165.003 204.414L164.378 204.982L162.56 206.743L162.276 207.027L162.447 207.425L162.731 207.993L159.834 210.038L159.55 209.64L159.322 209.3L158.925 209.413L156.539 210.152L156.141 210.265V210.663L156.084 211.288L153.357 211.345L153.301 210.833L153.244 210.436L152.846 210.322L149.551 209.584L148.87 209.413V210.152L148.926 213.333V213.731L149.267 213.844L150.063 214.128L149.324 216.685L148.699 216.571L148.358 216.514L148.131 216.798L146.427 219.071L146.086 219.525L146.54 219.866L148.756 221.457L149.04 221.684L149.381 221.513L149.892 221.229L151.88 223.786L151.54 224.297L151.312 224.524L151.369 224.865L152.108 227.876L152.278 228.558L152.903 228.217L155.573 226.91L155.857 226.74V226.399L155.914 225.376L158.981 225.092L159.095 225.66L159.152 226.058L159.55 226.115L162.901 226.683L163.583 226.797V226.115V222.99V222.593L163.242 222.479L162.617 222.252L163.129 219.696H163.64H163.981L164.151 219.412L165.458 217.139L165.628 216.798L165.344 216.514L165.06 216.173L167.446 214.015L168.071 214.185L168.298 214.242L168.469 214.128L170.57 212.992L171.309 212.594L170.684 212.026L168.753 210.436L168.469 210.209L168.128 210.379L167.616 210.663L165.798 208.447L166.196 207.993L166.423 207.709L166.31 207.425L165.401 205.266L165.003 204.414Z" fill="white"/>
<path d="M143.7 240.373L144.098 243.271L143.303 244.18L145.064 248.043L146.37 247.815L148.188 249.804L145.916 251.167L145.007 250.656L141.769 253.78L142.394 254.803L141.03 257.189L139.042 255.371L139.213 254.178L135.406 252.076L134.554 252.928L131.543 252.417L132.907 249.917L133.986 249.747L134.781 245.543L133.759 245.032L133.304 242.305L136.088 242.532L136.713 243.555L140.803 242.93L140.86 241.68L143.7 240.373ZM144.155 239.578L143.473 239.919L140.746 241.226L140.462 241.396V241.737L140.406 242.475L137.111 242.987L136.656 242.248L136.486 242.021H136.202L133.418 241.794L132.68 241.737L132.793 242.475L133.248 245.202L133.304 245.486L133.588 245.6L134.213 245.941L133.588 249.349L132.907 249.463L132.623 249.52L132.509 249.747L131.146 252.246L130.748 252.928L131.543 253.042L134.554 253.553L134.838 253.61L135.065 253.383L135.577 252.871L138.701 254.576L138.588 255.371L138.531 255.655L138.758 255.882L140.746 257.7L141.258 258.155L141.598 257.53L142.962 255.144L143.132 254.86L142.962 254.576L142.451 253.837L145.064 251.338L145.575 251.622L145.859 251.792L146.143 251.622L148.416 250.258L148.984 249.917L148.529 249.406L146.711 247.418L146.484 247.19L146.2 247.247L145.348 247.418L143.928 244.35L144.496 243.725L144.666 243.555L144.609 243.271L144.212 240.373L144.155 239.578Z" fill="white"/>
<path d="M172.674 157.947L175.969 160.504L175.855 162.322L180.343 163.628L181.195 162.208L184.32 161.981L185.797 164.537L185.456 166.298L189.262 168.627L190.512 167.548L195.056 167.832" stroke="white" stroke-miterlimit="10"/>
<path d="M168.582 177.318L171.479 179.023L171.195 180.045L174.945 181.011L175.342 180.045L178.58 180.159L176.933 182.886H176.081L175.626 184.76L176.478 185.158L175.967 187.26" stroke="white" stroke-miterlimit="10"/>
<path d="M169.719 184.874L171.707 185.385V185.897L172.73 186.351V185.328L172.446 185.044L172.9 183.624L173.468 183.738L174.093 182.715L173.014 182.488L172.787 182.829L171.878 182.545L170.457 182.09V181.693L169.435 181.238L169.321 182.431L169.776 182.658L169.321 184.079L168.81 184.192L168.355 185.101L169.435 185.158L169.719 184.874Z" fill="white"/>
<path d="M91.9482 104.716L93.198 106.079L93.9365 104.545L93.5957 104.148L95.0727 102.102L96.3225 102.5L96.4361 101.421L100.356 100.341L100.47 100.853L101.435 100.909L102.231 100.398L102.06 99.8869L106.378 98.6371L106.548 99.262H108.139L108.082 97.6713L107.457 97.5009L108.707 91.82L109.275 91.9337L110.013 90.3998L108.309 90.059L108.082 90.5134L104.389 88.5819L104.617 88.1275L103.935 87.4458L102.969 87.5026L102.855 88.0707L98.6517 87.0481L98.7653 86.5368L97.97 86.0824L97.0042 86.3096V86.8777L92.6299 86.9345V86.3096L91.0393 85.9688L90.9825 87.6162L91.437 87.7866L90.3008 91.1383L89.7895 91.0247L89.1078 91.9337L89.6759 92.8426L90.244 92.7858L91.3801 98.1826L90.7553 98.5235L91.3801 99.546L89.9031 101.534L89.5055 101.307L88.3125 102.5L89.9031 103.239L90.244 102.955L92.1755 104.432L91.9482 104.716Z" stroke="white" stroke-miterlimit="10"/>
<path d="M172.503 160.504C171.651 162.095 169.322 168.23 168.754 169.934C167.617 173.286 166.538 176.694 165.97 180.216C165.629 182.432 165.516 184.932 166.993 186.693C168.072 187.999 169.776 188.624 171.424 188.908C173.128 189.135 174.832 189.079 176.48 189.192C178.411 189.306 180.456 189.704 182.217 188.965C184.206 188.17 185.001 185.613 185.796 183.682C186.023 183.114 187.273 179.364 188.239 178.853C192.159 176.183 193.806 171.354 193.977 168.684" stroke="white" stroke-width="3" stroke-miterlimit="10" stroke-dasharray="1 1"/>
<path d="M63.2029 138.971C53.6591 137.21 48.4895 127.553 48.2623 117.782C48.2055 114.544 49.1144 111.249 48.3759 108.124C47.5806 104.716 45.0242 102.103 43.2063 99.1485C36.3324 87.8436 39.741 70.4602 28.6633 63.3023C25.7661 61.4276 46.4444 70.0057 44.4561 67.2221C41.6157 63.1887 43.7744 57.6782 43.888 52.7359C44.172 39.6131 30.3108 31.5463 20.2556 23.1386C3.72432 9.27731 -5.4219 -11.2306 -14 -31" stroke="#F3BD48" stroke-width="3" stroke-miterlimit="10"/>
<path d="M360.766 229.58C362.186 230.091 365.765 233.727 366.446 235.091C367.639 237.363 369.116 239.408 370.878 241.226C371.73 242.078 372.639 242.93 373.832 243.271C374.854 243.612 375.99 243.498 377.07 243.441C381.785 243.214 386.557 244.009 391.215 243.271C393.203 242.987 395.305 242.362 397.237 242.873C398.316 243.157 399.282 243.669 400.304 244.066C401.611 244.521 412.291 245.771 421.153 243.953C433.594 241.339 434.958 256.735 441.547 257.757C459.215 260.541 477.337 263.836 477.166 264.745" stroke="#F3BD48" stroke-width="3" stroke-miterlimit="10"/>
</svg>
